M48
; DRILL file {KiCad (6.0.4)} date Fri May 27 18:55:42 2022
; FORMAT={-:-/ absolute / inch / decimal}
; #@! TF.CreationDate,2022-05-27T18:55:42+02:00
; #@! TF.GenerationSoftware,Kicad,Pcbnew,(6.0.4)
; #@! TF.FileFunction,NonPlated,1,2,NPTH
FMAT,2
INCH
; #@! TA.AperFunction,NonPlated,NPTH,ComponentDrill
T1C0.0197
%
G90
G05
T1
X2.862Y-1.1457
X2.862Y-1.1752
X2.862Y-1.2047
X2.862Y-2.2874
X2.862Y-2.3169
X2.862Y-2.3465
X2.862Y-2.9567
X2.862Y-2.9862
X2.862Y-3.0157
X2.862Y-4.0984
X2.862Y-4.128
X2.862Y-4.1575
X2.9211Y-1.1457
X2.9211Y-1.1752
X2.9211Y-1.2047
X2.9211Y-2.2874
X2.9211Y-2.3169
X2.9211Y-2.3465
X2.9211Y-2.9567
X2.9211Y-2.9862
X2.9211Y-3.0157
X2.9211Y-4.0984
X2.9211Y-4.128
X2.9211Y-4.1575
X5.1112Y-3.5586
X5.1112Y-3.5881
X5.1112Y-3.6176
X5.1113Y-1.7185
X5.1113Y-1.748
X5.1113Y-1.7776
X5.1703Y-3.5586
X5.1703Y-3.5881
X5.1703Y-3.6176
X5.1704Y-1.7185
X5.1704Y-1.748
X5.1704Y-1.7776
X5.5443Y-3.5586
X5.5443Y-3.5881
X5.5443Y-3.6176
X5.5444Y-1.7185
X5.5444Y-1.748
X5.5444Y-1.7776
X5.6033Y-3.5586
X5.6033Y-3.5881
X5.6033Y-3.6176
X5.6034Y-1.7185
X5.6034Y-1.748
X5.6034Y-1.7776
X7.7935Y-1.1457
X7.7935Y-1.1752
X7.7935Y-1.2047
X7.7935Y-2.2874
X7.7935Y-2.3169
X7.7935Y-2.3465
X7.7935Y-2.9567
X7.7935Y-2.9862
X7.7935Y-3.0157
X7.7935Y-4.0984
X7.7935Y-4.128
X7.7935Y-4.1575
X7.8526Y-1.1457
X7.8526Y-1.1752
X7.8526Y-1.2047
X7.8526Y-2.2874
X7.8526Y-2.3169
X7.8526Y-2.3465
X7.8526Y-2.9567
X7.8526Y-2.9862
X7.8526Y-3.0157
X7.8526Y-4.0984
X7.8526Y-4.128
X7.8526Y-4.1575
T0
M30
