%TF.GenerationSoftware,KiCad,Pcbnew,(6.0.4)*%
%TF.CreationDate,2022-06-05T17:20:23+02:00*%
%TF.ProjectId,Time-O-Mat_MoBo_H01,54696d65-2d4f-42d4-9d61-745f4d6f426f,rev?*%
%TF.SameCoordinates,Original*%
%TF.FileFunction,Legend,Bot*%
%TF.FilePolarity,Positive*%
%FSLAX46Y46*%
G04 Gerber Fmt 4.6, Leading zero omitted, Abs format (unit mm)*
G04 Created by KiCad (PCBNEW (6.0.4)) date 2022-06-05 17:20:23*
%MOMM*%
%LPD*%
G01*
G04 APERTURE LIST*
%ADD10C,0.600000*%
G04 APERTURE END LIST*
D10*
X96907732Y-25154142D02*
X95193446Y-25154142D01*
X96425589Y-28154142D02*
X96050589Y-25154142D01*
X94568446Y-28154142D02*
X94193446Y-25154142D01*
X93282732Y-28154142D02*
X93086303Y-26582714D01*
X93193446Y-26297000D01*
X93461303Y-26154142D01*
X93889874Y-26154142D01*
X94193446Y-26297000D01*
X94354160Y-26439857D01*
X90693446Y-28011285D02*
X90997017Y-28154142D01*
X91568446Y-28154142D01*
X91836303Y-28011285D01*
X91943446Y-27725571D01*
X91800589Y-26582714D01*
X91622017Y-26297000D01*
X91318446Y-26154142D01*
X90747017Y-26154142D01*
X90479160Y-26297000D01*
X90372017Y-26582714D01*
X90407732Y-26868428D01*
X91872017Y-27154142D01*
X85461303Y-26154142D02*
X85711303Y-28154142D01*
X86747017Y-26154142D02*
X86943446Y-27725571D01*
X86836303Y-28011285D01*
X86568446Y-28154142D01*
X86139875Y-28154142D01*
X85836303Y-28011285D01*
X85675589Y-27868428D01*
X83854160Y-28154142D02*
X84122017Y-28011285D01*
X84229160Y-27725571D01*
X83907732Y-25154142D01*
X82889875Y-26154142D02*
X81747017Y-26154142D01*
X82336303Y-25154142D02*
X82657732Y-27725571D01*
X82550589Y-28011285D01*
X82282732Y-28154142D01*
X81997017Y-28154142D01*
X80997017Y-28154142D02*
X80747017Y-26154142D01*
X80622017Y-25154142D02*
X80782732Y-25297000D01*
X80657732Y-25439857D01*
X80497017Y-25297000D01*
X80622017Y-25154142D01*
X80657732Y-25439857D01*
X79568446Y-28154142D02*
X79318446Y-26154142D01*
X79354160Y-26439857D02*
X79193446Y-26297000D01*
X78889874Y-26154142D01*
X78461303Y-26154142D01*
X78193446Y-26297000D01*
X78086303Y-26582714D01*
X78282732Y-28154142D01*
X78086303Y-26582714D02*
X77907732Y-26297000D01*
X77604160Y-26154142D01*
X77175589Y-26154142D01*
X76907732Y-26297000D01*
X76800589Y-26582714D01*
X76997017Y-28154142D01*
X74282732Y-28154142D02*
X74086303Y-26582714D01*
X74193446Y-26297000D01*
X74461303Y-26154142D01*
X75032732Y-26154142D01*
X75336303Y-26297000D01*
X74264875Y-28011285D02*
X74568446Y-28154142D01*
X75282732Y-28154142D01*
X75550589Y-28011285D01*
X75657732Y-27725571D01*
X75622017Y-27439857D01*
X75443446Y-27154142D01*
X75139875Y-27011285D01*
X74425589Y-27011285D01*
X74122017Y-26868428D01*
X73032732Y-26154142D02*
X71889875Y-26154142D01*
X72479160Y-25154142D02*
X72800589Y-27725571D01*
X72693446Y-28011285D01*
X72425589Y-28154142D01*
X72139875Y-28154142D01*
X69979160Y-28011285D02*
X70282732Y-28154142D01*
X70854160Y-28154142D01*
X71122017Y-28011285D01*
X71229160Y-27725571D01*
X71086303Y-26582714D01*
X70907732Y-26297000D01*
X70604160Y-26154142D01*
X70032732Y-26154142D01*
X69764875Y-26297000D01*
X69657732Y-26582714D01*
X69693446Y-26868428D01*
X71157732Y-27154142D01*
X66407732Y-28011285D02*
X66139874Y-28154142D01*
X65568446Y-28154142D01*
X65264874Y-28011285D01*
X65086303Y-27725571D01*
X65068446Y-27582714D01*
X65175589Y-27297000D01*
X65443446Y-27154142D01*
X65872017Y-27154142D01*
X66139874Y-27011285D01*
X66247017Y-26725571D01*
X66229160Y-26582714D01*
X66050589Y-26297000D01*
X65747017Y-26154142D01*
X65318446Y-26154142D01*
X65050589Y-26297000D01*
X63425589Y-28154142D02*
X63693446Y-28011285D01*
X63818446Y-27868428D01*
X63925589Y-27582714D01*
X63818446Y-26725571D01*
X63639874Y-26439857D01*
X63479160Y-26297000D01*
X63175589Y-26154142D01*
X62747017Y-26154142D01*
X62479160Y-26297000D01*
X62354160Y-26439857D01*
X62247017Y-26725571D01*
X62354160Y-27582714D01*
X62532732Y-27868428D01*
X62693446Y-28011285D01*
X62997017Y-28154142D01*
X63425589Y-28154142D01*
X60711303Y-28154142D02*
X60979160Y-28011285D01*
X61086303Y-27725571D01*
X60764874Y-25154142D01*
X58032732Y-26154142D02*
X58282732Y-28154142D01*
X59318446Y-26154142D02*
X59514874Y-27725571D01*
X59407732Y-28011285D01*
X59139874Y-28154142D01*
X58711303Y-28154142D01*
X58407732Y-28011285D01*
X58247017Y-27868428D01*
X57032732Y-26154142D02*
X55889874Y-26154142D01*
X56479160Y-25154142D02*
X56800589Y-27725571D01*
X56693446Y-28011285D01*
X56425589Y-28154142D01*
X56139874Y-28154142D01*
X55139874Y-28154142D02*
X54889874Y-26154142D01*
X54764874Y-25154142D02*
X54925589Y-25297000D01*
X54800589Y-25439857D01*
X54639874Y-25297000D01*
X54764874Y-25154142D01*
X54800589Y-25439857D01*
X53282732Y-28154142D02*
X53550589Y-28011285D01*
X53675589Y-27868428D01*
X53782732Y-27582714D01*
X53675589Y-26725571D01*
X53497017Y-26439857D01*
X53336303Y-26297000D01*
X53032732Y-26154142D01*
X52604160Y-26154142D01*
X52336303Y-26297000D01*
X52211303Y-26439857D01*
X52104160Y-26725571D01*
X52211303Y-27582714D01*
X52389874Y-27868428D01*
X52550589Y-28011285D01*
X52854160Y-28154142D01*
X53282732Y-28154142D01*
X50747017Y-26154142D02*
X50997017Y-28154142D01*
X50782732Y-26439857D02*
X50622017Y-26297000D01*
X50318446Y-26154142D01*
X49889874Y-26154142D01*
X49622017Y-26297000D01*
X49514874Y-26582714D01*
X49711303Y-28154142D01*
X46175589Y-26154142D02*
X45032732Y-26154142D01*
X45622017Y-25154142D02*
X45943446Y-27725571D01*
X45836303Y-28011285D01*
X45568446Y-28154142D01*
X45282732Y-28154142D01*
X43854160Y-28154142D02*
X44122017Y-28011285D01*
X44247017Y-27868428D01*
X44354160Y-27582714D01*
X44247017Y-26725571D01*
X44068446Y-26439857D01*
X43907732Y-26297000D01*
X43604160Y-26154142D01*
X43175589Y-26154142D01*
X42907732Y-26297000D01*
X42782732Y-26439857D01*
X42675589Y-26725571D01*
X42782732Y-27582714D01*
X42961303Y-27868428D01*
X43122017Y-28011285D01*
X43425589Y-28154142D01*
X43854160Y-28154142D01*
X39461303Y-26154142D02*
X38318446Y-26154142D01*
X38907732Y-25154142D02*
X39229160Y-27725571D01*
X39122017Y-28011285D01*
X38854160Y-28154142D01*
X38568446Y-28154142D01*
X37568446Y-28154142D02*
X37318446Y-26154142D01*
X37193446Y-25154142D02*
X37354160Y-25297000D01*
X37229160Y-25439857D01*
X37068446Y-25297000D01*
X37193446Y-25154142D01*
X37229160Y-25439857D01*
X36139874Y-28154142D02*
X35889874Y-26154142D01*
X35925589Y-26439857D02*
X35764874Y-26297000D01*
X35461303Y-26154142D01*
X35032732Y-26154142D01*
X34764874Y-26297000D01*
X34657732Y-26582714D01*
X34854160Y-28154142D01*
X34657732Y-26582714D02*
X34479160Y-26297000D01*
X34175589Y-26154142D01*
X33747017Y-26154142D01*
X33479160Y-26297000D01*
X33372017Y-26582714D01*
X33568446Y-28154142D01*
X30979160Y-28011285D02*
X31282732Y-28154142D01*
X31854160Y-28154142D01*
X32122017Y-28011285D01*
X32229160Y-27725571D01*
X32086303Y-26582714D01*
X31907732Y-26297000D01*
X31604160Y-26154142D01*
X31032732Y-26154142D01*
X30764874Y-26297000D01*
X30657732Y-26582714D01*
X30693446Y-26868428D01*
X32157732Y-27154142D01*
X27461303Y-26154142D02*
X26318446Y-26154142D01*
X26907732Y-25154142D02*
X27229160Y-27725571D01*
X27122017Y-28011285D01*
X26854160Y-28154142D01*
X26568446Y-28154142D01*
X24407732Y-28011285D02*
X24711303Y-28154142D01*
X25282732Y-28154142D01*
X25550589Y-28011285D01*
X25657732Y-27725571D01*
X25514874Y-26582714D01*
X25336303Y-26297000D01*
X25032732Y-26154142D01*
X24461303Y-26154142D01*
X24193446Y-26297000D01*
X24086303Y-26582714D01*
X24122017Y-26868428D01*
X25586303Y-27154142D01*
X22568446Y-28154142D02*
X22836303Y-28011285D01*
X22943446Y-27725571D01*
X22622017Y-25154142D01*
X20997017Y-28154142D02*
X21264874Y-28011285D01*
X21372017Y-27725571D01*
X21050589Y-25154142D01*
X19854160Y-28154142D02*
X19604160Y-26154142D01*
X19479160Y-25154142D02*
X19639874Y-25297000D01*
X19514874Y-25439857D01*
X19354160Y-25297000D01*
X19479160Y-25154142D01*
X19514874Y-25439857D01*
X18175589Y-26154142D02*
X18425589Y-28154142D01*
X18211303Y-26439857D02*
X18050589Y-26297000D01*
X17747017Y-26154142D01*
X17318446Y-26154142D01*
X17050589Y-26297000D01*
X16943446Y-26582714D01*
X17139874Y-28154142D01*
X14175589Y-26154142D02*
X14479160Y-28582714D01*
X14657732Y-28868428D01*
X14818446Y-29011285D01*
X15122017Y-29154142D01*
X15550589Y-29154142D01*
X15818446Y-29011285D01*
X14407732Y-28011285D02*
X14711303Y-28154142D01*
X15282732Y-28154142D01*
X15550589Y-28011285D01*
X15675589Y-27868428D01*
X15782732Y-27582714D01*
X15675589Y-26725571D01*
X15497017Y-26439857D01*
X15336303Y-26297000D01*
X15032732Y-26154142D01*
X14461303Y-26154142D01*
X14193446Y-26297000D01*
X12961303Y-27868428D02*
X12836303Y-28011285D01*
X12997017Y-28154142D01*
X13122017Y-28011285D01*
X12961303Y-27868428D01*
X12997017Y-28154142D01*
X11532732Y-27868428D02*
X11407732Y-28011285D01*
X11568446Y-28154142D01*
X11693446Y-28011285D01*
X11532732Y-27868428D01*
X11568446Y-28154142D01*
X10104160Y-27868428D02*
X9979160Y-28011285D01*
X10139874Y-28154142D01*
X10264874Y-28011285D01*
X10104160Y-27868428D01*
X10139874Y-28154142D01*
%TO.C,kibuzzard-61E88A0E*%
G36*
X8495991Y-17399000D02*
G01*
X9038916Y-16584612D01*
X13093700Y-16584612D01*
X13190141Y-17309703D01*
X13479462Y-17684750D01*
X13858081Y-17806194D01*
X14351000Y-17827625D01*
X15279687Y-17770475D01*
X15279687Y-19742150D01*
X15158244Y-20299363D01*
X14701044Y-20470813D01*
X14186694Y-20492244D01*
X13808075Y-20627975D01*
X13479462Y-21585238D01*
X13579475Y-22310328D01*
X13879512Y-22685375D01*
X14258131Y-22806819D01*
X14736762Y-22828250D01*
X15647987Y-22753637D01*
X16400462Y-22529800D01*
X16994187Y-22156738D01*
X17422812Y-21605875D01*
X17439525Y-21556663D01*
X19865975Y-21556663D01*
X19887406Y-22049581D01*
X20008850Y-22428200D01*
X20353536Y-22706806D01*
X20987544Y-22799675D01*
X22030531Y-22606794D01*
X22337712Y-22042438D01*
X23043158Y-22610366D01*
X24102219Y-22799675D01*
X24906287Y-22674263D01*
X25670669Y-22298025D01*
X26395362Y-21670963D01*
X26469446Y-21570950D01*
X28381325Y-21570950D01*
X28517056Y-22353191D01*
X28924250Y-22728238D01*
X29610050Y-22813963D01*
X30267275Y-22742525D01*
X30638750Y-22571075D01*
X30838775Y-22285325D01*
X30910212Y-21542375D01*
X30910212Y-16756062D01*
X31349553Y-17329348D01*
X31953200Y-18163381D01*
X32513984Y-18947408D01*
X32824737Y-19370675D01*
X33081912Y-19706431D01*
X33431956Y-19963606D01*
X34032031Y-20127913D01*
X34617819Y-19977894D01*
X34996437Y-19685000D01*
X35110737Y-19527838D01*
X35535791Y-18968839D01*
X36239450Y-18006219D01*
X36889531Y-17111464D01*
X37153850Y-16756062D01*
X37153850Y-21570950D01*
X37175281Y-22063869D01*
X37311012Y-22428200D01*
X37696775Y-22717522D01*
X38425437Y-22813963D01*
X39132669Y-22717522D01*
X39511287Y-22428200D01*
X39647019Y-22056725D01*
X39668450Y-21542375D01*
X39668450Y-19713575D01*
X40597137Y-19713575D01*
X40675719Y-20363656D01*
X40925750Y-20713700D01*
X41640125Y-20842288D01*
X45040550Y-20842288D01*
X45679916Y-20720844D01*
X45997812Y-20356513D01*
X46069250Y-19699288D01*
X45983525Y-19056350D01*
X45712062Y-18713450D01*
X45026262Y-18584863D01*
X41625837Y-18584863D01*
X40990044Y-18702734D01*
X40682862Y-19056350D01*
X40597137Y-19713575D01*
X39668450Y-19713575D01*
X39668450Y-17549019D01*
X46783625Y-17549019D01*
X46876494Y-18639334D01*
X47155100Y-19645709D01*
X47619444Y-20568146D01*
X48269525Y-21406644D01*
X49055337Y-22103606D01*
X49926875Y-22601436D01*
X50884137Y-22900134D01*
X51927125Y-22999700D01*
X52972345Y-22901473D01*
X53936305Y-22606794D01*
X54819004Y-22115661D01*
X55620444Y-21428075D01*
X56286152Y-20604758D01*
X56757877Y-19713575D01*
X57856438Y-19713575D01*
X57935019Y-20363656D01*
X58185050Y-20713700D01*
X58899425Y-20842288D01*
X62299850Y-20842288D01*
X62939216Y-20720844D01*
X63257113Y-20356513D01*
X63328550Y-19699288D01*
X63242825Y-19056350D01*
X62971363Y-18713450D01*
X62285563Y-18584863D01*
X58885138Y-18584863D01*
X58249344Y-18702734D01*
X57942163Y-19056350D01*
X57856438Y-19713575D01*
X56757877Y-19713575D01*
X56761658Y-19706431D01*
X57046961Y-18733095D01*
X57098643Y-18163381D01*
X64042925Y-18163381D01*
X64151867Y-18927763D01*
X64478694Y-19463544D01*
X65443100Y-19885025D01*
X68829238Y-19885025D01*
X68357750Y-20556538D01*
X67414775Y-20828000D01*
X66675397Y-20785138D01*
X66114613Y-20656550D01*
X65957450Y-20599400D01*
X65385950Y-20442238D01*
X64600138Y-21085175D01*
X64414400Y-21742400D01*
X64604602Y-22298720D01*
X65175209Y-22696091D01*
X66126221Y-22934513D01*
X67457638Y-23013988D01*
X68455977Y-22922905D01*
X69336444Y-22649656D01*
X70066892Y-22226389D01*
X70615175Y-21685250D01*
X70686471Y-21570950D01*
X72443975Y-21570950D01*
X72465406Y-22063869D01*
X72601138Y-22442488D01*
X72969041Y-22731809D01*
X73701275Y-22828250D01*
X74426366Y-22728238D01*
X74801413Y-22428200D01*
X74922856Y-22049581D01*
X74944288Y-21556663D01*
X74944288Y-19056350D01*
X75165744Y-18124091D01*
X75830113Y-17813338D01*
X76508769Y-18141950D01*
X76687363Y-19070638D01*
X76687363Y-21570950D01*
X76708794Y-22071013D01*
X76844525Y-22442488D01*
X77223144Y-22731809D01*
X77958950Y-22828250D01*
X78684041Y-22728238D01*
X79059088Y-22428200D01*
X79180531Y-22049581D01*
X79201963Y-21556663D01*
X79201963Y-19056350D01*
X79423419Y-18124091D01*
X80087788Y-17813338D01*
X80730725Y-18124091D01*
X80945038Y-19056350D01*
X80945038Y-21585238D01*
X80966469Y-22078156D01*
X81102200Y-22456775D01*
X81487963Y-22735381D01*
X82216625Y-22828250D01*
X82941716Y-22731809D01*
X83316763Y-22442488D01*
X83438206Y-22071013D01*
X83459026Y-21585238D01*
X84602638Y-21585238D01*
X84624069Y-22078156D01*
X84759800Y-22456775D01*
X85127703Y-22735381D01*
X85859938Y-22828250D01*
X86585028Y-22731809D01*
X86960075Y-22442488D01*
X87081519Y-22071013D01*
X87102950Y-21570950D01*
X87102950Y-16556037D01*
X87081519Y-16063119D01*
X86960075Y-15684500D01*
X86581456Y-15405894D01*
X85845650Y-15313025D01*
X84874100Y-15555912D01*
X84616925Y-16170275D01*
X84602638Y-16584612D01*
X84602638Y-21585238D01*
X83459026Y-21585238D01*
X83459638Y-21570950D01*
X83459638Y-16541750D01*
X83438206Y-16048831D01*
X83302475Y-15684500D01*
X82941716Y-15395178D01*
X82288063Y-15298737D01*
X81245075Y-15555912D01*
X81002188Y-16298862D01*
X80262809Y-15538053D01*
X79387700Y-15284450D01*
X78498700Y-15422562D01*
X77774800Y-15836900D01*
X77216000Y-16527462D01*
X76837381Y-16077406D01*
X76130150Y-15563056D01*
X75130025Y-15284450D01*
X74079894Y-15504120D01*
X73215500Y-16163131D01*
X72786875Y-16876712D01*
X72529700Y-17845881D01*
X72443975Y-19070638D01*
X72443975Y-21570950D01*
X70686471Y-21570950D01*
X71115238Y-20883563D01*
X71415275Y-20021550D01*
X71515288Y-19099213D01*
X71385906Y-17979231D01*
X70997762Y-17019587D01*
X70350856Y-16220281D01*
X69510275Y-15621000D01*
X68541106Y-15261431D01*
X67443350Y-15141575D01*
X66516448Y-15229086D01*
X65721706Y-15491619D01*
X65059123Y-15929173D01*
X64528700Y-16541750D01*
X64164369Y-17318633D01*
X64042925Y-18163381D01*
X57098643Y-18163381D01*
X57142063Y-17684750D01*
X57034906Y-16536392D01*
X56713438Y-15463044D01*
X56213375Y-14511139D01*
X55570438Y-13727112D01*
X54802484Y-13102034D01*
X54690628Y-13041312D01*
X84602638Y-13041312D01*
X84624069Y-13534231D01*
X84752656Y-13905706D01*
X85131275Y-14198600D01*
X85852794Y-14284325D01*
X86574313Y-14198600D01*
X86952931Y-13898562D01*
X87081519Y-13519944D01*
X87087420Y-13384213D01*
X87888763Y-13384213D01*
X87960200Y-13977144D01*
X88203088Y-14284325D01*
X88931750Y-14412912D01*
X91660663Y-14412912D01*
X91660663Y-21599525D01*
X91682094Y-22085300D01*
X91810681Y-22449631D01*
X92189300Y-22742525D01*
X92903675Y-22828250D01*
X93610906Y-22742525D01*
X93982381Y-22449631D01*
X94110969Y-22078156D01*
X94132400Y-21585238D01*
X94132400Y-14412912D01*
X96875600Y-14412912D01*
X97547113Y-14305756D01*
X97832863Y-13970000D01*
X97904300Y-13369925D01*
X97832863Y-12776994D01*
X97589975Y-12469812D01*
X96861313Y-12341225D01*
X88917462Y-12341225D01*
X88245950Y-12448381D01*
X87960200Y-12784137D01*
X87888763Y-13384213D01*
X87087420Y-13384213D01*
X87102950Y-13027025D01*
X87081519Y-12534106D01*
X86960075Y-12169775D01*
X86581456Y-11880453D01*
X85845650Y-11784012D01*
X85124131Y-11880453D01*
X84759800Y-12169775D01*
X84624069Y-12548394D01*
X84602638Y-13041312D01*
X54690628Y-13041312D01*
X53927375Y-12626975D01*
X52984400Y-12326937D01*
X52012850Y-12226925D01*
X50990401Y-12322473D01*
X50037603Y-12609116D01*
X49154457Y-13086854D01*
X48340962Y-13755687D01*
X47659627Y-14566057D01*
X47172959Y-15468402D01*
X46880959Y-16462722D01*
X46783625Y-17549019D01*
X39668450Y-17549019D01*
X39668450Y-13612812D01*
X39647019Y-13119894D01*
X39511287Y-12741275D01*
X39125525Y-12462669D01*
X38396862Y-12369800D01*
X37732494Y-12462669D01*
X37368162Y-12655550D01*
X37282437Y-12741275D01*
X34039175Y-16998950D01*
X33132204Y-15800514D01*
X32354393Y-14776958D01*
X31705740Y-13928280D01*
X31186247Y-13254482D01*
X30795912Y-12755562D01*
X30386933Y-12466241D01*
X29645769Y-12369800D01*
X28915320Y-12466241D01*
X28538487Y-12755562D01*
X28402756Y-13141325D01*
X28381325Y-13641387D01*
X28381325Y-21570950D01*
X26469446Y-21570950D01*
X26982737Y-20878006D01*
X27335162Y-20004088D01*
X27452637Y-19049206D01*
X27334369Y-18095119D01*
X26979563Y-17223581D01*
X26388219Y-16434594D01*
X25655588Y-15811500D01*
X24876919Y-15437644D01*
X24052212Y-15313025D01*
X23166387Y-15484475D01*
X22609175Y-15805944D01*
X22352000Y-16098837D01*
X22026959Y-15498762D01*
X21223287Y-15298737D01*
X20394612Y-15384463D01*
X20015994Y-15684500D01*
X19887406Y-16063119D01*
X19865975Y-16556037D01*
X19865975Y-21556663D01*
X17439525Y-21556663D01*
X17679987Y-20848637D01*
X17765712Y-19885025D01*
X17765712Y-17770475D01*
X18351500Y-17813338D01*
X18872994Y-17570450D01*
X19080162Y-16741775D01*
X19008725Y-15891669D01*
X18808700Y-15513050D01*
X18237200Y-15327312D01*
X17765712Y-15384463D01*
X17765712Y-13912850D01*
X17744281Y-13427075D01*
X17608550Y-13084175D01*
X17240647Y-12816284D01*
X16508412Y-12726987D01*
X15733316Y-12859147D01*
X15351125Y-13255625D01*
X15279687Y-13984287D01*
X15279687Y-15384463D01*
X14329569Y-15327312D01*
X13843794Y-15348744D01*
X13465175Y-15484475D01*
X13186569Y-15852378D01*
X13093700Y-16584612D01*
X9038916Y-16584612D01*
X12581070Y-11271382D01*
X98416930Y-11271382D01*
X102502009Y-17399000D01*
X98416930Y-23526618D01*
X12581070Y-23526618D01*
X8495991Y-17399000D01*
G37*
G36*
X24602281Y-18199100D02*
G01*
X24952325Y-19070638D01*
X24580850Y-19920744D01*
X23680737Y-20299363D01*
X22802056Y-19913600D01*
X22452012Y-19063494D01*
X22787769Y-18199100D01*
X23687881Y-17799050D01*
X24602281Y-18199100D01*
G37*
G36*
X52934394Y-14954052D02*
G01*
X53798787Y-15548769D01*
X54251225Y-16130588D01*
X54522687Y-16818769D01*
X54613175Y-17613313D01*
X54521894Y-18407856D01*
X54248050Y-19096037D01*
X53791644Y-19677856D01*
X52921892Y-20272573D01*
X51955700Y-20470813D01*
X50991294Y-20277931D01*
X50126900Y-19699288D01*
X49674462Y-19126200D01*
X49403000Y-18435638D01*
X49312512Y-17627600D01*
X49403794Y-16817975D01*
X49677638Y-16122650D01*
X50134044Y-15541625D01*
X51003795Y-14952266D01*
X51969987Y-14755812D01*
X52934394Y-14954052D01*
G37*
G36*
X68400613Y-17777619D02*
G01*
X68857813Y-18584863D01*
X67057588Y-18584863D01*
X66514663Y-18127663D01*
X66764694Y-17599025D01*
X67479069Y-17399000D01*
X68400613Y-17777619D01*
G37*
%TD*%
M02*
