M48
; DRILL file {KiCad (6.0.1)} date Sat Jan 22 15:59:56 2022
; FORMAT={-:-/ absolute / inch / decimal}
; #@! TF.CreationDate,2022-01-22T15:59:56+01:00
; #@! TF.GenerationSoftware,Kicad,Pcbnew,(6.0.1)
; #@! TF.FileFunction,Plated,1,2,PTH
FMAT,2
INCH
; #@! TA.AperFunction,Plated,PTH,ViaDrill
T1C0.0118
; #@! TA.AperFunction,Plated,PTH,ViaDrill
T2C0.0157
; #@! TA.AperFunction,Plated,PTH,ViaDrill
T3C0.0197
; #@! TA.AperFunction,Plated,PTH,ComponentDrill
T4C0.0197
; #@! TA.AperFunction,Plated,PTH,ComponentDrill
T5C0.0236
; #@! TA.AperFunction,Plated,PTH,ViaDrill
T6C0.0276
; #@! TA.AperFunction,Plated,PTH,ComponentDrill
T7C0.0295
; #@! TA.AperFunction,Plated,PTH,ComponentDrill
T8C0.0315
; #@! TA.AperFunction,Plated,PTH,ComponentDrill
T9C0.0390
; #@! TA.AperFunction,Plated,PTH,ComponentDrill
T10C0.0394
; #@! TA.AperFunction,Plated,PTH,ComponentDrill
T11C0.0512
; #@! TA.AperFunction,Plated,PTH,ComponentDrill
T12C0.1260
%
G90
G05
T1
X0.1543Y4.8819
X0.335Y-0.65
X0.335Y-1.03
X0.335Y-1.415
X0.34Y-0.31
X0.355Y-0.11
X0.4507Y3.2296
X0.46Y-0.415
X0.4854Y4.9638
X0.545Y-0.375
X0.64Y-0.115
X0.7126Y-0.2423
X0.97Y-0.51
X1.1452Y0.8658
X1.4135Y-1.09
X1.4185Y-0.9825
X1.445Y-1.09
X1.45Y-0.9825
X1.73Y-1.02
X1.73Y-1.13
X1.765Y-1.13
X1.77Y-1.02
X1.798Y3.3548
X1.8Y-1.13
X1.805Y-1.02
X1.8637Y-0.6118
X1.8883Y-0.5896
X1.8983Y-0.4333
X1.9209Y-0.4551
X1.9235Y-0.594
X1.9319Y-0.4846
X1.9605Y-0.6422
X1.965Y-0.455
X1.9753Y-0.5673
X1.9915Y-0.6367
X2.02Y-0.65
X2.0229Y-0.5659
X2.4035Y4.8819
X2.665Y-0.375
X2.665Y-0.4982
X2.7Y3.2296
X2.7346Y4.9638
X2.895Y-0.795
X2.9Y-0.93
X2.96Y-0.73
X2.9625Y-0.9325
X3.0025Y-0.9725
X3.0075Y-0.7575
X3.05Y-1.02
X3.06Y-0.81
X3.0778Y-0.6122
X3.0975Y-1.0675
X3.1Y-0.85
X3.1425Y-1.1125
X3.145Y-0.895
X3.185Y-1.155
X3.19Y-0.94
X3.195Y-1.215
X3.2095Y-0.4805
X3.23Y-0.98
X3.2675Y-1.0175
X3.3075Y-1.0575
X3.345Y-1.095
X3.39Y-1.13
X3.3945Y0.8658
X3.45Y-1.13
X3.495Y-1.065
X3.5Y-1.145
X3.52Y-1.085
X3.54Y-1.185
X3.58Y-1.225
X3.68Y-0.925
X3.7092Y-0.9367
X4.0472Y3.3548
X4.075Y-0.675
X4.075Y-0.71
X4.075Y-0.7415
X4.075Y-0.773
X4.075Y-0.805
X4.0757Y-0.8678
X4.0774Y-0.8364
X4.1947Y-0.8306
X4.1947Y-0.87
X4.2654Y-0.7147
X4.2701Y-0.7458
X4.275Y-0.645
X4.2807Y-0.676
X4.305Y-0.615
X4.7069Y2.4107
X4.7187Y4.1942
X4.7227Y4.2571
X4.8Y-0.58
X4.805Y-0.46
X4.835Y-0.58
X4.84Y-0.4647
X4.8605Y2.2611
X4.8644Y4.0839
X5.0858Y4.8819
X5.19Y-0.555
X5.29Y-0.56
X5.3822Y3.2296
X5.4169Y4.9638
X6.0767Y0.8658
X6.7295Y3.3548
X7.32Y-0.335
X7.32Y-0.425
X7.335Y4.8819
X7.475Y-0.165
X7.6315Y3.2296
X7.6661Y4.9638
X7.705Y-0.665
X8.085Y-0.135
X8.326Y0.8658
X8.9787Y3.3548
T2
X0.1165Y2.7453
X0.1322Y4.0288
X0.1362Y2.2178
X0.1519Y4.5485
X0.1598Y3.5209
X0.1677Y1.706
X0.459Y3.3949
X0.5181Y5.2335
X0.525Y-0.48
X0.6363Y-0.2887
X0.7779Y1.4068
X0.7889Y-0.6013
X0.7932Y-0.7203
X0.8218Y-0.6321
X0.84Y-0.755
X0.8848Y-0.9702
X0.9126Y-0.998
X0.9669Y3.391
X0.97Y-0.9
X0.9852Y-0.9498
X1.0259Y5.2414
X1.075Y-0.43
X1.2897Y1.4107
X1.39Y-0.42
X1.4787Y3.3949
X1.5417Y5.2414
X1.8055Y1.4264
X2.0968Y4.8831
X2.0968Y3.0642
X2.1125Y4.3753
X2.1204Y3.8674
X2.1204Y2.5485
X2.1244Y2.0485
X2.3658Y2.7453
X2.3815Y4.0288
X2.3854Y2.2178
X2.4012Y4.5485
X2.4091Y3.5209
X2.4169Y1.706
X2.45Y-0.87
X2.45Y-0.91
X2.45Y-0.95
X2.45Y-0.99
X2.45Y-1.03
X2.49Y-0.87
X2.49Y-0.91
X2.49Y-0.95
X2.49Y-0.99
X2.49Y-1.03
X2.53Y-0.87
X2.53Y-0.91
X2.53Y-0.95
X2.53Y-0.99
X2.53Y-1.03
X2.57Y-0.87
X2.57Y-0.91
X2.57Y-0.95
X2.57Y-0.99
X2.57Y-1.03
X2.61Y-0.87
X2.61Y-0.91
X2.61Y-0.95
X2.61Y-0.99
X2.61Y-1.03
X2.7083Y3.3949
X2.7673Y5.2335
X3.0272Y1.4068
X3.2161Y3.391
X3.2752Y5.2414
X3.48Y-0.87
X3.539Y1.4107
X3.728Y3.3949
X3.7909Y5.2414
X3.99Y-0.945
X4.0547Y1.4264
X4.07Y-0.1
X4.185Y-0.105
X4.3461Y4.8831
X4.3461Y3.0642
X4.3618Y4.3753
X4.3697Y3.8674
X4.3697Y2.5485
X4.3736Y2.0485
X4.45Y-1.015
X4.4707Y0.8044
X4.4904Y0.6784
X4.4943Y0.576
X4.5248Y-1.0552
X4.6Y-0.46
X4.6Y-0.88
X4.9353Y0.6745
X4.9353Y0.576
X5.048Y2.7453
X5.0637Y4.0288
X5.0677Y2.2178
X5.0834Y4.5485
X5.0913Y3.5209
X5.0991Y1.706
X5.3905Y3.3949
X5.4495Y5.2335
X5.7087Y-1.3911
X5.7094Y1.4068
X5.8984Y3.391
X5.9468Y-1.4743
X5.9574Y5.2414
X6.0Y-0.835
X6.1Y-0.42
X6.1Y-0.725
X6.2212Y1.4107
X6.4102Y3.3949
X6.4732Y5.2414
X6.5644Y-1.4711
X6.7369Y1.4264
X7.0283Y4.8831
X7.0283Y3.0642
X7.044Y4.3753
X7.0519Y3.8674
X7.0519Y2.5485
X7.0558Y2.0485
X7.2972Y2.7453
X7.313Y4.0288
X7.3169Y2.2178
X7.3327Y4.5485
X7.3405Y3.5209
X7.3484Y1.706
X7.4994Y-1.4911
X7.6398Y3.3949
X7.6988Y5.2335
X7.9587Y1.4068
X8.1476Y3.391
X8.2067Y5.2414
X8.4144Y-1.5261
X8.4705Y1.4107
X8.6594Y3.3949
X8.7224Y5.2414
X8.9862Y1.4264
X9.2775Y4.8831
X9.2775Y3.0642
X9.2933Y4.3753
X9.3012Y3.8674
X9.3012Y2.5485
X9.3051Y2.0485
T3
X0.33Y-0.055
X0.345Y-0.36
X0.5746Y-0.0454
X0.6296Y-0.0454
X0.6896Y-0.0454
X0.8763Y0.8056
X0.9039Y0.6745
X0.9039Y0.5745
X1.3484Y0.6749
X1.3484Y0.5741
X3.1256Y0.8056
X3.1532Y0.6745
X3.1532Y0.5745
X3.5976Y0.6749
X3.5976Y0.5741
X4.305Y-0.965
X4.3056Y-1.0144
X5.8078Y0.8056
X5.8354Y0.6745
X5.8354Y0.5745
X6.2799Y0.6749
X6.2799Y0.5741
X8.0571Y0.8056
X8.0846Y0.6745
X8.0846Y0.5745
X8.5291Y0.6749
X8.5291Y0.5741
T4
X0.5771Y0.5906
X0.5771Y0.2756
X0.6048Y0.6574
X0.6048Y0.5237
X0.6048Y0.3424
X0.6048Y0.2088
X0.6716Y0.685
X0.6716Y0.4961
X0.6716Y0.3701
X0.6716Y0.1811
X0.7384Y0.6574
X0.7384Y0.5237
X0.7384Y0.3424
X0.7384Y0.2088
X0.7661Y0.5906
X0.7661Y0.2756
X1.4826Y0.5906
X1.4826Y0.2756
X1.5103Y0.6574
X1.5103Y0.5237
X1.5103Y0.3424
X1.5103Y0.2088
X1.5771Y0.685
X1.5771Y0.4961
X1.5771Y0.3701
X1.5771Y0.1811
X1.6439Y0.6574
X1.6439Y0.5237
X1.6439Y0.3424
X1.6439Y0.2088
X1.6716Y0.5906
X1.6716Y0.2756
X2.8264Y0.5906
X2.8264Y0.2756
X2.8541Y0.6574
X2.8541Y0.5237
X2.8541Y0.3424
X2.8541Y0.2088
X2.9209Y0.685
X2.9209Y0.4961
X2.9209Y0.3701
X2.9209Y0.1811
X2.9877Y0.6574
X2.9877Y0.5237
X2.9877Y0.3424
X2.9877Y0.2088
X3.0154Y0.5906
X3.0154Y0.2756
X3.7319Y0.5906
X3.7319Y0.2756
X3.7596Y0.6574
X3.7596Y0.5237
X3.7596Y0.3424
X3.7596Y0.2088
X3.8264Y0.685
X3.8264Y0.4961
X3.8264Y0.3701
X3.8264Y0.1811
X3.8932Y0.6574
X3.8932Y0.5237
X3.8932Y0.3424
X3.8932Y0.2088
X3.9209Y0.5906
X3.9209Y0.2756
X4.1675Y0.5906
X4.1675Y0.2756
X4.1952Y0.6574
X4.1952Y0.5237
X4.1952Y0.3424
X4.1952Y0.2088
X4.262Y0.685
X4.262Y0.4961
X4.262Y0.3701
X4.262Y0.1811
X4.3288Y0.6574
X4.3288Y0.5237
X4.3288Y0.3424
X4.3288Y0.2088
X4.3565Y0.5906
X4.3565Y0.2756
X5.0731Y0.5906
X5.0731Y0.2756
X5.1007Y0.6574
X5.1007Y0.5237
X5.1007Y0.3424
X5.1007Y0.2088
X5.1675Y0.685
X5.1675Y0.4961
X5.1675Y0.3701
X5.1675Y0.1811
X5.2344Y0.6574
X5.2344Y0.5237
X5.2344Y0.3424
X5.2344Y0.2088
X5.262Y0.5906
X5.262Y0.2756
X5.5086Y0.5906
X5.5086Y0.2756
X5.5363Y0.6574
X5.5363Y0.5237
X5.5363Y0.3424
X5.5363Y0.2088
X5.6031Y0.685
X5.6031Y0.4961
X5.6031Y0.3701
X5.6031Y0.1811
X5.6699Y0.6574
X5.6699Y0.5237
X5.6699Y0.3424
X5.6699Y0.2088
X5.6976Y0.5906
X5.6976Y0.2756
X6.1825Y-0.5426
X6.1825Y-0.6174
X6.3991Y-0.5209
X6.3991Y-0.6391
X6.4141Y0.5906
X6.4141Y0.2756
X6.4418Y0.6574
X6.4418Y0.5237
X6.4418Y0.3424
X6.4418Y0.2088
X6.5086Y0.685
X6.5086Y0.4961
X6.5086Y0.3701
X6.5086Y0.1811
X6.5754Y0.6574
X6.5754Y0.5237
X6.5754Y0.3424
X6.5754Y0.2088
X6.6031Y0.5906
X6.6031Y0.2756
X7.7579Y0.5906
X7.7579Y0.2756
X7.7855Y0.6574
X7.7855Y0.5237
X7.7855Y0.3424
X7.7855Y0.2088
X7.8524Y0.685
X7.8524Y0.4961
X7.8524Y0.3701
X7.8524Y0.1811
X7.9192Y0.6574
X7.9192Y0.5237
X7.9192Y0.3424
X7.9192Y0.2088
X7.9468Y0.5906
X7.9468Y0.2756
X8.6634Y0.5906
X8.6634Y0.2756
X8.6911Y0.6574
X8.6911Y0.5237
X8.6911Y0.3424
X8.6911Y0.2088
X8.7579Y0.685
X8.7579Y0.4961
X8.7579Y0.3701
X8.7579Y0.1811
X8.8247Y0.6574
X8.8247Y0.5237
X8.8247Y0.3424
X8.8247Y0.2088
X8.8524Y0.5906
X8.8524Y0.2756
T6
X2.245Y-1.245
X2.715Y-0.645
X2.74Y-1.245
X4.255Y-0.8196
X4.255Y-0.9004
T7
X7.635Y-0.2145
X7.685Y-0.2645
X7.735Y-0.2145
T8
X3.965Y-1.0889
X3.965Y-1.1676
X4.0389Y-0.52
X4.1176Y-0.52
X4.4606Y-0.2165
X4.4606Y-1.4685
X4.5945Y-0.2165
X4.5945Y-1.4685
X5.49Y-0.6934
X5.49Y-0.7919
T9
X0.1127Y-0.5305
X0.1127Y-0.7077
X0.1127Y-0.9124
X0.1127Y-1.0896
X0.1127Y-1.2943
X0.1127Y-1.4715
T10
X0.9744Y0.6744
X0.9744Y0.5744
X1.0236Y-0.1362
X1.0236Y-0.2362
X1.0744Y0.6744
X1.0744Y0.5744
X1.1236Y-0.1362
X1.1236Y-0.2362
X1.1744Y0.6744
X1.1744Y0.5744
X1.2236Y-0.1362
X1.2236Y-0.2362
X1.2744Y0.6744
X1.2744Y0.5744
X1.3236Y-0.1362
X1.3236Y-0.2362
X3.2236Y0.6744
X3.2236Y0.5744
X3.2283Y-1.3583
X3.3236Y0.6744
X3.3236Y0.5744
X3.3283Y-1.3583
X3.4236Y0.6744
X3.4236Y0.5744
X3.4283Y-1.3583
X3.5039Y-0.1362
X3.5039Y-0.2362
X3.5236Y0.6744
X3.5236Y0.5744
X3.5283Y-1.3583
X3.6039Y-0.1362
X3.6039Y-0.2362
X3.6283Y-1.3583
X3.7039Y-0.1362
X3.7039Y-0.2362
X3.7283Y-1.3583
X3.8039Y-0.1362
X3.8039Y-0.2362
X4.5648Y0.6744
X4.5648Y0.5744
X4.6648Y0.6744
X4.6648Y0.5744
X4.7648Y0.6744
X4.7648Y0.5744
X4.8648Y0.6744
X4.8648Y0.5744
X5.0394Y-0.1362
X5.0394Y-0.2362
X5.1394Y-0.1362
X5.1394Y-0.2362
X5.2394Y-0.1362
X5.2394Y-0.2362
X5.2756Y-1.4961
X5.3394Y-0.1362
X5.3394Y-0.2362
X5.3756Y-1.4961
X5.4756Y-1.4961
X5.5756Y-1.4961
X5.6756Y-1.4961
X5.7756Y-1.4961
X5.9058Y0.6744
X5.9058Y0.5744
X6.0058Y0.6744
X6.0058Y0.5744
X6.1058Y0.6744
X6.1058Y0.5744
X6.2058Y0.6744
X6.2058Y0.5744
X6.5748Y-0.1362
X6.5748Y-0.2362
X6.6748Y-0.1362
X6.6748Y-0.2362
X6.7748Y-0.1362
X6.7748Y-0.2362
X6.8748Y-0.1362
X6.8748Y-0.2362
X8.085Y-0.3654
X8.085Y-0.6646
X8.1551Y0.6744
X8.1551Y0.5744
X8.2551Y0.6744
X8.2551Y0.5744
X8.3551Y0.6744
X8.3551Y0.5744
X8.4551Y0.6744
X8.4551Y0.5744
X9.0551Y-0.1362
X9.0551Y-0.2362
X9.1056Y-0.435
X9.1551Y-0.1362
X9.1551Y-0.2362
X9.2056Y-0.435
X9.2551Y-0.1362
X9.2551Y-0.2362
X9.3056Y-0.435
X9.3551Y-0.1362
X9.3551Y-0.2362
T11
X0.2107Y-0.4809
X0.2107Y-0.7569
X0.2107Y-0.8628
X0.2107Y-1.1388
X0.2107Y-1.2447
X0.2107Y-1.5207
T12
X0.6716Y0.5906
X0.6716Y0.2756
X1.5771Y0.5906
X1.5771Y0.2756
X2.9209Y0.5906
X2.9209Y0.2756
X3.8264Y0.5906
X3.8264Y0.2756
X4.262Y0.5906
X4.262Y0.2756
X5.1675Y0.5906
X5.1675Y0.2756
X5.6031Y0.5906
X5.6031Y0.2756
X6.5086Y0.5906
X6.5086Y0.2756
X7.8524Y0.5906
X7.8524Y0.2756
X8.7579Y0.5906
X8.7579Y0.2756
T5
G00X0.0783Y-0.0465
M15
G01X0.0547Y-0.0465
M16
G05
G00X0.0783Y-0.3866
M15
G01X0.0547Y-0.3866
M16
G05
G00X0.2528Y-0.0465
M15
G01X0.2094Y-0.0465
M16
G05
G00X0.2528Y-0.3866
M15
G01X0.2094Y-0.3866
M16
G05
T0
M30
