%TF.GenerationSoftware,KiCad,Pcbnew,(6.0.1)*%
%TF.CreationDate,2022-01-22T16:00:37+01:00*%
%TF.ProjectId,Final H00 panelicad_pcb,46696e61-6c20-4483-9030-2070616e656c,rev?*%
%TF.SameCoordinates,Original*%
%TF.FileFunction,Profile,NP*%
%FSLAX46Y46*%
G04 Gerber Fmt 4.6, Leading zero omitted, Abs format (unit mm)*
G04 Created by KiCad (PCBNEW (6.0.1)) date 2022-01-22 16:00:37*
%MOMM*%
%LPD*%
G01*
G04 APERTURE LIST*
%TA.AperFunction,Profile*%
%ADD10C,0.100000*%
%TD*%
%TA.AperFunction,Profile*%
%ADD11C,0.050000*%
%TD*%
G04 APERTURE END LIST*
D10*
X50775842Y83631472D02*
X56124370Y88980000D01*
X104255770Y88131472D02*
X104255770Y125262843D01*
X47124370Y79131472D02*
X47124370Y42000101D01*
X193232613Y33000101D02*
X195949770Y33000101D01*
D11*
X183384085Y88980000D02*
X183384070Y90131472D01*
D10*
X225949770Y33000101D02*
X228666927Y33000101D01*
X168818370Y33000101D02*
X171535527Y33000101D01*
X47124370Y79131472D02*
X9993000Y79131472D01*
D11*
X238515455Y42848629D02*
X238513370Y57843472D01*
D10*
X171535527Y33000101D02*
X181384055Y42848629D01*
D11*
X180000000Y-30000000D02*
X219000000Y-30000000D01*
D10*
X47124370Y88131472D02*
X47124370Y125262843D01*
X104755686Y21600101D02*
X117755685Y21600101D01*
X176035527Y83631472D02*
X181384055Y88980000D01*
D11*
X240000000Y-28000000D02*
X223000000Y-28000000D01*
X56124370Y42848629D02*
X56124385Y44131472D01*
D10*
X43558685Y2000101D02*
X43558685Y33000101D01*
D11*
X183384070Y119131472D02*
X183384070Y94131472D01*
X183384070Y123131472D02*
X183384085Y124414315D01*
X124255686Y102197157D02*
X124255685Y104581472D01*
D10*
X104755686Y21600101D02*
X104755686Y2000101D01*
X67972928Y134262843D02*
X58124400Y124414315D01*
X993000Y78282944D02*
X993000Y42848629D01*
X229515455Y42000101D02*
X192384085Y42000101D01*
X134755686Y21600101D02*
X121755686Y21600101D01*
D11*
X240000000Y-30000000D02*
X223000000Y-30000000D01*
D10*
X192384085Y79131472D02*
X192384085Y42000101D01*
X100690085Y2000101D02*
X100690085Y33000101D01*
D11*
X225949770Y2000101D02*
X222000000Y2000000D01*
X70690085Y2000101D02*
X75000000Y2000000D01*
X115253685Y57843472D02*
X115255685Y56065786D01*
D10*
X100690085Y33000101D02*
X103407242Y33000101D01*
X0Y-40000000D02*
X118000000Y-40000000D01*
D11*
X118000000Y-28000000D02*
X118000000Y-31000000D01*
D10*
X229515455Y79131472D02*
X229515455Y42000101D01*
X131601213Y83631472D02*
X126252685Y88980000D01*
D11*
X183384085Y78282944D02*
X183384070Y77131472D01*
D10*
X172384055Y88131472D02*
X135252685Y88131472D01*
X6341528Y83631472D02*
X993000Y78282944D01*
X172384055Y88131472D02*
X172384055Y125262843D01*
X67124400Y79131472D02*
X67124400Y42000101D01*
X229515455Y79131472D02*
X192384085Y79131472D01*
D11*
X176000000Y-28000000D02*
X141000000Y-28000000D01*
X56124370Y78282944D02*
X56124385Y77131472D01*
D10*
X47124370Y125262843D02*
X9993000Y125262843D01*
D11*
X0Y0D02*
X18000000Y0D01*
D10*
X67124400Y88131472D02*
X67124400Y125262843D01*
D11*
X22000000Y0D02*
X36000000Y0D01*
X238515455Y88980000D02*
X238515370Y104581472D01*
X168818370Y2000101D02*
X165000000Y2000000D01*
X181384070Y73131472D02*
X181384070Y48131472D01*
X58124400Y78282944D02*
X58124385Y77131472D01*
X13558685Y2000101D02*
X18000000Y2000000D01*
D10*
X58124400Y42848629D02*
X67972928Y33000101D01*
X131601213Y83631472D02*
X126252685Y78282944D01*
X229515455Y88131472D02*
X192384085Y88131472D01*
D11*
X126252685Y78282944D02*
X126253685Y61843472D01*
D10*
X67972928Y134262843D02*
X103407242Y134262843D01*
D11*
X120000000Y-40000000D02*
X120000000Y-35000000D01*
X115255685Y104581472D02*
X115255685Y102197157D01*
D10*
X107907242Y83631472D02*
X113255770Y78282944D01*
X172384055Y42000101D02*
X135252685Y42000101D01*
D11*
X240000000Y0D02*
X222000000Y0D01*
X100690085Y2000101D02*
X96000000Y2000000D01*
D10*
X104255770Y42000101D02*
X67124400Y42000101D01*
X136101213Y134262843D02*
X171535527Y134262843D01*
X117755685Y102197157D02*
X117755685Y65065787D01*
D11*
X115255685Y108581472D02*
X115255685Y111197157D01*
D10*
X188732613Y83631472D02*
X183384085Y78282944D01*
D11*
X137000000Y-28000000D02*
X118000000Y-28000000D01*
D10*
X195949770Y2000101D02*
X195949770Y33000101D01*
X56124370Y124414315D02*
X46275842Y134262843D01*
D11*
X40000000Y0D02*
X75000000Y0D01*
D10*
X107907242Y83631472D02*
X113255770Y88980000D01*
X193232613Y134262843D02*
X183384085Y124414315D01*
D11*
X124255686Y56065787D02*
X124253685Y57843472D01*
D10*
X10841528Y33000101D02*
X13558685Y33000101D01*
X104255770Y125262843D02*
X67124400Y125262843D01*
X135252685Y88131472D02*
X135252685Y125262843D01*
X121755686Y21600101D02*
X121755686Y56065787D01*
D11*
X104755686Y2000101D02*
X109000000Y2000000D01*
X126252685Y88980000D02*
X126255685Y104581472D01*
X58124400Y42848629D02*
X58124385Y44131472D01*
X113000000Y2000000D02*
X127000000Y2000000D01*
D10*
X117755685Y56065786D02*
X115255685Y56065786D01*
D11*
X58124385Y119131472D02*
X58124385Y94131472D01*
X141000000Y-30000000D02*
X176000000Y-30000000D01*
X181384070Y90131472D02*
X181384055Y88980000D01*
X22000000Y2000000D02*
X36000000Y2000000D01*
X126252685Y124414315D02*
X126255685Y108581472D01*
X138818370Y2000101D02*
X143000000Y2000000D01*
X113255685Y108581472D02*
X113255770Y124414315D01*
X96000000Y0D02*
X109000000Y0D01*
X181384055Y124414315D02*
X181384070Y123131472D01*
D10*
X172384055Y125262843D02*
X135252685Y125262843D01*
X47124370Y42000101D02*
X9993000Y42000101D01*
D11*
X147000000Y2000000D02*
X161000000Y2000000D01*
D10*
X993000Y42848629D02*
X10841528Y33000101D01*
X136101213Y33000101D02*
X138818370Y33000101D01*
X240000000Y-40000000D02*
X240000000Y-30000000D01*
X10841528Y134262843D02*
X46275842Y134262843D01*
X63472928Y83631472D02*
X58124400Y78282944D01*
X113255770Y124414315D02*
X103407242Y134262843D01*
D11*
X120000000Y-30000000D02*
X137000000Y-30000000D01*
D10*
X117755685Y65065787D02*
X115255685Y65065787D01*
D11*
X124255686Y65065787D02*
X124253685Y61843472D01*
X58124385Y123131472D02*
X58124400Y124414315D01*
D10*
X67972928Y33000101D02*
X70690085Y33000101D01*
D11*
X181384055Y42848629D02*
X181384070Y44131472D01*
D10*
X6341528Y83631472D02*
X993000Y88980000D01*
D11*
X113255770Y88980000D02*
X113255685Y104581472D01*
X113253685Y61843472D02*
X113255770Y78282944D01*
X56124385Y90131472D02*
X56124370Y88980000D01*
X113000000Y0D02*
X127000000Y0D01*
X238515370Y108581472D02*
X238515370Y104581472D01*
X205000000Y0D02*
X218000000Y0D01*
X181384070Y94131472D02*
X181384070Y119131472D01*
D10*
X188732613Y83631472D02*
X183384085Y88980000D01*
X233166927Y83631472D02*
X238515455Y88980000D01*
X10841528Y134262843D02*
X993000Y124414315D01*
X225949770Y2000101D02*
X225949770Y33000101D01*
D11*
X120000000Y-30000000D02*
X120000000Y-31000000D01*
D10*
X104255770Y79131472D02*
X104255770Y42000101D01*
D11*
X219000000Y-28000000D02*
X180000000Y-28000000D01*
D10*
X126252685Y42848629D02*
X136101213Y33000101D01*
X240000000Y-28000000D02*
X240000000Y0D01*
D11*
X56124370Y124414315D02*
X56124385Y123131472D01*
X79000000Y0D02*
X92000000Y0D01*
D10*
X124255686Y102197157D02*
X121755686Y102197157D01*
X124255686Y65065787D02*
X121755686Y65065787D01*
D11*
X134755686Y2000101D02*
X131000000Y2000000D01*
D10*
X121755686Y102197157D02*
X121755686Y65065787D01*
D11*
X115255685Y65065787D02*
X115253685Y61843472D01*
D10*
X233166927Y83631472D02*
X238515455Y78282944D01*
X138818370Y2000101D02*
X138818370Y33000101D01*
X63472928Y83631472D02*
X58124400Y88980000D01*
X46275842Y33000101D02*
X56124370Y42848629D01*
X136101213Y134262843D02*
X126252685Y124414315D01*
X172384055Y79131472D02*
X135252685Y79131472D01*
D11*
X126252685Y42848629D02*
X126253685Y57843472D01*
X56124385Y73131472D02*
X56124385Y48131472D01*
X56124385Y94131472D02*
X56124385Y119131472D01*
X58124385Y48131472D02*
X58124385Y73131472D01*
D10*
X172384055Y79131472D02*
X172384055Y42000101D01*
X9993000Y79131472D02*
X9993000Y42000101D01*
X103407242Y33000101D02*
X113255770Y42848629D01*
D11*
X183384085Y42848629D02*
X183384070Y44131472D01*
D10*
X104255770Y88131472D02*
X67124400Y88131472D01*
X229515455Y88131472D02*
X229515455Y125262843D01*
X168818370Y2000101D02*
X168818370Y33000101D01*
D11*
X58124400Y88980000D02*
X58124385Y90131472D01*
D10*
X47124370Y88131472D02*
X9993000Y88131472D01*
D11*
X113255770Y42848629D02*
X113253685Y57843472D01*
D10*
X238515455Y124414315D02*
X228666927Y134262843D01*
X193232613Y134262843D02*
X228666927Y134262843D01*
X229515455Y125262843D02*
X192384085Y125262843D01*
D11*
X181384055Y78282944D02*
X181384070Y77131472D01*
D10*
X0Y-24000000D02*
X0Y-40000000D01*
X70690085Y2000101D02*
X70690085Y33000101D01*
D11*
X118000000Y-35000000D02*
X118000000Y-40000000D01*
D10*
X181384055Y124414315D02*
X171535527Y134262843D01*
D11*
X238513370Y61843472D02*
X238515455Y78282944D01*
D10*
X183384085Y42848629D02*
X193232613Y33000101D01*
X104255770Y79131472D02*
X67124400Y79131472D01*
D11*
X238515370Y108581472D02*
X238515455Y124414315D01*
D10*
X50775842Y83631472D02*
X56124370Y78282944D01*
D11*
X205000000Y2000000D02*
X218000000Y2000000D01*
X124255686Y111197157D02*
X124255685Y108581472D01*
D10*
X192384085Y88131472D02*
X192384085Y125262843D01*
X134755686Y21600101D02*
X134755686Y2000101D01*
X9993000Y88131472D02*
X9993000Y125262843D01*
D11*
X165000000Y0D02*
X201000000Y0D01*
X92000000Y2000000D02*
X79000000Y2000000D01*
D10*
X13558685Y2000101D02*
X13558685Y33000101D01*
X0Y-24000000D02*
X0Y0D01*
D11*
X147000000Y0D02*
X161000000Y0D01*
X238513370Y61843472D02*
X238513370Y57843472D01*
D10*
X117755685Y102197157D02*
X115255685Y102197157D01*
X43558685Y33000101D02*
X46275842Y33000101D01*
D11*
X195949770Y2000101D02*
X201000000Y2000000D01*
D10*
X135252685Y79131472D02*
X135252685Y42000101D01*
D11*
X131000000Y0D02*
X143000000Y0D01*
D10*
X120000000Y-40000000D02*
X240000000Y-40000000D01*
D11*
X43558685Y2000101D02*
X40000000Y2000000D01*
D10*
X228666927Y33000101D02*
X238515455Y42848629D01*
X176035527Y83631472D02*
X181384055Y78282944D01*
X124255686Y56065787D02*
X121755686Y56065787D01*
X993000Y88980000D02*
X993000Y124414315D01*
X124255686Y111197157D02*
X115255685Y111197157D01*
D11*
X183384070Y48131472D02*
X183384070Y73131472D01*
D10*
X117755685Y21600101D02*
X117755685Y56065786D01*
%TO.C,mouse-bite-2mm-slot*%
X113000000Y2000000D02*
G75*
G03*
X113000000Y0I0J-1000000D01*
G01*
X109000000Y0D02*
G75*
G03*
X109000000Y2000000I0J1000000D01*
G01*
X96000000Y2000000D02*
G75*
G03*
X96000000Y0I0J-1000000D01*
G01*
X92000000Y0D02*
G75*
G03*
X92000000Y2000000I0J1000000D01*
G01*
X79000000Y2000000D02*
G75*
G03*
X79000000Y0I0J-1000000D01*
G01*
X75000000Y0D02*
G75*
G03*
X75000000Y2000000I0J1000000D01*
G01*
X22000000Y2000000D02*
G75*
G03*
X22000000Y0I0J-1000000D01*
G01*
X18000000Y0D02*
G75*
G03*
X18000000Y2000000I0J1000000D01*
G01*
X147000000Y2000000D02*
G75*
G03*
X147000000Y0I0J-1000000D01*
G01*
X143000000Y0D02*
G75*
G03*
X143000000Y2000000I0J1000000D01*
G01*
X165000000Y2000000D02*
G75*
G03*
X165000000Y0I0J-1000000D01*
G01*
X161000000Y0D02*
G75*
G03*
X161000000Y2000000I0J1000000D01*
G01*
X56124385Y48131472D02*
G75*
G03*
X58124385Y48131472I1000000J0D01*
G01*
X58124385Y44131472D02*
G75*
G03*
X56124385Y44131472I-1000000J0D01*
G01*
X58124385Y73131472D02*
G75*
G03*
X56124385Y73131472I-1000000J0D01*
G01*
X56124385Y77131472D02*
G75*
G03*
X58124385Y77131472I1000000J0D01*
G01*
X126253685Y57843472D02*
G75*
G03*
X124253685Y57843472I-1000000J0D01*
G01*
X124253685Y61843472D02*
G75*
G03*
X126253685Y61843472I1000000J0D01*
G01*
X223000000Y-28000000D02*
G75*
G03*
X223000000Y-30000000I0J-1000000D01*
G01*
X219000000Y-30000000D02*
G75*
G03*
X219000000Y-28000000I0J1000000D01*
G01*
X40000000Y2000000D02*
G75*
G03*
X40000000Y0I0J-1000000D01*
G01*
X36000000Y0D02*
G75*
G03*
X36000000Y2000000I0J1000000D01*
G01*
X181384070Y48131472D02*
G75*
G03*
X183384070Y48131472I1000000J0D01*
G01*
X183384070Y44131472D02*
G75*
G03*
X181384070Y44131472I-1000000J0D01*
G01*
X141000000Y-28000000D02*
G75*
G03*
X141000000Y-30000000I0J-1000000D01*
G01*
X137000000Y-30000000D02*
G75*
G03*
X137000000Y-28000000I0J1000000D01*
G01*
X131000000Y2000000D02*
G75*
G03*
X131000000Y0I0J-1000000D01*
G01*
X127000000Y0D02*
G75*
G03*
X127000000Y2000000I0J1000000D01*
G01*
X180000000Y-28000000D02*
G75*
G03*
X180000000Y-30000000I0J-1000000D01*
G01*
X176000000Y-30000000D02*
G75*
G03*
X176000000Y-28000000I0J1000000D01*
G01*
X183384070Y90131472D02*
G75*
G03*
X181384070Y90131472I-1000000J0D01*
G01*
X181384070Y94131472D02*
G75*
G03*
X183384070Y94131472I1000000J0D01*
G01*
X181384070Y123131472D02*
G75*
G03*
X183384070Y123131472I1000000J0D01*
G01*
X183384070Y119131472D02*
G75*
G03*
X181384070Y119131472I-1000000J0D01*
G01*
X118000000Y-31000000D02*
G75*
G03*
X120000000Y-31000000I1000000J0D01*
G01*
X120000000Y-35000000D02*
G75*
G03*
X118000000Y-35000000I-1000000J0D01*
G01*
X58124385Y119131472D02*
G75*
G03*
X56124385Y119131472I-1000000J0D01*
G01*
X56124385Y123131472D02*
G75*
G03*
X58124385Y123131472I1000000J0D01*
G01*
X113253685Y61843472D02*
G75*
G03*
X115253685Y61843472I1000000J0D01*
G01*
X115253685Y57843472D02*
G75*
G03*
X113253685Y57843472I-1000000J0D01*
G01*
X181384070Y77131472D02*
G75*
G03*
X183384070Y77131472I1000000J0D01*
G01*
X183384070Y73131472D02*
G75*
G03*
X181384070Y73131472I-1000000J0D01*
G01*
X113255685Y108581472D02*
G75*
G03*
X115255685Y108581472I1000000J0D01*
G01*
X115255685Y104581472D02*
G75*
G03*
X113255685Y104581472I-1000000J0D01*
G01*
X58124385Y90131472D02*
G75*
G03*
X56124385Y90131472I-1000000J0D01*
G01*
X56124385Y94131472D02*
G75*
G03*
X58124385Y94131472I1000000J0D01*
G01*
X126255685Y104581472D02*
G75*
G03*
X124255685Y104581472I-1000000J0D01*
G01*
X124255685Y108581472D02*
G75*
G03*
X126255685Y108581472I1000000J0D01*
G01*
X222000000Y2000000D02*
G75*
G03*
X222000000Y0I0J-1000000D01*
G01*
X218000000Y0D02*
G75*
G03*
X218000000Y2000000I0J1000000D01*
G01*
X205000000Y2000000D02*
G75*
G03*
X205000000Y0I0J-1000000D01*
G01*
X201000000Y0D02*
G75*
G03*
X201000000Y2000000I0J1000000D01*
G01*
%TD*%
M02*
