M48
; DRILL file {KiCad (6.0.1)} date Sat Jan 22 15:59:56 2022
; FORMAT={-:-/ absolute / inch / decimal}
; #@! TF.CreationDate,2022-01-22T15:59:56+01:00
; #@! TF.GenerationSoftware,Kicad,Pcbnew,(6.0.1)
; #@! TF.FileFunction,NonPlated,1,2,NPTH
FMAT,2
INCH
; #@! TA.AperFunction,NonPlated,NPTH,ComponentDrill
T1C0.0197
; #@! TA.AperFunction,NonPlated,NPTH,ComponentDrill
T2C0.0256
; #@! TA.AperFunction,NonPlated,NPTH,ComponentDrill
T3C0.1260
%
G90
G05
T1
X0.7579Y0.0689
X0.7579Y0.0098
X0.7874Y0.0689
X0.7874Y0.0098
X0.8169Y0.0689
X0.8169Y0.0098
X1.4665Y0.0689
X1.4665Y0.0098
X1.4961Y0.0689
X1.4961Y0.0098
X1.5256Y0.0689
X1.5256Y0.0098
X2.2195Y4.7985
X2.2195Y4.769
X2.2195Y4.7394
X2.2195Y3.6568
X2.2195Y3.6272
X2.2195Y3.5977
X2.2195Y2.9875
X2.2195Y2.9579
X2.2195Y2.9284
X2.2195Y1.8457
X2.2195Y1.8162
X2.2195Y1.7867
X2.2785Y4.7985
X2.2785Y4.769
X2.2785Y4.7394
X2.2785Y3.6568
X2.2785Y3.6272
X2.2785Y3.5977
X2.2785Y2.9875
X2.2785Y2.9579
X2.2785Y2.9284
X2.2785Y1.8457
X2.2785Y1.8162
X2.2785Y1.7867
X3.002Y0.0689
X3.002Y0.0098
X3.0315Y0.0689
X3.0315Y0.0098
X3.061Y0.0689
X3.061Y0.0098
X3.6713Y0.0689
X3.6713Y0.0098
X3.7008Y0.0689
X3.7008Y0.0098
X3.7303Y0.0689
X3.7303Y0.0098
X4.3406Y0.0689
X4.3406Y0.0098
X4.3701Y0.0689
X4.3701Y0.0098
X4.3996Y0.0689
X4.3996Y0.0098
X4.4686Y2.3856
X4.4686Y2.356
X4.4686Y2.3265
X4.4687Y4.2256
X4.4687Y4.1961
X4.4687Y4.1666
X4.5277Y2.3856
X4.5277Y2.356
X4.5277Y2.3265
X4.5278Y4.2256
X4.5278Y4.1961
X4.5278Y4.1666
X4.6555Y-1.2697
X4.6555Y-1.2992
X4.6555Y-1.3287
X4.7146Y-1.2697
X4.7146Y-1.2992
X4.7146Y-1.3287
X4.9017Y2.3856
X4.9017Y2.356
X4.9017Y2.3265
X4.9018Y4.2256
X4.9018Y4.1961
X4.9018Y4.1666
X4.9608Y2.3856
X4.9608Y2.356
X4.9608Y2.3265
X4.9609Y4.2256
X4.9609Y4.1961
X4.9609Y4.1666
X5.0492Y0.0689
X5.0492Y0.0098
X5.0787Y0.0689
X5.0787Y0.0098
X5.1083Y0.0689
X5.1083Y0.0098
X5.4429Y-1.1122
X5.4429Y-1.1713
X5.4724Y-1.1122
X5.4724Y-1.1713
X5.502Y-1.1122
X5.502Y-1.1713
X5.6791Y0.0689
X5.6791Y0.0098
X5.7087Y0.0689
X5.7087Y0.0098
X5.7382Y0.0689
X5.7382Y0.0098
X6.3878Y0.0689
X6.3878Y0.0098
X6.4173Y0.0689
X6.4173Y0.0098
X6.4469Y0.0689
X6.4469Y0.0098
X6.9783Y-1.1122
X6.9783Y-1.1713
X7.0079Y-1.1122
X7.0079Y-1.1713
X7.0374Y-1.1122
X7.0374Y-1.1713
X7.1509Y4.7985
X7.1509Y4.769
X7.1509Y4.7394
X7.1509Y3.6568
X7.1509Y3.6272
X7.1509Y3.5977
X7.1509Y2.9875
X7.1509Y2.9579
X7.1509Y2.9284
X7.1509Y1.8457
X7.1509Y1.8162
X7.1509Y1.7867
X7.21Y4.7985
X7.21Y4.769
X7.21Y4.7394
X7.21Y3.6568
X7.21Y3.6272
X7.21Y3.5977
X7.21Y2.9875
X7.21Y2.9579
X7.21Y2.9284
X7.21Y1.8457
X7.21Y1.8162
X7.21Y1.7867
X7.9626Y0.0689
X7.9626Y0.0098
X7.9921Y0.0689
X7.9921Y0.0098
X8.0217Y0.0689
X8.0217Y0.0098
X8.6319Y0.0689
X8.6319Y0.0098
X8.6614Y0.0689
X8.6614Y0.0098
X8.6713Y-1.1122
X8.6713Y-1.1713
X8.6909Y0.0689
X8.6909Y0.0098
X8.7008Y-1.1122
X8.7008Y-1.1713
X8.7303Y-1.1122
X8.7303Y-1.1713
T2
X0.2102Y-0.1028
X0.2102Y-0.3303
T3
X0.6299Y-1.4173
X1.6929Y-1.4173
X2.0669Y-0.2165
X5.1181Y-0.9449
X8.4646Y-0.2362
X9.252Y-0.9449
T0
M30
