%TF.GenerationSoftware,KiCad,Pcbnew,(6.0.1)*%
%TF.CreationDate,2022-01-22T16:00:37+01:00*%
%TF.ProjectId,Final H00 panelicad_pcb,46696e61-6c20-4483-9030-2070616e656c,rev?*%
%TF.SameCoordinates,Original*%
%TF.FileFunction,Soldermask,Top*%
%TF.FilePolarity,Negative*%
%FSLAX46Y46*%
G04 Gerber Fmt 4.6, Leading zero omitted, Abs format (unit mm)*
G04 Created by KiCad (PCBNEW (6.0.1)) date 2022-01-22 16:00:37*
%MOMM*%
%LPD*%
G01*
G04 APERTURE LIST*
G04 Aperture macros list*
%AMRoundRect*
0 Rectangle with rounded corners*
0 $1 Rounding radius*
0 $2 $3 $4 $5 $6 $7 $8 $9 X,Y pos of 4 corners*
0 Add a 4 corners polygon primitive as box body*
4,1,4,$2,$3,$4,$5,$6,$7,$8,$9,$2,$3,0*
0 Add four circle primitives for the rounded corners*
1,1,$1+$1,$2,$3*
1,1,$1+$1,$4,$5*
1,1,$1+$1,$6,$7*
1,1,$1+$1,$8,$9*
0 Add four rect primitives between the rounded corners*
20,1,$1+$1,$2,$3,$4,$5,0*
20,1,$1+$1,$4,$5,$6,$7,0*
20,1,$1+$1,$6,$7,$8,$9,0*
20,1,$1+$1,$8,$9,$2,$3,0*%
G04 Aperture macros list end*
%ADD10RoundRect,0.140000X-0.140000X-0.170000X0.140000X-0.170000X0.140000X0.170000X-0.140000X0.170000X0*%
%ADD11RoundRect,0.140000X-0.170000X0.140000X-0.170000X-0.140000X0.170000X-0.140000X0.170000X0.140000X0*%
%ADD12R,1.500000X1.000000*%
%ADD13C,0.500000*%
%ADD14RoundRect,0.140000X0.140000X0.170000X-0.140000X0.170000X-0.140000X-0.170000X0.140000X-0.170000X0*%
%ADD15RoundRect,0.140000X0.170000X-0.140000X0.170000X0.140000X-0.170000X0.140000X-0.170000X-0.140000X0*%
%ADD16RoundRect,0.225000X0.225000X0.250000X-0.225000X0.250000X-0.225000X-0.250000X0.225000X-0.250000X0*%
%ADD17C,0.800000*%
%ADD18C,6.400000*%
%ADD19RoundRect,0.150000X-0.587500X-0.150000X0.587500X-0.150000X0.587500X0.150000X-0.587500X0.150000X0*%
%ADD20R,1.500000X2.000000*%
%ADD21R,3.800000X2.000000*%
%ADD22R,1.700000X1.700000*%
%ADD23O,1.700000X1.700000*%
%ADD24R,1.000000X1.500000*%
%ADD25RoundRect,0.200000X-0.275000X0.200000X-0.275000X-0.200000X0.275000X-0.200000X0.275000X0.200000X0*%
%ADD26R,1.600000X1.600000*%
%ADD27C,1.600000*%
%ADD28C,1.500000*%
%ADD29RoundRect,0.200000X-0.200000X-0.275000X0.200000X-0.275000X0.200000X0.275000X-0.200000X0.275000X0*%
%ADD30C,2.100000*%
%ADD31C,1.750000*%
%ADD32C,3.200000*%
%ADD33C,0.650000*%
%ADD34R,1.450000X0.600000*%
%ADD35R,1.450000X0.300000*%
%ADD36O,2.100000X1.000000*%
%ADD37O,1.600000X1.000000*%
%ADD38RoundRect,0.225000X0.250000X-0.225000X0.250000X0.225000X-0.250000X0.225000X-0.250000X-0.225000X0*%
%ADD39R,2.000000X2.000000*%
%ADD40C,2.000000*%
%ADD41RoundRect,0.200000X0.200000X0.275000X-0.200000X0.275000X-0.200000X-0.275000X0.200000X-0.275000X0*%
%ADD42RoundRect,0.150000X-0.825000X-0.150000X0.825000X-0.150000X0.825000X0.150000X-0.825000X0.150000X0*%
%ADD43R,1.200000X0.900000*%
%ADD44C,1.000000*%
%ADD45R,1.000000X1.000000*%
%ADD46R,6.000000X2.500000*%
%ADD47R,1.100000X1.800000*%
%ADD48RoundRect,0.275000X0.275000X0.625000X-0.275000X0.625000X-0.275000X-0.625000X0.275000X-0.625000X0*%
%ADD49RoundRect,0.250000X0.250000X0.475000X-0.250000X0.475000X-0.250000X-0.475000X0.250000X-0.475000X0*%
%ADD50RoundRect,0.150000X0.150000X-0.587500X0.150000X0.587500X-0.150000X0.587500X-0.150000X-0.587500X0*%
%ADD51RoundRect,0.200000X-0.335876X-0.053033X-0.053033X-0.335876X0.335876X0.053033X0.053033X0.335876X0*%
%ADD52RoundRect,0.200000X0.275000X-0.200000X0.275000X0.200000X-0.275000X0.200000X-0.275000X-0.200000X0*%
%ADD53RoundRect,0.225000X0.335876X0.017678X0.017678X0.335876X-0.335876X-0.017678X-0.017678X-0.335876X0*%
%ADD54RoundRect,0.225000X-0.250000X0.225000X-0.250000X-0.225000X0.250000X-0.225000X0.250000X0.225000X0*%
%ADD55RoundRect,0.150000X0.825000X0.150000X-0.825000X0.150000X-0.825000X-0.150000X0.825000X-0.150000X0*%
%ADD56RoundRect,0.250000X0.475000X-0.250000X0.475000X0.250000X-0.475000X0.250000X-0.475000X-0.250000X0*%
%ADD57RoundRect,0.150000X0.587500X0.150000X-0.587500X0.150000X-0.587500X-0.150000X0.587500X-0.150000X0*%
%ADD58R,2.000000X0.900000*%
%ADD59R,0.900000X2.000000*%
%ADD60R,5.000000X5.000000*%
%ADD61RoundRect,0.250000X-0.250000X-0.475000X0.250000X-0.475000X0.250000X0.475000X-0.250000X0.475000X0*%
G04 APERTURE END LIST*
D10*
%TO.C,C4*%
X232535455Y114697158D03*
X233495455Y114697158D03*
%TD*%
D11*
%TO.C,C10*%
X218949770Y38980101D03*
X218949770Y38020101D03*
%TD*%
D12*
%TO.C,D1*%
X122205686Y58965786D03*
X122205686Y62165786D03*
X117305686Y62165786D03*
X117305686Y58965786D03*
%TD*%
%TO.C,D1*%
X75140085Y128162843D03*
X75140085Y131362843D03*
X70240085Y131362843D03*
X70240085Y128162843D03*
%TD*%
D10*
%TO.C,C7*%
X50144370Y68565787D03*
X51104370Y68565787D03*
%TD*%
D13*
%TO.C,mouse-bite-2mm-slot*%
X111750000Y1750000D03*
X111750000Y250000D03*
X111000000Y1750000D03*
X110250000Y250000D03*
X110250000Y1750000D03*
X111000000Y250000D03*
%TD*%
D14*
%TO.C,C15*%
X64104400Y78565786D03*
X63144400Y78565786D03*
%TD*%
D15*
%TO.C,C2*%
X215949770Y128282843D03*
X215949770Y129242843D03*
%TD*%
D16*
%TO.C,C22*%
X150538370Y20431472D03*
X148988370Y20431472D03*
%TD*%
D12*
%TO.C,D21*%
X101140085Y82031472D03*
X101140085Y85231472D03*
X96240085Y85231472D03*
X96240085Y82031472D03*
%TD*%
D17*
%TO.C,H2*%
X132952742Y5303045D03*
D18*
X131255686Y7000101D03*
D17*
X131255686Y4600101D03*
X132952742Y8697157D03*
X129558630Y8697157D03*
X129558630Y5303045D03*
X133655686Y7000101D03*
X131255686Y9400101D03*
X128855686Y7000101D03*
%TD*%
D16*
%TO.C,C22*%
X116475686Y20431472D03*
X114925686Y20431472D03*
%TD*%
D19*
%TO.C,Q3*%
X42750500Y-15179000D03*
X42750500Y-17079000D03*
X44625500Y-16129000D03*
%TD*%
D13*
%TO.C,mouse-bite-2mm-slot*%
X94750000Y1750000D03*
X94750000Y250000D03*
X94000000Y1750000D03*
X93250000Y250000D03*
X93250000Y1750000D03*
X94000000Y250000D03*
%TD*%
D10*
%TO.C,C9*%
X107275770Y42565787D03*
X108235770Y42565787D03*
%TD*%
D13*
%TO.C,mouse-bite-2mm-slot*%
X77750000Y1750000D03*
X77750000Y250000D03*
X77000000Y1750000D03*
X76250000Y250000D03*
X76250000Y1750000D03*
X77000000Y250000D03*
%TD*%
D20*
%TO.C,U4*%
X109361000Y-28092000D03*
D21*
X107061000Y-34392000D03*
D20*
X107061000Y-28092000D03*
X104761000Y-28092000D03*
%TD*%
D12*
%TO.C,D20*%
X213399770Y82031472D03*
X213399770Y85231472D03*
X208499770Y85231472D03*
X208499770Y82031472D03*
%TD*%
%TO.C,D19*%
X18008685Y82031472D03*
X18008685Y85231472D03*
X13108685Y85231472D03*
X13108685Y82031472D03*
%TD*%
D15*
%TO.C,C3*%
X103690085Y128282843D03*
X103690085Y129242843D03*
%TD*%
D12*
%TO.C,D2*%
X156268370Y128162843D03*
X156268370Y131362843D03*
X151368370Y131362843D03*
X151368370Y128162843D03*
%TD*%
D22*
%TO.C,J3*%
X128000000Y-6000000D03*
D23*
X128000000Y-3460000D03*
X130540000Y-6000000D03*
X130540000Y-3460000D03*
X133080000Y-6000000D03*
X133080000Y-3460000D03*
X135620000Y-6000000D03*
X135620000Y-3460000D03*
%TD*%
D14*
%TO.C,C15*%
X6973000Y78565786D03*
X6013000Y78565786D03*
%TD*%
%TO.C,C17*%
X189364085Y111697158D03*
X188404085Y111697158D03*
%TD*%
D10*
%TO.C,C9*%
X50144370Y42565787D03*
X51104370Y42565787D03*
%TD*%
D22*
%TO.C,J1*%
X26000000Y-6000000D03*
D23*
X26000000Y-3460000D03*
X28540000Y-6000000D03*
X28540000Y-3460000D03*
X31080000Y-6000000D03*
X31080000Y-3460000D03*
X33620000Y-6000000D03*
X33620000Y-3460000D03*
%TD*%
D12*
%TO.C,D1*%
X200399770Y128162843D03*
X200399770Y131362843D03*
X195499770Y131362843D03*
X195499770Y128162843D03*
%TD*%
D13*
%TO.C,mouse-bite-2mm-slot*%
X20000000Y250000D03*
X19250000Y250000D03*
X19250000Y1750000D03*
X20750000Y1750000D03*
X20000000Y1750000D03*
X20750000Y250000D03*
%TD*%
D24*
%TO.C,D5*%
X232415455Y104247158D03*
X235615455Y104247158D03*
X235615455Y109147158D03*
X232415455Y109147158D03*
%TD*%
D14*
%TO.C,C16*%
X64104400Y98697158D03*
X63144400Y98697158D03*
%TD*%
D12*
%TO.C,D12*%
X138368370Y39100101D03*
X138368370Y35900101D03*
X143268370Y35900101D03*
X143268370Y39100101D03*
%TD*%
D10*
%TO.C,C2*%
X121875686Y103231472D03*
X122835686Y103231472D03*
%TD*%
D11*
%TO.C,C11*%
X80690085Y38980101D03*
X80690085Y38020101D03*
%TD*%
D14*
%TO.C,C15*%
X189364085Y78565786D03*
X188404085Y78565786D03*
%TD*%
%TO.C,C14*%
X189364085Y65565786D03*
X188404085Y65565786D03*
%TD*%
D17*
%TO.C,H1*%
X197752714Y8697157D03*
X199449770Y4600101D03*
X201849770Y7000101D03*
X201146826Y5303045D03*
X199449770Y9400101D03*
X197049770Y7000101D03*
X197752714Y5303045D03*
X201146826Y8697157D03*
D18*
X199449770Y7000101D03*
%TD*%
D25*
%TO.C,R6*%
X13843000Y-6795000D03*
X13843000Y-8445000D03*
%TD*%
D14*
%TO.C,C13*%
X64104400Y52565786D03*
X63144400Y52565786D03*
%TD*%
D12*
%TO.C,D12*%
X70240085Y39100101D03*
X70240085Y35900101D03*
X75140085Y35900101D03*
X75140085Y39100101D03*
%TD*%
D11*
%TO.C,C12*%
X10558685Y38980101D03*
X10558685Y38020101D03*
%TD*%
D12*
%TO.C,D10*%
X221499770Y39100101D03*
X221499770Y35900101D03*
X226399770Y35900101D03*
X226399770Y39100101D03*
%TD*%
D24*
%TO.C,D16*%
X7093000Y96147158D03*
X3893000Y96147158D03*
X3893000Y91247158D03*
X7093000Y91247158D03*
%TD*%
D26*
%TO.C,C19*%
X100711000Y-29657113D03*
D27*
X100711000Y-27657113D03*
%TD*%
D11*
%TO.C,C10*%
X93690085Y38980101D03*
X93690085Y38020101D03*
%TD*%
D13*
%TO.C,mouse-bite-2mm-slot*%
X145750000Y1750000D03*
X145750000Y250000D03*
X145000000Y1750000D03*
X144250000Y250000D03*
X144250000Y1750000D03*
X145000000Y250000D03*
%TD*%
D28*
%TO.C,R14*%
X113300000Y-37300000D03*
X116700000Y-37300000D03*
%TD*%
D15*
%TO.C,C21*%
X46558685Y82151472D03*
X46558685Y83111472D03*
%TD*%
D22*
%TO.C,J2*%
X89000000Y-6000000D03*
D23*
X89000000Y-3460000D03*
X91540000Y-6000000D03*
X91540000Y-3460000D03*
X94080000Y-6000000D03*
X94080000Y-3460000D03*
X96620000Y-6000000D03*
X96620000Y-3460000D03*
%TD*%
D22*
%TO.C,J1*%
X81880085Y17130101D03*
D23*
X81880085Y14590101D03*
X84420085Y17130101D03*
X84420085Y14590101D03*
X86960085Y17130101D03*
X86960085Y14590101D03*
X89500085Y17130101D03*
X89500085Y14590101D03*
%TD*%
D13*
%TO.C,mouse-bite-2mm-slot*%
X163750000Y1750000D03*
X163750000Y250000D03*
X163000000Y1750000D03*
X162250000Y250000D03*
X162250000Y1750000D03*
X163000000Y250000D03*
%TD*%
D14*
%TO.C,C17*%
X132232685Y111697158D03*
X131272685Y111697158D03*
%TD*%
D15*
%TO.C,C19*%
X77690085Y82151472D03*
X77690085Y83111472D03*
%TD*%
D17*
%TO.C,H4*%
X75887141Y13303045D03*
X76590085Y15000101D03*
X74190085Y12600101D03*
X74190085Y17400101D03*
X75887141Y16697157D03*
X71790085Y15000101D03*
X72493029Y13303045D03*
D18*
X74190085Y15000101D03*
D17*
X72493029Y16697157D03*
%TD*%
D12*
%TO.C,D2*%
X31008685Y128162843D03*
X31008685Y131362843D03*
X26108685Y131362843D03*
X26108685Y128162843D03*
%TD*%
D24*
%TO.C,D18*%
X189484085Y122147158D03*
X186284085Y122147158D03*
X186284085Y117247158D03*
X189484085Y117247158D03*
%TD*%
D14*
%TO.C,C16*%
X132232685Y98697158D03*
X131272685Y98697158D03*
%TD*%
D29*
%TO.C,R1*%
X84535085Y20441472D03*
X86185085Y20441472D03*
%TD*%
D17*
%TO.C,H2*%
X40058685Y4600101D03*
X40058685Y9400101D03*
X37658685Y7000101D03*
D18*
X40058685Y7000101D03*
D17*
X42458685Y7000101D03*
X38361629Y8697157D03*
X41755741Y8697157D03*
X38361629Y5303045D03*
X41755741Y5303045D03*
%TD*%
%TO.C,H2*%
X94790085Y7000101D03*
X97190085Y9400101D03*
X99590085Y7000101D03*
X98887141Y5303045D03*
X98887141Y8697157D03*
X95493029Y8697157D03*
X97190085Y4600101D03*
X95493029Y5303045D03*
D18*
X97190085Y7000101D03*
%TD*%
D17*
%TO.C,H4*%
X17058685Y17400101D03*
X18755741Y16697157D03*
X19458685Y15000101D03*
X18755741Y13303045D03*
D18*
X17058685Y15000101D03*
D17*
X17058685Y12600101D03*
X15361629Y16697157D03*
X14658685Y15000101D03*
X15361629Y13303045D03*
%TD*%
D30*
%TO.C,SW3*%
X5352500Y-31615000D03*
X5352500Y-38625000D03*
D31*
X2862500Y-37375000D03*
X2862500Y-32875000D03*
%TD*%
D13*
%TO.C,mouse-bite-2mm-slot*%
X56374385Y46131472D03*
X56374385Y45381472D03*
X57874385Y46881472D03*
X57874385Y46131472D03*
X57874385Y45381472D03*
X56374385Y46881472D03*
%TD*%
D17*
%TO.C,H1*%
X144718370Y7000101D03*
X144015426Y8697157D03*
X142318370Y4600101D03*
D18*
X142318370Y7000101D03*
D17*
X140621314Y5303045D03*
X144015426Y5303045D03*
X139918370Y7000101D03*
X142318370Y9400101D03*
X140621314Y8697157D03*
%TD*%
D13*
%TO.C,mouse-bite-2mm-slot*%
X57874385Y75881472D03*
X57874385Y75131472D03*
X57874385Y74381472D03*
X56374385Y74381472D03*
X56374385Y75881472D03*
X56374385Y75131472D03*
%TD*%
D16*
%TO.C,C22*%
X207669770Y20431472D03*
X206119770Y20431472D03*
%TD*%
D29*
%TO.C,R1*%
X27403685Y20441472D03*
X29053685Y20441472D03*
%TD*%
D17*
%TO.C,H2*%
X163621314Y8697157D03*
X165318370Y9400101D03*
X163621314Y5303045D03*
D18*
X165318370Y7000101D03*
D17*
X162918370Y7000101D03*
X165318370Y4600101D03*
X167718370Y7000101D03*
X167015426Y8697157D03*
X167015426Y5303045D03*
%TD*%
D24*
%TO.C,D18*%
X64224400Y122147158D03*
X61024400Y122147158D03*
X61024400Y117247158D03*
X64224400Y117247158D03*
%TD*%
D12*
%TO.C,D3*%
X169268370Y128162843D03*
X169268370Y131362843D03*
X164368370Y131362843D03*
X164368370Y128162843D03*
%TD*%
%TO.C,D10*%
X39108685Y39100101D03*
X39108685Y35900101D03*
X44008685Y35900101D03*
X44008685Y39100101D03*
%TD*%
%TO.C,D12*%
X13108685Y39100101D03*
X13108685Y35900101D03*
X18008685Y35900101D03*
X18008685Y39100101D03*
%TD*%
D24*
%TO.C,D5*%
X175284055Y104247158D03*
X178484055Y104247158D03*
X178484055Y109147158D03*
X175284055Y109147158D03*
%TD*%
D14*
%TO.C,C17*%
X64104400Y111697158D03*
X63144400Y111697158D03*
%TD*%
D24*
%TO.C,D6*%
X107155770Y91247158D03*
X110355770Y91247158D03*
X110355770Y96147158D03*
X107155770Y96147158D03*
%TD*%
D25*
%TO.C,R1*%
X193675000Y-13907000D03*
X193675000Y-15557000D03*
%TD*%
D11*
%TO.C,C12*%
X67690085Y38980101D03*
X67690085Y38020101D03*
%TD*%
D25*
%TO.C,R13*%
X116840000Y-8700000D03*
X116840000Y-10350000D03*
%TD*%
D32*
%TO.C,H4*%
X16000000Y-36000000D03*
%TD*%
D12*
%TO.C,D20*%
X31008685Y82031472D03*
X31008685Y85231472D03*
X26108685Y85231472D03*
X26108685Y82031472D03*
%TD*%
D22*
%TO.C,J1*%
X207139770Y17130101D03*
D23*
X207139770Y14590101D03*
X209679770Y17130101D03*
X209679770Y14590101D03*
X212219770Y17130101D03*
X212219770Y14590101D03*
X214759770Y17130101D03*
X214759770Y14590101D03*
%TD*%
D33*
%TO.C,J7*%
X5340000Y-2610000D03*
X5340000Y-8390000D03*
D34*
X6785000Y-2250000D03*
X6785000Y-3050000D03*
D35*
X6785000Y-4250000D03*
X6785000Y-5250000D03*
X6785000Y-5750000D03*
X6785000Y-6750000D03*
D34*
X6785000Y-7950000D03*
X6785000Y-8750000D03*
X6785000Y-8750000D03*
X6785000Y-7950000D03*
D35*
X6785000Y-7250000D03*
X6785000Y-6250000D03*
X6785000Y-4750000D03*
X6785000Y-3750000D03*
D34*
X6785000Y-3050000D03*
X6785000Y-2250000D03*
D36*
X5870000Y-9820000D03*
D37*
X1690000Y-9820000D03*
X1690000Y-1180000D03*
D36*
X5870000Y-1180000D03*
%TD*%
D29*
%TO.C,R3*%
X189929000Y-7620000D03*
X191579000Y-7620000D03*
%TD*%
D24*
%TO.C,D17*%
X189484085Y109147158D03*
X186284085Y109147158D03*
X186284085Y104247158D03*
X189484085Y104247158D03*
%TD*%
%TO.C,D16*%
X64224400Y96147158D03*
X61024400Y96147158D03*
X61024400Y91247158D03*
X64224400Y91247158D03*
%TD*%
D13*
%TO.C,mouse-bite-2mm-slot*%
X126003685Y60593472D03*
X124503685Y59093472D03*
X124503685Y60593472D03*
X126003685Y59093472D03*
X124503685Y59843472D03*
X126003685Y59843472D03*
%TD*%
D17*
%TO.C,H4*%
X106558630Y16697157D03*
X108255686Y17400101D03*
X109952742Y16697157D03*
X106558630Y13303045D03*
X105855686Y15000101D03*
X109952742Y13303045D03*
X110655686Y15000101D03*
X108255686Y12600101D03*
D18*
X108255686Y15000101D03*
%TD*%
D24*
%TO.C,D9*%
X50024370Y45115787D03*
X53224370Y45115787D03*
X53224370Y50015787D03*
X50024370Y50015787D03*
%TD*%
D14*
%TO.C,C16*%
X6973000Y98697158D03*
X6013000Y98697158D03*
%TD*%
D15*
%TO.C,C19*%
X202949770Y82151472D03*
X202949770Y83111472D03*
%TD*%
D32*
%TO.C,H5*%
X130000000Y-24000000D03*
%TD*%
D24*
%TO.C,D17*%
X64224400Y109147158D03*
X61024400Y109147158D03*
X61024400Y104247158D03*
X64224400Y104247158D03*
%TD*%
D14*
%TO.C,C18*%
X6973000Y124697158D03*
X6013000Y124697158D03*
%TD*%
D29*
%TO.C,R4*%
X13526000Y-2921000D03*
X15176000Y-2921000D03*
%TD*%
D38*
%TO.C,C4*%
X8509000Y-15126000D03*
X8509000Y-13576000D03*
%TD*%
D11*
%TO.C,C10*%
X161818370Y38980101D03*
X161818370Y38020101D03*
%TD*%
D12*
%TO.C,D1*%
X18008685Y128162843D03*
X18008685Y131362843D03*
X13108685Y131362843D03*
X13108685Y128162843D03*
%TD*%
D11*
%TO.C,C12*%
X192949770Y38980101D03*
X192949770Y38020101D03*
%TD*%
D15*
%TO.C,C2*%
X33558685Y128282843D03*
X33558685Y129242843D03*
%TD*%
%TO.C,C20*%
X33558685Y82151472D03*
X33558685Y83111472D03*
%TD*%
D10*
%TO.C,C1*%
X121675686Y57131472D03*
X122635686Y57131472D03*
%TD*%
D12*
%TO.C,D20*%
X88140085Y82031472D03*
X88140085Y85231472D03*
X83240085Y85231472D03*
X83240085Y82031472D03*
%TD*%
D24*
%TO.C,D13*%
X189484085Y50015786D03*
X186284085Y50015786D03*
X186284085Y45115786D03*
X189484085Y45115786D03*
%TD*%
D12*
%TO.C,D3*%
X226399770Y128162843D03*
X226399770Y131362843D03*
X221499770Y131362843D03*
X221499770Y128162843D03*
%TD*%
D38*
%TO.C,C5*%
X8509000Y-24778000D03*
X8509000Y-23228000D03*
%TD*%
D18*
%TO.C,H3*%
X131255686Y15000101D03*
D17*
X131255686Y12600101D03*
X128855686Y15000101D03*
X131255686Y17400101D03*
X129558630Y16697157D03*
X129558630Y13303045D03*
X132952742Y13303045D03*
X133655686Y15000101D03*
X132952742Y16697157D03*
%TD*%
D38*
%TO.C,C6*%
X8509000Y-34684000D03*
X8509000Y-33134000D03*
%TD*%
D32*
%TO.C,H1*%
X43000000Y-36000000D03*
%TD*%
D24*
%TO.C,D17*%
X132352685Y109147158D03*
X129152685Y109147158D03*
X129152685Y104247158D03*
X132352685Y104247158D03*
%TD*%
D22*
%TO.C,J4*%
X167000000Y-6000000D03*
D23*
X167000000Y-3460000D03*
X169540000Y-6000000D03*
X169540000Y-3460000D03*
X172080000Y-6000000D03*
X172080000Y-3460000D03*
X174620000Y-6000000D03*
X174620000Y-3460000D03*
%TD*%
D10*
%TO.C,C5*%
X175404055Y101697158D03*
X176364055Y101697158D03*
%TD*%
D39*
%TO.C,BZ1*%
X205359000Y-9281000D03*
D40*
X205359000Y-16881000D03*
%TD*%
D14*
%TO.C,C13*%
X189364085Y52565786D03*
X188404085Y52565786D03*
%TD*%
D24*
%TO.C,D7*%
X175284055Y71115787D03*
X178484055Y71115787D03*
X178484055Y76015787D03*
X175284055Y76015787D03*
%TD*%
D12*
%TO.C,D11*%
X83240085Y39100101D03*
X83240085Y35900101D03*
X88140085Y35900101D03*
X88140085Y39100101D03*
%TD*%
D24*
%TO.C,D8*%
X175284055Y58115787D03*
X178484055Y58115787D03*
X178484055Y63015787D03*
X175284055Y63015787D03*
%TD*%
D13*
%TO.C,mouse-bite-2mm-slot*%
X221750000Y-28250000D03*
X221000000Y-29750000D03*
X220250000Y-29750000D03*
X221750000Y-29750000D03*
X221000000Y-28250000D03*
X220250000Y-28250000D03*
%TD*%
D24*
%TO.C,D4*%
X232415455Y117247158D03*
X235615455Y117247158D03*
X235615455Y122147158D03*
X232415455Y122147158D03*
%TD*%
D12*
%TO.C,D21*%
X226399770Y82031472D03*
X226399770Y85231472D03*
X221499770Y85231472D03*
X221499770Y82031472D03*
%TD*%
D10*
%TO.C,C7*%
X232535455Y68565787D03*
X233495455Y68565787D03*
%TD*%
D15*
%TO.C,C2*%
X158818370Y128282843D03*
X158818370Y129242843D03*
%TD*%
%TO.C,C3*%
X171818370Y128282843D03*
X171818370Y129242843D03*
%TD*%
D12*
%TO.C,D1*%
X143268370Y128162843D03*
X143268370Y131362843D03*
X138368370Y131362843D03*
X138368370Y128162843D03*
%TD*%
D14*
%TO.C,C13*%
X6973000Y52565786D03*
X6013000Y52565786D03*
%TD*%
D11*
%TO.C,C11*%
X23558685Y38980101D03*
X23558685Y38020101D03*
%TD*%
D24*
%TO.C,D14*%
X189484085Y63015786D03*
X186284085Y63015786D03*
X186284085Y58115786D03*
X189484085Y58115786D03*
%TD*%
D22*
%TO.C,J6*%
X82000000Y-34500000D03*
D23*
X84540000Y-34500000D03*
X87080000Y-34500000D03*
X89620000Y-34500000D03*
X92160000Y-34500000D03*
X94700000Y-34500000D03*
%TD*%
D24*
%TO.C,D5*%
X50024370Y104247158D03*
X53224370Y104247158D03*
X53224370Y109147158D03*
X50024370Y109147158D03*
%TD*%
D15*
%TO.C,C19*%
X145818370Y82151472D03*
X145818370Y83111472D03*
%TD*%
D24*
%TO.C,D4*%
X107155770Y117247158D03*
X110355770Y117247158D03*
X110355770Y122147158D03*
X107155770Y122147158D03*
%TD*%
%TO.C,D6*%
X232415455Y91247158D03*
X235615455Y91247158D03*
X235615455Y96147158D03*
X232415455Y96147158D03*
%TD*%
D26*
%TO.C,C11*%
X104587112Y-13208000D03*
D27*
X102587112Y-13208000D03*
%TD*%
D41*
%TO.C,R10*%
X36321000Y-16967000D03*
X34671000Y-16967000D03*
%TD*%
D17*
%TO.C,H3*%
X99590085Y15000101D03*
X97190085Y17400101D03*
X94790085Y15000101D03*
X97190085Y12600101D03*
X98887141Y13303045D03*
D18*
X97190085Y15000101D03*
D17*
X98887141Y16697157D03*
X95493029Y13303045D03*
X95493029Y16697157D03*
%TD*%
D30*
%TO.C,SW2*%
X5352500Y-21915000D03*
X5352500Y-28925000D03*
D31*
X2862500Y-27675000D03*
X2862500Y-23175000D03*
%TD*%
D24*
%TO.C,D14*%
X132352685Y63015786D03*
X129152685Y63015786D03*
X129152685Y58115786D03*
X132352685Y58115786D03*
%TD*%
D15*
%TO.C,C21*%
X228949770Y82151472D03*
X228949770Y83111472D03*
%TD*%
D24*
%TO.C,D9*%
X107155770Y45115787D03*
X110355770Y45115787D03*
X110355770Y50015787D03*
X107155770Y50015787D03*
%TD*%
D17*
%TO.C,H1*%
X19458685Y7000101D03*
X14658685Y7000101D03*
X17058685Y9400101D03*
X15361629Y8697157D03*
D18*
X17058685Y7000101D03*
D17*
X18755741Y5303045D03*
X15361629Y5303045D03*
X18755741Y8697157D03*
X17058685Y4600101D03*
%TD*%
D15*
%TO.C,C21*%
X103690085Y82151472D03*
X103690085Y83111472D03*
%TD*%
D29*
%TO.C,R1*%
X152663370Y20441472D03*
X154313370Y20441472D03*
%TD*%
D42*
%TO.C,U5*%
X26525000Y-12955000D03*
X26525000Y-14225000D03*
X26525000Y-15495000D03*
X26525000Y-16765000D03*
X26525000Y-18035000D03*
X26525000Y-19305000D03*
X26525000Y-20575000D03*
X26525000Y-21845000D03*
X31475000Y-21845000D03*
X31475000Y-20575000D03*
X31475000Y-19305000D03*
X31475000Y-18035000D03*
X31475000Y-16765000D03*
X31475000Y-15495000D03*
X31475000Y-14225000D03*
X31475000Y-12955000D03*
%TD*%
D14*
%TO.C,C14*%
X64104400Y65565786D03*
X63144400Y65565786D03*
%TD*%
D17*
%TO.C,H2*%
X222449770Y4600101D03*
X220752714Y8697157D03*
X224849770Y7000101D03*
X222449770Y9400101D03*
X224146826Y8697157D03*
X224146826Y5303045D03*
D18*
X222449770Y7000101D03*
D17*
X220049770Y7000101D03*
X220752714Y5303045D03*
%TD*%
D24*
%TO.C,D7*%
X50024370Y71115787D03*
X53224370Y71115787D03*
X53224370Y76015787D03*
X50024370Y76015787D03*
%TD*%
D29*
%TO.C,R9*%
X22035000Y-15748000D03*
X23685000Y-15748000D03*
%TD*%
D43*
%TO.C,D2*%
X113030000Y-30352000D03*
X113030000Y-27052000D03*
%TD*%
D44*
%TO.C,Y1*%
X157036000Y-15682000D03*
X157036000Y-13782000D03*
D45*
X162536000Y-13232000D03*
X162536000Y-16232000D03*
D46*
X162536000Y-14732000D03*
%TD*%
D29*
%TO.C,R15*%
X113856000Y-22352000D03*
X115506000Y-22352000D03*
%TD*%
D14*
%TO.C,C17*%
X6973000Y111697158D03*
X6013000Y111697158D03*
%TD*%
D24*
%TO.C,D18*%
X7093000Y122147158D03*
X3893000Y122147158D03*
X3893000Y117247158D03*
X7093000Y117247158D03*
%TD*%
D47*
%TO.C,U2*%
X196469000Y-5049000D03*
D48*
X195199000Y-7119000D03*
X193929000Y-5049000D03*
%TD*%
D10*
%TO.C,C4*%
X107275770Y114697158D03*
X108235770Y114697158D03*
%TD*%
%TO.C,C8*%
X232535455Y55565787D03*
X233495455Y55565787D03*
%TD*%
D49*
%TO.C,C14*%
X104709000Y-25146000D03*
X102809000Y-25146000D03*
%TD*%
D24*
%TO.C,D4*%
X50024370Y117247158D03*
X53224370Y117247158D03*
X53224370Y122147158D03*
X50024370Y122147158D03*
%TD*%
D12*
%TO.C,D20*%
X156268370Y82031472D03*
X156268370Y85231472D03*
X151368370Y85231472D03*
X151368370Y82031472D03*
%TD*%
D10*
%TO.C,C4*%
X50144370Y114697158D03*
X51104370Y114697158D03*
%TD*%
D13*
%TO.C,mouse-bite-2mm-slot*%
X38750000Y1750000D03*
X38750000Y250000D03*
X38000000Y1750000D03*
X37250000Y250000D03*
X37250000Y1750000D03*
X38000000Y250000D03*
%TD*%
D29*
%TO.C,R5*%
X14542000Y-12192000D03*
X16192000Y-12192000D03*
%TD*%
D14*
%TO.C,C18*%
X64104400Y124697158D03*
X63144400Y124697158D03*
%TD*%
D16*
%TO.C,C12*%
X104534000Y-23241000D03*
X102984000Y-23241000D03*
%TD*%
D15*
%TO.C,C1*%
X77690085Y128282843D03*
X77690085Y129242843D03*
%TD*%
D14*
%TO.C,C18*%
X132232685Y124697158D03*
X131272685Y124697158D03*
%TD*%
D10*
%TO.C,C9*%
X175404055Y42565787D03*
X176364055Y42565787D03*
%TD*%
D15*
%TO.C,C20*%
X158818370Y82151472D03*
X158818370Y83111472D03*
%TD*%
D12*
%TO.C,D3*%
X44008685Y128162843D03*
X44008685Y131362843D03*
X39108685Y131362843D03*
X39108685Y128162843D03*
%TD*%
D22*
%TO.C,J1*%
X24748685Y17130101D03*
D23*
X24748685Y14590101D03*
X27288685Y17130101D03*
X27288685Y14590101D03*
X29828685Y17130101D03*
X29828685Y14590101D03*
X32368685Y17130101D03*
X32368685Y14590101D03*
%TD*%
D24*
%TO.C,D7*%
X107155770Y71115787D03*
X110355770Y71115787D03*
X110355770Y76015787D03*
X107155770Y76015787D03*
%TD*%
%TO.C,D6*%
X50024370Y91247158D03*
X53224370Y91247158D03*
X53224370Y96147158D03*
X50024370Y96147158D03*
%TD*%
D17*
%TO.C,H3*%
X220752714Y16697157D03*
X224146826Y16697157D03*
X222449770Y17400101D03*
D18*
X222449770Y15000101D03*
D17*
X220752714Y13303045D03*
X224146826Y13303045D03*
X224849770Y15000101D03*
X220049770Y15000101D03*
X222449770Y12600101D03*
%TD*%
D24*
%TO.C,D8*%
X50024370Y58115787D03*
X53224370Y58115787D03*
X53224370Y63015787D03*
X50024370Y63015787D03*
%TD*%
D50*
%TO.C,Q4*%
X44516000Y-9065500D03*
X46416000Y-9065500D03*
X45466000Y-7190500D03*
%TD*%
D10*
%TO.C,C9*%
X232535455Y42565787D03*
X233495455Y42565787D03*
%TD*%
D51*
%TO.C,R2*%
X84124800Y-17780000D03*
X85291526Y-18946726D03*
%TD*%
D12*
%TO.C,D12*%
X195499770Y39100101D03*
X195499770Y35900101D03*
X200399770Y35900101D03*
X200399770Y39100101D03*
%TD*%
D10*
%TO.C,C5*%
X50144370Y101697158D03*
X51104370Y101697158D03*
%TD*%
D24*
%TO.C,D4*%
X175284055Y117247158D03*
X178484055Y117247158D03*
X178484055Y122147158D03*
X175284055Y122147158D03*
%TD*%
D15*
%TO.C,C3*%
X228949770Y128282843D03*
X228949770Y129242843D03*
%TD*%
D10*
%TO.C,C6*%
X232535455Y88697158D03*
X233495455Y88697158D03*
%TD*%
D13*
%TO.C,mouse-bite-2mm-slot*%
X183134070Y45381472D03*
X183134070Y46131472D03*
X183134070Y46881472D03*
X181634070Y46131472D03*
X181634070Y45381472D03*
X181634070Y46881472D03*
%TD*%
%TO.C,mouse-bite-2mm-slot*%
X139750000Y-28250000D03*
X139750000Y-29750000D03*
X138250000Y-28250000D03*
X139000000Y-28250000D03*
X139000000Y-29750000D03*
X138250000Y-29750000D03*
%TD*%
D12*
%TO.C,D19*%
X200399770Y82031472D03*
X200399770Y85231472D03*
X195499770Y85231472D03*
X195499770Y82031472D03*
%TD*%
D14*
%TO.C,C16*%
X189364085Y98697158D03*
X188404085Y98697158D03*
%TD*%
D10*
%TO.C,C8*%
X175404055Y55565787D03*
X176364055Y55565787D03*
%TD*%
D12*
%TO.C,D3*%
X101140085Y128162843D03*
X101140085Y131362843D03*
X96240085Y131362843D03*
X96240085Y128162843D03*
%TD*%
D24*
%TO.C,D9*%
X232415455Y45115787D03*
X235615455Y45115787D03*
X235615455Y50015787D03*
X232415455Y50015787D03*
%TD*%
%TO.C,D16*%
X189484085Y96147158D03*
X186284085Y96147158D03*
X186284085Y91247158D03*
X189484085Y91247158D03*
%TD*%
D52*
%TO.C,R7*%
X11684000Y-9334000D03*
X11684000Y-7684000D03*
%TD*%
D12*
%TO.C,D21*%
X169268370Y82031472D03*
X169268370Y85231472D03*
X164368370Y85231472D03*
X164368370Y82031472D03*
%TD*%
D15*
%TO.C,C1*%
X20558685Y128282843D03*
X20558685Y129242843D03*
%TD*%
D11*
%TO.C,C10*%
X36558685Y38980101D03*
X36558685Y38020101D03*
%TD*%
D53*
%TO.C,C3*%
X87416008Y-21122008D03*
X86319992Y-20025992D03*
%TD*%
D24*
%TO.C,D7*%
X232415455Y71115787D03*
X235615455Y71115787D03*
X235615455Y76015787D03*
X232415455Y76015787D03*
%TD*%
%TO.C,D14*%
X64224400Y63015786D03*
X61024400Y63015786D03*
X61024400Y58115786D03*
X64224400Y58115786D03*
%TD*%
D12*
%TO.C,D11*%
X151368370Y39100101D03*
X151368370Y35900101D03*
X156268370Y35900101D03*
X156268370Y39100101D03*
%TD*%
D10*
%TO.C,C5*%
X232535455Y101697158D03*
X233495455Y101697158D03*
%TD*%
D13*
%TO.C,mouse-bite-2mm-slot*%
X129750000Y1750000D03*
X129750000Y250000D03*
X129000000Y1750000D03*
X128250000Y250000D03*
X128250000Y1750000D03*
X129000000Y250000D03*
%TD*%
D15*
%TO.C,C1*%
X145818370Y128282843D03*
X145818370Y129242843D03*
%TD*%
D13*
%TO.C,mouse-bite-2mm-slot*%
X178750000Y-28250000D03*
X177250000Y-29750000D03*
X177250000Y-28250000D03*
X178750000Y-29750000D03*
X178000000Y-29750000D03*
X178000000Y-28250000D03*
%TD*%
D11*
%TO.C,C11*%
X148818370Y38980101D03*
X148818370Y38020101D03*
%TD*%
D24*
%TO.C,D13*%
X64224400Y50015786D03*
X61024400Y50015786D03*
X61024400Y45115786D03*
X64224400Y45115786D03*
%TD*%
D54*
%TO.C,C8*%
X154940000Y-15494000D03*
X154940000Y-17044000D03*
%TD*%
D13*
%TO.C,mouse-bite-2mm-slot*%
X183134070Y91381472D03*
X183134070Y92131472D03*
X183134070Y92881472D03*
X181634070Y92131472D03*
X181634070Y92881472D03*
X181634070Y91381472D03*
%TD*%
D18*
%TO.C,H3*%
X165318370Y15000101D03*
D17*
X167015426Y16697157D03*
X163621314Y13303045D03*
X163621314Y16697157D03*
X167718370Y15000101D03*
X165318370Y12600101D03*
X162918370Y15000101D03*
X165318370Y17400101D03*
X167015426Y13303045D03*
%TD*%
D29*
%TO.C,R1*%
X209794770Y20441472D03*
X211444770Y20441472D03*
%TD*%
D12*
%TO.C,D10*%
X96240085Y39100101D03*
X96240085Y35900101D03*
X101140085Y35900101D03*
X101140085Y39100101D03*
%TD*%
D13*
%TO.C,mouse-bite-2mm-slot*%
X183134070Y121881472D03*
X183134070Y120381472D03*
X183134070Y121131472D03*
X181634070Y121131472D03*
X181634070Y120381472D03*
X181634070Y121881472D03*
%TD*%
D10*
%TO.C,C7*%
X107275770Y68565787D03*
X108235770Y68565787D03*
%TD*%
D13*
%TO.C,mouse-bite-2mm-slot*%
X118250000Y-33000000D03*
X119750000Y-33750000D03*
X119750000Y-33000000D03*
X118250000Y-33750000D03*
X119750000Y-32250000D03*
X118250000Y-32250000D03*
%TD*%
D22*
%TO.C,J5*%
X230000000Y-6000000D03*
D23*
X230000000Y-3460000D03*
X232540000Y-6000000D03*
X232540000Y-3460000D03*
X235080000Y-6000000D03*
X235080000Y-3460000D03*
X237620000Y-6000000D03*
X237620000Y-3460000D03*
%TD*%
D15*
%TO.C,C1*%
X202949770Y128282843D03*
X202949770Y129242843D03*
%TD*%
D13*
%TO.C,mouse-bite-2mm-slot*%
X56374385Y121881472D03*
X57874385Y120381472D03*
X57874385Y121131472D03*
X56374385Y121131472D03*
X56374385Y120381472D03*
X57874385Y121881472D03*
%TD*%
D12*
%TO.C,D19*%
X143268370Y82031472D03*
X143268370Y85231472D03*
X138368370Y85231472D03*
X138368370Y82031472D03*
%TD*%
D13*
%TO.C,mouse-bite-2mm-slot*%
X115003685Y60593472D03*
X113503685Y60593472D03*
X115003685Y59843472D03*
X115003685Y59093472D03*
X113503685Y59843472D03*
X113503685Y59093472D03*
%TD*%
D24*
%TO.C,D15*%
X64224400Y76015786D03*
X61024400Y76015786D03*
X61024400Y71115786D03*
X64224400Y71115786D03*
%TD*%
D22*
%TO.C,J1*%
X115945686Y17130101D03*
D23*
X115945686Y14590101D03*
X118485686Y17130101D03*
X118485686Y14590101D03*
X121025686Y17130101D03*
X121025686Y14590101D03*
X123565686Y17130101D03*
X123565686Y14590101D03*
%TD*%
D13*
%TO.C,mouse-bite-2mm-slot*%
X181634070Y75131472D03*
X181634070Y75881472D03*
X183134070Y75131472D03*
X183134070Y74381472D03*
X183134070Y75881472D03*
X181634070Y74381472D03*
%TD*%
D24*
%TO.C,D8*%
X107155770Y58115787D03*
X110355770Y58115787D03*
X110355770Y63015787D03*
X107155770Y63015787D03*
%TD*%
D13*
%TO.C,mouse-bite-2mm-slot*%
X115005685Y105831472D03*
X115005685Y107331472D03*
X113505685Y106581472D03*
X113505685Y105831472D03*
X113505685Y107331472D03*
X115005685Y106581472D03*
%TD*%
D24*
%TO.C,D17*%
X7093000Y109147158D03*
X3893000Y109147158D03*
X3893000Y104247158D03*
X7093000Y104247158D03*
%TD*%
%TO.C,D8*%
X232415455Y58115787D03*
X235615455Y58115787D03*
X235615455Y63015787D03*
X232415455Y63015787D03*
%TD*%
D13*
%TO.C,mouse-bite-2mm-slot*%
X57874385Y92881472D03*
X56374385Y91381472D03*
X56374385Y92881472D03*
X57874385Y92131472D03*
X57874385Y91381472D03*
X56374385Y92131472D03*
%TD*%
D15*
%TO.C,C20*%
X215949770Y82151472D03*
X215949770Y83111472D03*
%TD*%
D32*
%TO.C,H3*%
X52500000Y-5500000D03*
%TD*%
D30*
%TO.C,SW1*%
X5352500Y-19225000D03*
X5352500Y-12215000D03*
D31*
X2862500Y-17975000D03*
X2862500Y-13475000D03*
%TD*%
D10*
%TO.C,C4*%
X175404055Y114697158D03*
X176364055Y114697158D03*
%TD*%
D14*
%TO.C,C15*%
X132232685Y78565786D03*
X131272685Y78565786D03*
%TD*%
%TO.C,C13*%
X132232685Y52565786D03*
X131272685Y52565786D03*
%TD*%
D24*
%TO.C,D16*%
X132352685Y96147158D03*
X129152685Y96147158D03*
X129152685Y91247158D03*
X132352685Y91247158D03*
%TD*%
D17*
%TO.C,H1*%
X106558630Y5303045D03*
X108255686Y4600101D03*
D18*
X108255686Y7000101D03*
D17*
X108255686Y9400101D03*
X109952742Y8697157D03*
X105855686Y7000101D03*
X109952742Y5303045D03*
X110655686Y7000101D03*
X106558630Y8697157D03*
%TD*%
D41*
%TO.C,R11*%
X36321000Y-15367000D03*
X34671000Y-15367000D03*
%TD*%
D17*
%TO.C,H4*%
X197049770Y15000101D03*
D18*
X199449770Y15000101D03*
D17*
X197752714Y13303045D03*
X201849770Y15000101D03*
X201146826Y16697157D03*
X199449770Y12600101D03*
X201146826Y13303045D03*
X197752714Y16697157D03*
X199449770Y17400101D03*
%TD*%
D15*
%TO.C,C3*%
X46558685Y128282843D03*
X46558685Y129242843D03*
%TD*%
D17*
%TO.C,H3*%
X38361629Y16697157D03*
X40058685Y12600101D03*
X42458685Y15000101D03*
X38361629Y13303045D03*
D18*
X40058685Y15000101D03*
D17*
X41755741Y13303045D03*
X40058685Y17400101D03*
X41755741Y16697157D03*
X37658685Y15000101D03*
%TD*%
D12*
%TO.C,D2*%
X88140085Y128162843D03*
X88140085Y131362843D03*
X83240085Y131362843D03*
X83240085Y128162843D03*
%TD*%
D14*
%TO.C,C14*%
X6973000Y65565786D03*
X6013000Y65565786D03*
%TD*%
D10*
%TO.C,C7*%
X175404055Y68565787D03*
X176364055Y68565787D03*
%TD*%
D12*
%TO.C,D2*%
X122205686Y105097158D03*
X122205686Y108297158D03*
X117305686Y108297158D03*
X117305686Y105097158D03*
%TD*%
D24*
%TO.C,D9*%
X175284055Y45115787D03*
X178484055Y45115787D03*
X178484055Y50015787D03*
X175284055Y50015787D03*
%TD*%
D55*
%TO.C,U3*%
X152335000Y-16383000D03*
X152335000Y-15113000D03*
X152335000Y-13843000D03*
X152335000Y-12573000D03*
X147385000Y-12573000D03*
X147385000Y-13843000D03*
X147385000Y-15113000D03*
X147385000Y-16383000D03*
%TD*%
D12*
%TO.C,D19*%
X75140085Y82031472D03*
X75140085Y85231472D03*
X70240085Y85231472D03*
X70240085Y82031472D03*
%TD*%
D29*
%TO.C,R17*%
X26480000Y-8890000D03*
X28130000Y-8890000D03*
%TD*%
D13*
%TO.C,mouse-bite-2mm-slot*%
X126005685Y106581472D03*
X124505685Y105831472D03*
X126005685Y105831472D03*
X124505685Y106581472D03*
X126005685Y107331472D03*
X124505685Y107331472D03*
%TD*%
D10*
%TO.C,C5*%
X107275770Y101697158D03*
X108235770Y101697158D03*
%TD*%
D56*
%TO.C,C2*%
X115316000Y-29906000D03*
X115316000Y-28006000D03*
%TD*%
D12*
%TO.C,D11*%
X26108685Y39100101D03*
X26108685Y35900101D03*
X31008685Y35900101D03*
X31008685Y39100101D03*
%TD*%
D38*
%TO.C,C7*%
X191262000Y-5728000D03*
X191262000Y-4178000D03*
%TD*%
D14*
%TO.C,C14*%
X132232685Y65565786D03*
X131272685Y65565786D03*
%TD*%
D17*
%TO.C,H1*%
X74190085Y9400101D03*
X75887141Y5303045D03*
X72493029Y8697157D03*
D18*
X74190085Y7000101D03*
D17*
X75887141Y8697157D03*
X74190085Y4600101D03*
X76590085Y7000101D03*
X71790085Y7000101D03*
X72493029Y5303045D03*
%TD*%
D29*
%TO.C,R8*%
X22035000Y-14224000D03*
X23685000Y-14224000D03*
%TD*%
D14*
%TO.C,C18*%
X189364085Y124697158D03*
X188404085Y124697158D03*
%TD*%
D11*
%TO.C,C12*%
X135818370Y38980101D03*
X135818370Y38020101D03*
%TD*%
D15*
%TO.C,C21*%
X171818370Y82151472D03*
X171818370Y83111472D03*
%TD*%
D16*
%TO.C,C1*%
X75705000Y-31623000D03*
X74155000Y-31623000D03*
%TD*%
D15*
%TO.C,C20*%
X90690085Y82151472D03*
X90690085Y83111472D03*
%TD*%
D10*
%TO.C,C6*%
X50144370Y88697158D03*
X51104370Y88697158D03*
%TD*%
D16*
%TO.C,C22*%
X82410085Y20431472D03*
X80860085Y20431472D03*
%TD*%
D12*
%TO.C,D11*%
X208499770Y39100101D03*
X208499770Y35900101D03*
X213399770Y35900101D03*
X213399770Y39100101D03*
%TD*%
D24*
%TO.C,D15*%
X189484085Y76015786D03*
X186284085Y76015786D03*
X186284085Y71115786D03*
X189484085Y71115786D03*
%TD*%
D29*
%TO.C,R1*%
X118600686Y20441472D03*
X120250686Y20441472D03*
%TD*%
D10*
%TO.C,C8*%
X107275770Y55565787D03*
X108235770Y55565787D03*
%TD*%
D24*
%TO.C,D5*%
X107155770Y104247158D03*
X110355770Y104247158D03*
X110355770Y109147158D03*
X107155770Y109147158D03*
%TD*%
D10*
%TO.C,C6*%
X175404055Y88697158D03*
X176364055Y88697158D03*
%TD*%
D15*
%TO.C,C2*%
X90690085Y128282843D03*
X90690085Y129242843D03*
%TD*%
D32*
%TO.C,H2*%
X215000000Y-6000000D03*
%TD*%
D24*
%TO.C,D6*%
X175284055Y91247158D03*
X178484055Y91247158D03*
X178484055Y96147158D03*
X175284055Y96147158D03*
%TD*%
%TO.C,D18*%
X132352685Y122147158D03*
X129152685Y122147158D03*
X129152685Y117247158D03*
X132352685Y117247158D03*
%TD*%
D29*
%TO.C,R16*%
X44641000Y-11303000D03*
X46291000Y-11303000D03*
%TD*%
D10*
%TO.C,C8*%
X50144370Y55565787D03*
X51104370Y55565787D03*
%TD*%
D16*
%TO.C,C22*%
X25278685Y20431472D03*
X23728685Y20431472D03*
%TD*%
D19*
%TO.C,Q1*%
X195658500Y-13782000D03*
X195658500Y-15682000D03*
X197533500Y-14732000D03*
%TD*%
D57*
%TO.C,Q2*%
X40307500Y-17079000D03*
X40307500Y-15179000D03*
X38432500Y-16129000D03*
%TD*%
D22*
%TO.C,J8*%
X231282000Y-11049000D03*
D23*
X233822000Y-11049000D03*
X236362000Y-11049000D03*
%TD*%
D16*
%TO.C,C16*%
X30239000Y-10922000D03*
X28689000Y-10922000D03*
%TD*%
D54*
%TO.C,C18*%
X152400000Y-18275000D03*
X152400000Y-19825000D03*
%TD*%
D11*
%TO.C,C11*%
X205949770Y38980101D03*
X205949770Y38020101D03*
%TD*%
D24*
%TO.C,D15*%
X7093000Y76015786D03*
X3893000Y76015786D03*
X3893000Y71115786D03*
X7093000Y71115786D03*
%TD*%
D13*
%TO.C,mouse-bite-2mm-slot*%
X220750000Y1750000D03*
X220750000Y250000D03*
X220000000Y1750000D03*
X219250000Y250000D03*
X219250000Y1750000D03*
X220000000Y250000D03*
%TD*%
D26*
%TO.C,C10*%
X139446000Y-17613621D03*
D27*
X139446000Y-20113621D03*
%TD*%
D58*
%TO.C,U1*%
X71746000Y-31623000D03*
X71746000Y-30353000D03*
X71746000Y-29083000D03*
X71746000Y-27813000D03*
X71746000Y-26543000D03*
X71746000Y-25273000D03*
X71746000Y-24003000D03*
X71746000Y-22733000D03*
X71746000Y-21463000D03*
X71746000Y-20193000D03*
X71746000Y-18923000D03*
X71746000Y-17653000D03*
X71746000Y-16383000D03*
X71746000Y-15113000D03*
D59*
X68961000Y-14113000D03*
X67691000Y-14113000D03*
X66421000Y-14113000D03*
X65151000Y-14113000D03*
X63881000Y-14113000D03*
X62611000Y-14113000D03*
X61341000Y-14113000D03*
X60071000Y-14113000D03*
X58801000Y-14113000D03*
X57531000Y-14113000D03*
D58*
X54746000Y-15113000D03*
X54746000Y-16383000D03*
X54746000Y-17653000D03*
X54746000Y-18923000D03*
X54746000Y-20193000D03*
X54746000Y-21463000D03*
X54746000Y-22733000D03*
X54746000Y-24003000D03*
X54746000Y-25273000D03*
X54746000Y-26543000D03*
X54746000Y-27813000D03*
X54746000Y-29083000D03*
X54746000Y-30353000D03*
X54746000Y-31623000D03*
D60*
X64246000Y-24123000D03*
%TD*%
D18*
%TO.C,H4*%
X142318370Y15000101D03*
D17*
X142318370Y17400101D03*
X140621314Y13303045D03*
X144015426Y16697157D03*
X139918370Y15000101D03*
X142318370Y12600101D03*
X144718370Y15000101D03*
X140621314Y16697157D03*
X144015426Y13303045D03*
%TD*%
D24*
%TO.C,D13*%
X132352685Y50015786D03*
X129152685Y50015786D03*
X129152685Y45115786D03*
X132352685Y45115786D03*
%TD*%
D38*
%TO.C,C9*%
X154940000Y-13475000D03*
X154940000Y-11925000D03*
%TD*%
D24*
%TO.C,D14*%
X7093000Y63015786D03*
X3893000Y63015786D03*
X3893000Y58115786D03*
X7093000Y58115786D03*
%TD*%
D61*
%TO.C,C13*%
X32070000Y-10668000D03*
X33970000Y-10668000D03*
%TD*%
D15*
%TO.C,C19*%
X20558685Y82151472D03*
X20558685Y83111472D03*
%TD*%
D24*
%TO.C,D13*%
X7093000Y50015786D03*
X3893000Y50015786D03*
X3893000Y45115786D03*
X7093000Y45115786D03*
%TD*%
D28*
%TO.C,R12*%
X113300000Y-5500000D03*
X116700000Y-5500000D03*
%TD*%
D24*
%TO.C,D15*%
X132352685Y76015786D03*
X129152685Y76015786D03*
X129152685Y71115786D03*
X132352685Y71115786D03*
%TD*%
D10*
%TO.C,C6*%
X107275770Y88697158D03*
X108235770Y88697158D03*
%TD*%
D43*
%TO.C,D1*%
X214376000Y-11812000D03*
X214376000Y-15112000D03*
%TD*%
D12*
%TO.C,D2*%
X213399770Y128162843D03*
X213399770Y131362843D03*
X208499770Y131362843D03*
X208499770Y128162843D03*
%TD*%
D22*
%TO.C,J1*%
X150008370Y17130101D03*
D23*
X150008370Y14590101D03*
X152548370Y17130101D03*
X152548370Y14590101D03*
X155088370Y17130101D03*
X155088370Y14590101D03*
X157628370Y17130101D03*
X157628370Y14590101D03*
%TD*%
D32*
%TO.C,H6*%
X235000000Y-24000000D03*
%TD*%
D12*
%TO.C,D21*%
X44008685Y82031472D03*
X44008685Y85231472D03*
X39108685Y85231472D03*
X39108685Y82031472D03*
%TD*%
%TO.C,D10*%
X164368370Y39100101D03*
X164368370Y35900101D03*
X169268370Y35900101D03*
X169268370Y39100101D03*
%TD*%
D13*
%TO.C,mouse-bite-2mm-slot*%
X203750000Y1750000D03*
X203750000Y250000D03*
X203000000Y1750000D03*
X202250000Y250000D03*
X202250000Y1750000D03*
X203000000Y250000D03*
%TD*%
D22*
%TO.C,J1*%
X134000000Y-38000000D03*
D23*
X136540000Y-38000000D03*
X139080000Y-38000000D03*
X141620000Y-38000000D03*
X144160000Y-38000000D03*
X146700000Y-38000000D03*
%TD*%
M02*
