%TF.GenerationSoftware,KiCad,Pcbnew,(6.0.4)*%
%TF.CreationDate,2022-06-05T14:45:13+02:00*%
%TF.ProjectId,Time-O-Mat_TouchBar_H01,54696d65-2d4f-42d4-9d61-745f546f7563,rev?*%
%TF.SameCoordinates,Original*%
%TF.FileFunction,Copper,L1,Top*%
%TF.FilePolarity,Positive*%
%FSLAX46Y46*%
G04 Gerber Fmt 4.6, Leading zero omitted, Abs format (unit mm)*
G04 Created by KiCad (PCBNEW (6.0.4)) date 2022-06-05 14:45:13*
%MOMM*%
%LPD*%
G01*
G04 APERTURE LIST*
G04 Aperture macros list*
%AMFreePoly0*
4,1,5,15.200000,-1.450000,-1.800000,-1.450000,-1.800000,2.050000,15.200000,2.050000,15.200000,-1.450000,15.200000,-1.450000,$1*%
%AMFreePoly1*
4,1,5,15.200000,-1.000000,-18.800000,-1.000000,-18.800000,2.500000,15.200000,2.500000,15.200000,-1.000000,15.200000,-1.000000,$1*%
G04 Aperture macros list end*
%TA.AperFunction,SMDPad,CuDef*%
%ADD10FreePoly0,0.000000*%
%TD*%
%TA.AperFunction,SMDPad,CuDef*%
%ADD11FreePoly1,0.000000*%
%TD*%
%TA.AperFunction,ViaPad*%
%ADD12C,0.800000*%
%TD*%
%TA.AperFunction,Conductor*%
%ADD13C,0.250000*%
%TD*%
G04 APERTURE END LIST*
D10*
%TO.P,U1,1,HALFTOUCH*%
%TO.N,Net-(J1-Pad1)*%
X19800000Y-3050000D03*
D11*
%TO.P,U1,2,FULLTOUCH*%
%TO.N,Net-(J2-Pad1)*%
X19800000Y-8000000D03*
%TD*%
D10*
%TO.P,U2,1,HALFTOUCH*%
%TO.N,Net-(J1-Pad1)*%
X82800000Y-3050000D03*
D11*
%TO.P,U2,2,FULLTOUCH*%
%TO.N,Net-(J3-Pad1)*%
X82800000Y-8000000D03*
%TD*%
D10*
%TO.P,U4,1,HALFTOUCH*%
%TO.N,Net-(J1-Pad1)*%
X223800000Y-3050000D03*
D11*
%TO.P,U4,2,FULLTOUCH*%
%TO.N,Net-(J5-Pad1)*%
X223800000Y-8000000D03*
%TD*%
D10*
%TO.P,U3,1,HALFTOUCH*%
%TO.N,Net-(J1-Pad1)*%
X160800000Y-3050000D03*
D11*
%TO.P,U3,2,FULLTOUCH*%
%TO.N,Net-(J4-Pad1)*%
X160800000Y-8000000D03*
%TD*%
D12*
%TO.N,Net-(J1-Pad1)*%
X110200000Y-7000000D03*
%TO.N,Net-(J2-Pad1)*%
X36900000Y-7400000D03*
%TO.N,Net-(J3-Pad1)*%
X99400000Y-6700000D03*
%TO.N,Net-(J4-Pad1)*%
X140800000Y-6875500D03*
%TO.N,Net-(J5-Pad1)*%
X203800000Y-7600000D03*
%TD*%
D13*
%TO.N,Net-(J1-Pad1)*%
X80600000Y-500000D02*
X82800000Y-2700000D01*
X158500000Y-500000D02*
X111900000Y-500000D01*
X173850000Y-3050000D02*
X176400000Y-500000D01*
X110200000Y-7000000D02*
X111900000Y-5300000D01*
X111900000Y-500000D02*
X98600000Y-500000D01*
X160800000Y-3050000D02*
X160800000Y-2800000D01*
X176400000Y-500000D02*
X221250000Y-500000D01*
X111900000Y-5300000D02*
X111900000Y-500000D01*
X160800000Y-2800000D02*
X158500000Y-500000D01*
X221250000Y-500000D02*
X223800000Y-3050000D01*
X82800000Y-2700000D02*
X82800000Y-3050000D01*
X32850000Y-3050000D02*
X35400000Y-500000D01*
X35400000Y-500000D02*
X80600000Y-500000D01*
X160800000Y-3050000D02*
X173850000Y-3050000D01*
X96050000Y-3050000D02*
X82800000Y-3050000D01*
X19800000Y-3050000D02*
X32850000Y-3050000D01*
X98600000Y-500000D02*
X96050000Y-3050000D01*
%TO.N,Net-(J2-Pad1)*%
X20400000Y-7400000D02*
X19800000Y-8000000D01*
X36900000Y-7400000D02*
X20400000Y-7400000D01*
%TO.N,Net-(J3-Pad1)*%
X99400000Y-6700000D02*
X98100000Y-8000000D01*
X98100000Y-8000000D02*
X82800000Y-8000000D01*
%TO.N,Net-(J4-Pad1)*%
X140800000Y-6875500D02*
X141924500Y-8000000D01*
X141924500Y-8000000D02*
X160800000Y-8000000D01*
%TO.N,Net-(J5-Pad1)*%
X223400000Y-7600000D02*
X223800000Y-8000000D01*
X203800000Y-7600000D02*
X223400000Y-7600000D01*
%TD*%
M02*
