%TF.GenerationSoftware,KiCad,Pcbnew,(6.0.4)*%
%TF.CreationDate,2022-06-05T14:45:13+02:00*%
%TF.ProjectId,Time-O-Mat_TouchBar_H01,54696d65-2d4f-42d4-9d61-745f546f7563,rev?*%
%TF.SameCoordinates,Original*%
%TF.FileFunction,Legend,Top*%
%TF.FilePolarity,Positive*%
%FSLAX46Y46*%
G04 Gerber Fmt 4.6, Leading zero omitted, Abs format (unit mm)*
G04 Created by KiCad (PCBNEW (6.0.4)) date 2022-06-05 14:45:13*
%MOMM*%
%LPD*%
G01*
G04 APERTURE LIST*
%ADD10C,0.300000*%
G04 APERTURE END LIST*
D10*
%TO.C,U1*%
X18000000Y-750000D02*
X18000000Y-9250000D01*
X35300000Y-750000D02*
X700000Y-750000D01*
X35300000Y-9250000D02*
X700000Y-9250000D01*
X35300000Y-750000D02*
X35300000Y-9250000D01*
X700000Y-750000D02*
X700000Y-9250000D01*
%TO.C,U2*%
X81000000Y-750000D02*
X81000000Y-9250000D01*
X98300000Y-9250000D02*
X63700000Y-9250000D01*
X98300000Y-750000D02*
X98300000Y-9250000D01*
X98300000Y-750000D02*
X63700000Y-750000D01*
X63700000Y-750000D02*
X63700000Y-9250000D01*
%TO.C,U4*%
X222000000Y-750000D02*
X222000000Y-9250000D01*
X239300000Y-750000D02*
X204700000Y-750000D01*
X239300000Y-9250000D02*
X204700000Y-9250000D01*
X204700000Y-750000D02*
X204700000Y-9250000D01*
X239300000Y-750000D02*
X239300000Y-9250000D01*
%TO.C,U3*%
X176300000Y-750000D02*
X176300000Y-9250000D01*
X141700000Y-750000D02*
X141700000Y-9250000D01*
X176300000Y-9250000D02*
X141700000Y-9250000D01*
X176300000Y-750000D02*
X141700000Y-750000D01*
X159000000Y-750000D02*
X159000000Y-9250000D01*
%TD*%
M02*
