%TF.GenerationSoftware,KiCad,Pcbnew,(6.0.1)*%
%TF.CreationDate,2022-01-22T16:29:32+01:00*%
%TF.ProjectId,Four segments and colon,466f7572-2073-4656-976d-656e74732061,rev?*%
%TF.SameCoordinates,Original*%
%TF.FileFunction,Soldermask,Top*%
%TF.FilePolarity,Negative*%
%FSLAX46Y46*%
G04 Gerber Fmt 4.6, Leading zero omitted, Abs format (unit mm)*
G04 Created by KiCad (PCBNEW (6.0.1)) date 2022-01-22 16:29:32*
%MOMM*%
%LPD*%
G01*
G04 APERTURE LIST*
G04 Aperture macros list*
%AMRoundRect*
0 Rectangle with rounded corners*
0 $1 Rounding radius*
0 $2 $3 $4 $5 $6 $7 $8 $9 X,Y pos of 4 corners*
0 Add a 4 corners polygon primitive as box body*
4,1,4,$2,$3,$4,$5,$6,$7,$8,$9,$2,$3,0*
0 Add four circle primitives for the rounded corners*
1,1,$1+$1,$2,$3*
1,1,$1+$1,$4,$5*
1,1,$1+$1,$6,$7*
1,1,$1+$1,$8,$9*
0 Add four rect primitives between the rounded corners*
20,1,$1+$1,$2,$3,$4,$5,0*
20,1,$1+$1,$4,$5,$6,$7,0*
20,1,$1+$1,$6,$7,$8,$9,0*
20,1,$1+$1,$8,$9,$2,$3,0*%
G04 Aperture macros list end*
%ADD10RoundRect,0.140000X0.140000X0.170000X-0.140000X0.170000X-0.140000X-0.170000X0.140000X-0.170000X0*%
%ADD11R,1.500000X1.000000*%
%ADD12RoundRect,0.140000X0.170000X-0.140000X0.170000X0.140000X-0.170000X0.140000X-0.170000X-0.140000X0*%
%ADD13R,1.000000X1.500000*%
%ADD14R,1.700000X1.700000*%
%ADD15O,1.700000X1.700000*%
%ADD16C,0.800000*%
%ADD17C,6.400000*%
%ADD18C,0.500000*%
%ADD19RoundRect,0.140000X-0.170000X0.140000X-0.170000X-0.140000X0.170000X-0.140000X0.170000X0.140000X0*%
%ADD20RoundRect,0.140000X-0.140000X-0.170000X0.140000X-0.170000X0.140000X0.170000X-0.140000X0.170000X0*%
%ADD21RoundRect,0.200000X-0.200000X-0.275000X0.200000X-0.275000X0.200000X0.275000X-0.200000X0.275000X0*%
%ADD22RoundRect,0.225000X0.225000X0.250000X-0.225000X0.250000X-0.225000X-0.250000X0.225000X-0.250000X0*%
G04 APERTURE END LIST*
D10*
%TO.C,C17*%
X148554000Y-39284314D03*
X147594000Y-39284314D03*
%TD*%
D11*
%TO.C,D19*%
X34330000Y-68950000D03*
X34330000Y-65750000D03*
X29430000Y-65750000D03*
X29430000Y-68950000D03*
%TD*%
D12*
%TO.C,C19*%
X162139685Y-68830000D03*
X162139685Y-67870000D03*
%TD*%
%TO.C,C2*%
X49880000Y-22698629D03*
X49880000Y-21738629D03*
%TD*%
D13*
%TO.C,D7*%
X191605370Y-79865685D03*
X194805370Y-79865685D03*
X194805370Y-74965685D03*
X191605370Y-74965685D03*
%TD*%
D12*
%TO.C,C3*%
X120011400Y-22698629D03*
X120011400Y-21738629D03*
%TD*%
D14*
%TO.C,J1*%
X41070000Y-133851371D03*
D15*
X41070000Y-136391371D03*
X43610000Y-133851371D03*
X43610000Y-136391371D03*
X46150000Y-133851371D03*
X46150000Y-136391371D03*
X48690000Y-133851371D03*
X48690000Y-136391371D03*
%TD*%
D11*
%TO.C,D21*%
X185589685Y-68950000D03*
X185589685Y-65750000D03*
X180689685Y-65750000D03*
X180689685Y-68950000D03*
%TD*%
%TO.C,D2*%
X47330000Y-22818629D03*
X47330000Y-19618629D03*
X42430000Y-19618629D03*
X42430000Y-22818629D03*
%TD*%
D16*
%TO.C,H1*%
X33380000Y-146381371D03*
X30980000Y-143981371D03*
X33380000Y-141581371D03*
X31682944Y-145678427D03*
X35780000Y-143981371D03*
D17*
X33380000Y-143981371D03*
D16*
X31682944Y-142284315D03*
X35077056Y-142284315D03*
X35077056Y-145678427D03*
%TD*%
D13*
%TO.C,D15*%
X80545715Y-74965686D03*
X77345715Y-74965686D03*
X77345715Y-79865686D03*
X80545715Y-79865686D03*
%TD*%
D11*
%TO.C,D20*%
X229721085Y-68950000D03*
X229721085Y-65750000D03*
X224821085Y-65750000D03*
X224821085Y-68950000D03*
%TD*%
D10*
%TO.C,C17*%
X80425715Y-39284314D03*
X79465715Y-39284314D03*
%TD*%
D16*
%TO.C,H4*%
X215771085Y-133581371D03*
X218171085Y-135981371D03*
X217468141Y-137678427D03*
X217468141Y-134284315D03*
D17*
X215771085Y-135981371D03*
D16*
X213371085Y-135981371D03*
X214074029Y-134284315D03*
X214074029Y-137678427D03*
X215771085Y-138381371D03*
%TD*%
D18*
%TO.C,mouse-bite-2mm-slot*%
X72695700Y-104100000D03*
X74195700Y-104100000D03*
X74195700Y-105600000D03*
X74195700Y-104850000D03*
X72695700Y-105600000D03*
X72695700Y-104850000D03*
%TD*%
D19*
%TO.C,C11*%
X39880000Y-112001371D03*
X39880000Y-112961371D03*
%TD*%
D12*
%TO.C,C3*%
X188139685Y-22698629D03*
X188139685Y-21738629D03*
%TD*%
D11*
%TO.C,D11*%
X224821085Y-111881371D03*
X224821085Y-115081371D03*
X229721085Y-115081371D03*
X229721085Y-111881371D03*
%TD*%
D10*
%TO.C,C18*%
X148554000Y-26284314D03*
X147594000Y-26284314D03*
%TD*%
D19*
%TO.C,C10*%
X52880000Y-112001371D03*
X52880000Y-112961371D03*
%TD*%
D10*
%TO.C,C13*%
X23294315Y-98415686D03*
X22334315Y-98415686D03*
%TD*%
D13*
%TO.C,D7*%
X66345685Y-79865685D03*
X69545685Y-79865685D03*
X69545685Y-74965685D03*
X66345685Y-74965685D03*
%TD*%
D10*
%TO.C,C16*%
X148554000Y-52284314D03*
X147594000Y-52284314D03*
%TD*%
D12*
%TO.C,C21*%
X120011400Y-68830000D03*
X120011400Y-67870000D03*
%TD*%
D10*
%TO.C,C18*%
X23294315Y-26284314D03*
X22334315Y-26284314D03*
%TD*%
D20*
%TO.C,C8*%
X66465685Y-95415685D03*
X67425685Y-95415685D03*
%TD*%
D13*
%TO.C,D6*%
X66345685Y-59734314D03*
X69545685Y-59734314D03*
X69545685Y-54834314D03*
X66345685Y-54834314D03*
%TD*%
D21*
%TO.C,R1*%
X168984685Y-130540000D03*
X170634685Y-130540000D03*
%TD*%
D13*
%TO.C,D5*%
X248736770Y-46734314D03*
X251936770Y-46734314D03*
X251936770Y-41834314D03*
X248736770Y-41834314D03*
%TD*%
D12*
%TO.C,C1*%
X219271085Y-22698629D03*
X219271085Y-21738629D03*
%TD*%
D11*
%TO.C,D1*%
X138527001Y-92015686D03*
X138527001Y-88815686D03*
X133627001Y-88815686D03*
X133627001Y-92015686D03*
%TD*%
%TO.C,D12*%
X154689685Y-111881371D03*
X154689685Y-115081371D03*
X159589685Y-115081371D03*
X159589685Y-111881371D03*
%TD*%
D19*
%TO.C,C12*%
X84011400Y-112001371D03*
X84011400Y-112961371D03*
%TD*%
D13*
%TO.C,D16*%
X80545715Y-54834314D03*
X77345715Y-54834314D03*
X77345715Y-59734314D03*
X80545715Y-59734314D03*
%TD*%
D20*
%TO.C,C9*%
X248856770Y-108415685D03*
X249816770Y-108415685D03*
%TD*%
D10*
%TO.C,C17*%
X23294315Y-39284314D03*
X22334315Y-39284314D03*
%TD*%
%TO.C,C14*%
X205685400Y-85415686D03*
X204725400Y-85415686D03*
%TD*%
D12*
%TO.C,C19*%
X36880000Y-68830000D03*
X36880000Y-67870000D03*
%TD*%
D14*
%TO.C,J1*%
X98201400Y-133851371D03*
D15*
X98201400Y-136391371D03*
X100741400Y-133851371D03*
X100741400Y-136391371D03*
X103281400Y-133851371D03*
X103281400Y-136391371D03*
X105821400Y-133851371D03*
X105821400Y-136391371D03*
%TD*%
D11*
%TO.C,D1*%
X159589685Y-22818629D03*
X159589685Y-19618629D03*
X154689685Y-19618629D03*
X154689685Y-22818629D03*
%TD*%
%TO.C,D11*%
X99561400Y-111881371D03*
X99561400Y-115081371D03*
X104461400Y-115081371D03*
X104461400Y-111881371D03*
%TD*%
D20*
%TO.C,C4*%
X248856770Y-36284314D03*
X249816770Y-36284314D03*
%TD*%
D12*
%TO.C,C19*%
X219271085Y-68830000D03*
X219271085Y-67870000D03*
%TD*%
D16*
%TO.C,H4*%
X90511400Y-138381371D03*
X92911400Y-135981371D03*
D17*
X90511400Y-135981371D03*
D16*
X88111400Y-135981371D03*
X88814344Y-134284315D03*
X90511400Y-133581371D03*
X92208456Y-137678427D03*
X88814344Y-137678427D03*
X92208456Y-134284315D03*
%TD*%
D10*
%TO.C,C15*%
X80425715Y-72415686D03*
X79465715Y-72415686D03*
%TD*%
%TO.C,C18*%
X205685400Y-26284314D03*
X204725400Y-26284314D03*
%TD*%
D20*
%TO.C,C1*%
X137997001Y-93850000D03*
X138957001Y-93850000D03*
%TD*%
D10*
%TO.C,C15*%
X23294315Y-72415686D03*
X22334315Y-72415686D03*
%TD*%
D13*
%TO.C,D9*%
X248736770Y-105865685D03*
X251936770Y-105865685D03*
X251936770Y-100965685D03*
X248736770Y-100965685D03*
%TD*%
D16*
%TO.C,H4*%
X33380000Y-138381371D03*
X35780000Y-135981371D03*
D17*
X33380000Y-135981371D03*
D16*
X30980000Y-135981371D03*
X31682944Y-134284315D03*
X33380000Y-133581371D03*
X35077056Y-137678427D03*
X31682944Y-137678427D03*
X35077056Y-134284315D03*
%TD*%
D14*
%TO.C,J1*%
X166329685Y-133851371D03*
D15*
X166329685Y-136391371D03*
X168869685Y-133851371D03*
X168869685Y-136391371D03*
X171409685Y-133851371D03*
X171409685Y-136391371D03*
X173949685Y-133851371D03*
X173949685Y-136391371D03*
%TD*%
D17*
%TO.C,H1*%
X215771085Y-143981371D03*
D16*
X218171085Y-143981371D03*
X215771085Y-146381371D03*
X214074029Y-145678427D03*
X217468141Y-145678427D03*
X214074029Y-142284315D03*
X217468141Y-142284315D03*
X213371085Y-143981371D03*
X215771085Y-141581371D03*
%TD*%
D13*
%TO.C,D15*%
X23414315Y-74965686D03*
X20214315Y-74965686D03*
X20214315Y-79865686D03*
X23414315Y-79865686D03*
%TD*%
D10*
%TO.C,C14*%
X80425715Y-85415686D03*
X79465715Y-85415686D03*
%TD*%
%TO.C,C13*%
X80425715Y-98415686D03*
X79465715Y-98415686D03*
%TD*%
D11*
%TO.C,D20*%
X172589685Y-68950000D03*
X172589685Y-65750000D03*
X167689685Y-65750000D03*
X167689685Y-68950000D03*
%TD*%
D22*
%TO.C,C22*%
X132797001Y-130550000D03*
X131247001Y-130550000D03*
%TD*%
D18*
%TO.C,mouse-bite-2mm-slot*%
X131327000Y-45150000D03*
X129827000Y-45150000D03*
X129827000Y-43650000D03*
X131327000Y-44400000D03*
X129827000Y-44400000D03*
X131327000Y-43650000D03*
%TD*%
D13*
%TO.C,D14*%
X205805400Y-87965686D03*
X202605400Y-87965686D03*
X202605400Y-92865686D03*
X205805400Y-92865686D03*
%TD*%
D11*
%TO.C,D2*%
X172589685Y-22818629D03*
X172589685Y-19618629D03*
X167689685Y-19618629D03*
X167689685Y-22818629D03*
%TD*%
D10*
%TO.C,C16*%
X23294315Y-52284314D03*
X22334315Y-52284314D03*
%TD*%
D11*
%TO.C,D12*%
X86561400Y-111881371D03*
X86561400Y-115081371D03*
X91461400Y-115081371D03*
X91461400Y-111881371D03*
%TD*%
D13*
%TO.C,D8*%
X123477085Y-92865685D03*
X126677085Y-92865685D03*
X126677085Y-87965685D03*
X123477085Y-87965685D03*
%TD*%
%TO.C,D8*%
X248736770Y-92865685D03*
X251936770Y-92865685D03*
X251936770Y-87965685D03*
X248736770Y-87965685D03*
%TD*%
%TO.C,D6*%
X123477085Y-59734314D03*
X126677085Y-59734314D03*
X126677085Y-54834314D03*
X123477085Y-54834314D03*
%TD*%
%TO.C,D4*%
X66345685Y-33734314D03*
X69545685Y-33734314D03*
X69545685Y-28834314D03*
X66345685Y-28834314D03*
%TD*%
D18*
%TO.C,mouse-bite-2mm-slot*%
X199455385Y-75850000D03*
X199455385Y-75100000D03*
X197955385Y-75100000D03*
X197955385Y-75850000D03*
X199455385Y-76600000D03*
X197955385Y-76600000D03*
%TD*%
%TO.C,mouse-bite-2mm-slot*%
X74195700Y-58850000D03*
X74195700Y-59600000D03*
X74195700Y-58100000D03*
X72695700Y-58100000D03*
X72695700Y-58850000D03*
X72695700Y-59600000D03*
%TD*%
D10*
%TO.C,C14*%
X148554000Y-85415686D03*
X147594000Y-85415686D03*
%TD*%
D19*
%TO.C,C11*%
X165139685Y-112001371D03*
X165139685Y-112961371D03*
%TD*%
D16*
%TO.C,H4*%
X160336741Y-137678427D03*
X156239685Y-135981371D03*
X156942629Y-137678427D03*
X156942629Y-134284315D03*
X161039685Y-135981371D03*
X158639685Y-138381371D03*
X160336741Y-134284315D03*
X158639685Y-133581371D03*
D17*
X158639685Y-135981371D03*
%TD*%
D13*
%TO.C,D16*%
X148674000Y-54834314D03*
X145474000Y-54834314D03*
X145474000Y-59734314D03*
X148674000Y-59734314D03*
%TD*%
D19*
%TO.C,C10*%
X178139685Y-112001371D03*
X178139685Y-112961371D03*
%TD*%
D13*
%TO.C,D9*%
X66345685Y-105865685D03*
X69545685Y-105865685D03*
X69545685Y-100965685D03*
X66345685Y-100965685D03*
%TD*%
%TO.C,D9*%
X191605370Y-105865685D03*
X194805370Y-105865685D03*
X194805370Y-100965685D03*
X191605370Y-100965685D03*
%TD*%
D12*
%TO.C,C2*%
X232271085Y-22698629D03*
X232271085Y-21738629D03*
%TD*%
D16*
%TO.C,H2*%
X240468141Y-142284315D03*
X236371085Y-143981371D03*
D17*
X238771085Y-143981371D03*
D16*
X238771085Y-141581371D03*
X240468141Y-145678427D03*
X238771085Y-146381371D03*
X241171085Y-143981371D03*
X237074029Y-142284315D03*
X237074029Y-145678427D03*
%TD*%
D13*
%TO.C,D17*%
X23414315Y-41834314D03*
X20214315Y-41834314D03*
X20214315Y-46734314D03*
X23414315Y-46734314D03*
%TD*%
D11*
%TO.C,D10*%
X55430000Y-111881371D03*
X55430000Y-115081371D03*
X60330000Y-115081371D03*
X60330000Y-111881371D03*
%TD*%
D16*
%TO.C,H4*%
X126274057Y-134284315D03*
X126977001Y-135981371D03*
D17*
X124577001Y-135981371D03*
D16*
X122177001Y-135981371D03*
X124577001Y-138381371D03*
X126274057Y-137678427D03*
X122879945Y-137678427D03*
X122879945Y-134284315D03*
X124577001Y-133581371D03*
%TD*%
D13*
%TO.C,D8*%
X66345685Y-92865685D03*
X69545685Y-92865685D03*
X69545685Y-87965685D03*
X66345685Y-87965685D03*
%TD*%
D19*
%TO.C,C11*%
X222271085Y-112001371D03*
X222271085Y-112961371D03*
%TD*%
D22*
%TO.C,C22*%
X223991085Y-130550000D03*
X222441085Y-130550000D03*
%TD*%
D21*
%TO.C,R1*%
X134922001Y-130540000D03*
X136572001Y-130540000D03*
%TD*%
D12*
%TO.C,C1*%
X94011400Y-22698629D03*
X94011400Y-21738629D03*
%TD*%
D13*
%TO.C,D6*%
X191605370Y-59734314D03*
X194805370Y-59734314D03*
X194805370Y-54834314D03*
X191605370Y-54834314D03*
%TD*%
D10*
%TO.C,C15*%
X205685400Y-72415686D03*
X204725400Y-72415686D03*
%TD*%
D11*
%TO.C,D12*%
X211821085Y-111881371D03*
X211821085Y-115081371D03*
X216721085Y-115081371D03*
X216721085Y-111881371D03*
%TD*%
D21*
%TO.C,R1*%
X100856400Y-130540000D03*
X102506400Y-130540000D03*
%TD*%
D11*
%TO.C,D2*%
X229721085Y-22818629D03*
X229721085Y-19618629D03*
X224821085Y-19618629D03*
X224821085Y-22818629D03*
%TD*%
D13*
%TO.C,D17*%
X148674000Y-41834314D03*
X145474000Y-41834314D03*
X145474000Y-46734314D03*
X148674000Y-46734314D03*
%TD*%
D16*
%TO.C,H3*%
X236371085Y-135981371D03*
D17*
X238771085Y-135981371D03*
D16*
X237074029Y-137678427D03*
X237074029Y-134284315D03*
X240468141Y-137678427D03*
X240468141Y-134284315D03*
X238771085Y-133581371D03*
X241171085Y-135981371D03*
X238771085Y-138381371D03*
%TD*%
D12*
%TO.C,C20*%
X107011400Y-68830000D03*
X107011400Y-67870000D03*
%TD*%
D11*
%TO.C,D10*%
X180689685Y-111881371D03*
X180689685Y-115081371D03*
X185589685Y-115081371D03*
X185589685Y-111881371D03*
%TD*%
D18*
%TO.C,mouse-bite-2mm-slot*%
X199455385Y-104100000D03*
X199455385Y-105600000D03*
X199455385Y-104850000D03*
X197955385Y-104100000D03*
X197955385Y-104850000D03*
X197955385Y-105600000D03*
%TD*%
D11*
%TO.C,D19*%
X159589685Y-68950000D03*
X159589685Y-65750000D03*
X154689685Y-65750000D03*
X154689685Y-68950000D03*
%TD*%
D20*
%TO.C,C8*%
X191725370Y-95415685D03*
X192685370Y-95415685D03*
%TD*%
D16*
%TO.C,H1*%
X122177001Y-143981371D03*
X126977001Y-143981371D03*
X122879945Y-142284315D03*
X122879945Y-145678427D03*
D17*
X124577001Y-143981371D03*
D16*
X126274057Y-145678427D03*
X124577001Y-146381371D03*
X124577001Y-141581371D03*
X126274057Y-142284315D03*
%TD*%
D12*
%TO.C,C19*%
X94011400Y-68830000D03*
X94011400Y-67870000D03*
%TD*%
D13*
%TO.C,D18*%
X80545715Y-28834314D03*
X77345715Y-28834314D03*
X77345715Y-33734314D03*
X80545715Y-33734314D03*
%TD*%
D12*
%TO.C,C2*%
X175139685Y-22698629D03*
X175139685Y-21738629D03*
%TD*%
D13*
%TO.C,D7*%
X248736770Y-79865685D03*
X251936770Y-79865685D03*
X251936770Y-74965685D03*
X248736770Y-74965685D03*
%TD*%
D19*
%TO.C,C12*%
X152139685Y-112001371D03*
X152139685Y-112961371D03*
%TD*%
D11*
%TO.C,D3*%
X117461400Y-22818629D03*
X117461400Y-19618629D03*
X112561400Y-19618629D03*
X112561400Y-22818629D03*
%TD*%
%TO.C,D21*%
X60330000Y-68950000D03*
X60330000Y-65750000D03*
X55430000Y-65750000D03*
X55430000Y-68950000D03*
%TD*%
%TO.C,D20*%
X104461400Y-68950000D03*
X104461400Y-65750000D03*
X99561400Y-65750000D03*
X99561400Y-68950000D03*
%TD*%
%TO.C,D1*%
X34330000Y-22818629D03*
X34330000Y-19618629D03*
X29430000Y-19618629D03*
X29430000Y-22818629D03*
%TD*%
D13*
%TO.C,D18*%
X205805400Y-28834314D03*
X202605400Y-28834314D03*
X202605400Y-33734314D03*
X205805400Y-33734314D03*
%TD*%
D20*
%TO.C,C4*%
X66465685Y-36284314D03*
X67425685Y-36284314D03*
%TD*%
D11*
%TO.C,D3*%
X185589685Y-22818629D03*
X185589685Y-19618629D03*
X180689685Y-19618629D03*
X180689685Y-22818629D03*
%TD*%
%TO.C,D2*%
X104461400Y-22818629D03*
X104461400Y-19618629D03*
X99561400Y-19618629D03*
X99561400Y-22818629D03*
%TD*%
D12*
%TO.C,C3*%
X245271085Y-22698629D03*
X245271085Y-21738629D03*
%TD*%
D20*
%TO.C,C6*%
X123597085Y-62284314D03*
X124557085Y-62284314D03*
%TD*%
%TO.C,C6*%
X66465685Y-62284314D03*
X67425685Y-62284314D03*
%TD*%
D13*
%TO.C,D5*%
X123477085Y-46734314D03*
X126677085Y-46734314D03*
X126677085Y-41834314D03*
X123477085Y-41834314D03*
%TD*%
%TO.C,D16*%
X23414315Y-54834314D03*
X20214315Y-54834314D03*
X20214315Y-59734314D03*
X23414315Y-59734314D03*
%TD*%
D21*
%TO.C,R1*%
X43725000Y-130540000D03*
X45375000Y-130540000D03*
%TD*%
D13*
%TO.C,D4*%
X248736770Y-33734314D03*
X251936770Y-33734314D03*
X251936770Y-28834314D03*
X248736770Y-28834314D03*
%TD*%
D11*
%TO.C,D11*%
X42430000Y-111881371D03*
X42430000Y-115081371D03*
X47330000Y-115081371D03*
X47330000Y-111881371D03*
%TD*%
D12*
%TO.C,C20*%
X232271085Y-68830000D03*
X232271085Y-67870000D03*
%TD*%
D16*
%TO.C,H1*%
X90511400Y-146381371D03*
X88111400Y-143981371D03*
X90511400Y-141581371D03*
X88814344Y-145678427D03*
X92911400Y-143981371D03*
D17*
X90511400Y-143981371D03*
D16*
X88814344Y-142284315D03*
X92208456Y-142284315D03*
X92208456Y-145678427D03*
%TD*%
D20*
%TO.C,C9*%
X123597085Y-108415685D03*
X124557085Y-108415685D03*
%TD*%
D18*
%TO.C,mouse-bite-2mm-slot*%
X199455385Y-29100000D03*
X197955385Y-29100000D03*
X199455385Y-29850000D03*
X197955385Y-30600000D03*
X197955385Y-29850000D03*
X199455385Y-30600000D03*
%TD*%
D11*
%TO.C,D21*%
X117461400Y-68950000D03*
X117461400Y-65750000D03*
X112561400Y-65750000D03*
X112561400Y-68950000D03*
%TD*%
D13*
%TO.C,D17*%
X205805400Y-41834314D03*
X202605400Y-41834314D03*
X202605400Y-46734314D03*
X205805400Y-46734314D03*
%TD*%
D21*
%TO.C,R1*%
X226116085Y-130540000D03*
X227766085Y-130540000D03*
%TD*%
D11*
%TO.C,D19*%
X91461400Y-68950000D03*
X91461400Y-65750000D03*
X86561400Y-65750000D03*
X86561400Y-68950000D03*
%TD*%
D13*
%TO.C,D14*%
X148674000Y-87965686D03*
X145474000Y-87965686D03*
X145474000Y-92865686D03*
X148674000Y-92865686D03*
%TD*%
D22*
%TO.C,C22*%
X166859685Y-130550000D03*
X165309685Y-130550000D03*
%TD*%
D20*
%TO.C,C5*%
X248856770Y-49284314D03*
X249816770Y-49284314D03*
%TD*%
D12*
%TO.C,C20*%
X175139685Y-68830000D03*
X175139685Y-67870000D03*
%TD*%
D13*
%TO.C,D13*%
X80545715Y-100965686D03*
X77345715Y-100965686D03*
X77345715Y-105865686D03*
X80545715Y-105865686D03*
%TD*%
D19*
%TO.C,C10*%
X235271085Y-112001371D03*
X235271085Y-112961371D03*
%TD*%
D16*
%TO.C,H3*%
X111111400Y-135981371D03*
X113511400Y-138381371D03*
X113511400Y-133581371D03*
X115208456Y-137678427D03*
X111814344Y-134284315D03*
D17*
X113511400Y-135981371D03*
D16*
X115911400Y-135981371D03*
X111814344Y-137678427D03*
X115208456Y-134284315D03*
%TD*%
D19*
%TO.C,C11*%
X97011400Y-112001371D03*
X97011400Y-112961371D03*
%TD*%
D18*
%TO.C,mouse-bite-2mm-slot*%
X72695700Y-75100000D03*
X74195700Y-75100000D03*
X72695700Y-76600000D03*
X74195700Y-76600000D03*
X72695700Y-75850000D03*
X74195700Y-75850000D03*
%TD*%
D20*
%TO.C,C7*%
X123597085Y-82415685D03*
X124557085Y-82415685D03*
%TD*%
D16*
%TO.C,H2*%
X183336741Y-145678427D03*
X179942629Y-145678427D03*
X181639685Y-141581371D03*
X183336741Y-142284315D03*
X179239685Y-143981371D03*
X179942629Y-142284315D03*
X184039685Y-143981371D03*
D17*
X181639685Y-143981371D03*
D16*
X181639685Y-146381371D03*
%TD*%
D10*
%TO.C,C16*%
X205685400Y-52284314D03*
X204725400Y-52284314D03*
%TD*%
%TO.C,C13*%
X148554000Y-98415686D03*
X147594000Y-98415686D03*
%TD*%
%TO.C,C16*%
X80425715Y-52284314D03*
X79465715Y-52284314D03*
%TD*%
%TO.C,C18*%
X80425715Y-26284314D03*
X79465715Y-26284314D03*
%TD*%
D16*
%TO.C,H1*%
X156239685Y-143981371D03*
X156942629Y-142284315D03*
D17*
X158639685Y-143981371D03*
D16*
X156942629Y-145678427D03*
X158639685Y-146381371D03*
X160336741Y-145678427D03*
X158639685Y-141581371D03*
X161039685Y-143981371D03*
X160336741Y-142284315D03*
%TD*%
%TO.C,H3*%
X179239685Y-135981371D03*
X183336741Y-137678427D03*
X181639685Y-138381371D03*
X184039685Y-135981371D03*
D17*
X181639685Y-135981371D03*
D16*
X179942629Y-137678427D03*
X181639685Y-133581371D03*
X179942629Y-134284315D03*
X183336741Y-134284315D03*
%TD*%
D10*
%TO.C,C15*%
X148554000Y-72415686D03*
X147594000Y-72415686D03*
%TD*%
D20*
%TO.C,C5*%
X191725370Y-49284314D03*
X192685370Y-49284314D03*
%TD*%
D13*
%TO.C,D7*%
X123477085Y-79865685D03*
X126677085Y-79865685D03*
X126677085Y-74965685D03*
X123477085Y-74965685D03*
%TD*%
D12*
%TO.C,C3*%
X62880000Y-22698629D03*
X62880000Y-21738629D03*
%TD*%
D11*
%TO.C,D1*%
X91461400Y-22818629D03*
X91461400Y-19618629D03*
X86561400Y-19618629D03*
X86561400Y-22818629D03*
%TD*%
D13*
%TO.C,D4*%
X191605370Y-33734314D03*
X194805370Y-33734314D03*
X194805370Y-28834314D03*
X191605370Y-28834314D03*
%TD*%
D19*
%TO.C,C12*%
X209271085Y-112001371D03*
X209271085Y-112961371D03*
%TD*%
D13*
%TO.C,D18*%
X148674000Y-28834314D03*
X145474000Y-28834314D03*
X145474000Y-33734314D03*
X148674000Y-33734314D03*
%TD*%
%TO.C,D15*%
X148674000Y-74965686D03*
X145474000Y-74965686D03*
X145474000Y-79865686D03*
X148674000Y-79865686D03*
%TD*%
D20*
%TO.C,C4*%
X191725370Y-36284314D03*
X192685370Y-36284314D03*
%TD*%
%TO.C,C2*%
X138197001Y-47750000D03*
X139157001Y-47750000D03*
%TD*%
%TO.C,C9*%
X66465685Y-108415685D03*
X67425685Y-108415685D03*
%TD*%
D18*
%TO.C,mouse-bite-2mm-slot*%
X74195700Y-30600000D03*
X72695700Y-29100000D03*
X72695700Y-29850000D03*
X74195700Y-29850000D03*
X72695700Y-30600000D03*
X74195700Y-29100000D03*
%TD*%
D13*
%TO.C,D18*%
X23414315Y-28834314D03*
X20214315Y-28834314D03*
X20214315Y-33734314D03*
X23414315Y-33734314D03*
%TD*%
D20*
%TO.C,C6*%
X191725370Y-62284314D03*
X192685370Y-62284314D03*
%TD*%
%TO.C,C6*%
X248856770Y-62284314D03*
X249816770Y-62284314D03*
%TD*%
D12*
%TO.C,C1*%
X36880000Y-22698629D03*
X36880000Y-21738629D03*
%TD*%
D18*
%TO.C,mouse-bite-2mm-slot*%
X129825000Y-90388000D03*
X129825000Y-91138000D03*
X131325000Y-91138000D03*
X131325000Y-90388000D03*
X129825000Y-91888000D03*
X131325000Y-91888000D03*
%TD*%
D16*
%TO.C,H3*%
X53980000Y-135981371D03*
X56380000Y-138381371D03*
X56380000Y-133581371D03*
X58077056Y-137678427D03*
X54682944Y-134284315D03*
D17*
X56380000Y-135981371D03*
D16*
X58780000Y-135981371D03*
X54682944Y-137678427D03*
X58077056Y-134284315D03*
%TD*%
D11*
%TO.C,D19*%
X216721085Y-68950000D03*
X216721085Y-65750000D03*
X211821085Y-65750000D03*
X211821085Y-68950000D03*
%TD*%
D13*
%TO.C,D4*%
X123477085Y-33734314D03*
X126677085Y-33734314D03*
X126677085Y-28834314D03*
X123477085Y-28834314D03*
%TD*%
D12*
%TO.C,C20*%
X49880000Y-68830000D03*
X49880000Y-67870000D03*
%TD*%
D20*
%TO.C,C4*%
X123597085Y-36284314D03*
X124557085Y-36284314D03*
%TD*%
D11*
%TO.C,D21*%
X242721085Y-68950000D03*
X242721085Y-65750000D03*
X237821085Y-65750000D03*
X237821085Y-68950000D03*
%TD*%
%TO.C,D3*%
X242721085Y-22818629D03*
X242721085Y-19618629D03*
X237821085Y-19618629D03*
X237821085Y-22818629D03*
%TD*%
D13*
%TO.C,D5*%
X191605370Y-46734314D03*
X194805370Y-46734314D03*
X194805370Y-41834314D03*
X191605370Y-41834314D03*
%TD*%
%TO.C,D13*%
X23414315Y-100965686D03*
X20214315Y-100965686D03*
X20214315Y-105865686D03*
X23414315Y-105865686D03*
%TD*%
D11*
%TO.C,D10*%
X112561400Y-111881371D03*
X112561400Y-115081371D03*
X117461400Y-115081371D03*
X117461400Y-111881371D03*
%TD*%
%TO.C,D20*%
X47330000Y-68950000D03*
X47330000Y-65750000D03*
X42430000Y-65750000D03*
X42430000Y-68950000D03*
%TD*%
D12*
%TO.C,C21*%
X62880000Y-68830000D03*
X62880000Y-67870000D03*
%TD*%
D20*
%TO.C,C8*%
X248856770Y-95415685D03*
X249816770Y-95415685D03*
%TD*%
D18*
%TO.C,mouse-bite-2mm-slot*%
X140825000Y-90388000D03*
X140825000Y-91138000D03*
X142325000Y-91138000D03*
X142325000Y-90388000D03*
X140825000Y-91888000D03*
X142325000Y-91888000D03*
%TD*%
D13*
%TO.C,D8*%
X191605370Y-92865685D03*
X194805370Y-92865685D03*
X194805370Y-87965685D03*
X191605370Y-87965685D03*
%TD*%
D18*
%TO.C,mouse-bite-2mm-slot*%
X142327000Y-45150000D03*
X140827000Y-45150000D03*
X140827000Y-43650000D03*
X142327000Y-44400000D03*
X140827000Y-44400000D03*
X142327000Y-43650000D03*
%TD*%
D12*
%TO.C,C1*%
X162139685Y-22698629D03*
X162139685Y-21738629D03*
%TD*%
D16*
%TO.C,H2*%
X145879945Y-145678427D03*
X147577001Y-141581371D03*
X149977001Y-143981371D03*
D17*
X147577001Y-143981371D03*
D16*
X145177001Y-143981371D03*
X147577001Y-146381371D03*
X149274057Y-145678427D03*
X145879945Y-142284315D03*
X149274057Y-142284315D03*
%TD*%
%TO.C,H2*%
X115208456Y-145678427D03*
X115208456Y-142284315D03*
X111111400Y-143981371D03*
X111814344Y-145678427D03*
X113511400Y-141581371D03*
X115911400Y-143981371D03*
X111814344Y-142284315D03*
X113511400Y-146381371D03*
D17*
X113511400Y-143981371D03*
%TD*%
D13*
%TO.C,D14*%
X23414315Y-87965686D03*
X20214315Y-87965686D03*
X20214315Y-92865686D03*
X23414315Y-92865686D03*
%TD*%
D10*
%TO.C,C17*%
X205685400Y-39284314D03*
X204725400Y-39284314D03*
%TD*%
D11*
%TO.C,D12*%
X29430000Y-111881371D03*
X29430000Y-115081371D03*
X34330000Y-115081371D03*
X34330000Y-111881371D03*
%TD*%
D20*
%TO.C,C8*%
X123597085Y-95415685D03*
X124557085Y-95415685D03*
%TD*%
D11*
%TO.C,D11*%
X167689685Y-111881371D03*
X167689685Y-115081371D03*
X172589685Y-115081371D03*
X172589685Y-111881371D03*
%TD*%
D20*
%TO.C,C7*%
X191725370Y-82415685D03*
X192685370Y-82415685D03*
%TD*%
D11*
%TO.C,D2*%
X138527001Y-45884314D03*
X138527001Y-42684314D03*
X133627001Y-42684314D03*
X133627001Y-45884314D03*
%TD*%
D20*
%TO.C,C7*%
X66465685Y-82415685D03*
X67425685Y-82415685D03*
%TD*%
D10*
%TO.C,C14*%
X23294315Y-85415686D03*
X22334315Y-85415686D03*
%TD*%
D12*
%TO.C,C21*%
X245271085Y-68830000D03*
X245271085Y-67870000D03*
%TD*%
D13*
%TO.C,D17*%
X80545715Y-41834314D03*
X77345715Y-41834314D03*
X77345715Y-46734314D03*
X80545715Y-46734314D03*
%TD*%
D20*
%TO.C,C5*%
X123597085Y-49284314D03*
X124557085Y-49284314D03*
%TD*%
D12*
%TO.C,C2*%
X107011400Y-22698629D03*
X107011400Y-21738629D03*
%TD*%
D16*
%TO.C,H3*%
X145177001Y-135981371D03*
X147577001Y-133581371D03*
X149977001Y-135981371D03*
D17*
X147577001Y-135981371D03*
D16*
X149274057Y-134284315D03*
X147577001Y-138381371D03*
X145879945Y-137678427D03*
X145879945Y-134284315D03*
X149274057Y-137678427D03*
%TD*%
D22*
%TO.C,C22*%
X41600000Y-130550000D03*
X40050000Y-130550000D03*
%TD*%
%TO.C,C22*%
X98731400Y-130550000D03*
X97181400Y-130550000D03*
%TD*%
D13*
%TO.C,D5*%
X66345685Y-46734314D03*
X69545685Y-46734314D03*
X69545685Y-41834314D03*
X66345685Y-41834314D03*
%TD*%
%TO.C,D6*%
X248736770Y-59734314D03*
X251936770Y-59734314D03*
X251936770Y-54834314D03*
X248736770Y-54834314D03*
%TD*%
%TO.C,D14*%
X80545715Y-87965686D03*
X77345715Y-87965686D03*
X77345715Y-92865686D03*
X80545715Y-92865686D03*
%TD*%
D20*
%TO.C,C7*%
X248856770Y-82415685D03*
X249816770Y-82415685D03*
%TD*%
D12*
%TO.C,C21*%
X188139685Y-68830000D03*
X188139685Y-67870000D03*
%TD*%
D19*
%TO.C,C12*%
X26880000Y-112001371D03*
X26880000Y-112961371D03*
%TD*%
D13*
%TO.C,D13*%
X205805400Y-100965686D03*
X202605400Y-100965686D03*
X202605400Y-105865686D03*
X205805400Y-105865686D03*
%TD*%
D11*
%TO.C,D1*%
X216721085Y-22818629D03*
X216721085Y-19618629D03*
X211821085Y-19618629D03*
X211821085Y-22818629D03*
%TD*%
%TO.C,D10*%
X237821085Y-111881371D03*
X237821085Y-115081371D03*
X242721085Y-115081371D03*
X242721085Y-111881371D03*
%TD*%
D10*
%TO.C,C13*%
X205685400Y-98415686D03*
X204725400Y-98415686D03*
%TD*%
D11*
%TO.C,D3*%
X60330000Y-22818629D03*
X60330000Y-19618629D03*
X55430000Y-19618629D03*
X55430000Y-22818629D03*
%TD*%
D20*
%TO.C,C9*%
X191725370Y-108415685D03*
X192685370Y-108415685D03*
%TD*%
D13*
%TO.C,D9*%
X123477085Y-105865685D03*
X126677085Y-105865685D03*
X126677085Y-100965685D03*
X123477085Y-100965685D03*
%TD*%
D14*
%TO.C,J1*%
X132267001Y-133851371D03*
D15*
X132267001Y-136391371D03*
X134807001Y-133851371D03*
X134807001Y-136391371D03*
X137347001Y-133851371D03*
X137347001Y-136391371D03*
X139887001Y-133851371D03*
X139887001Y-136391371D03*
%TD*%
D13*
%TO.C,D13*%
X148674000Y-100965686D03*
X145474000Y-100965686D03*
X145474000Y-105865686D03*
X148674000Y-105865686D03*
%TD*%
D16*
%TO.C,H2*%
X58077056Y-145678427D03*
X58077056Y-142284315D03*
X53980000Y-143981371D03*
X54682944Y-145678427D03*
X56380000Y-141581371D03*
X58780000Y-143981371D03*
X54682944Y-142284315D03*
X56380000Y-146381371D03*
D17*
X56380000Y-143981371D03*
%TD*%
D18*
%TO.C,mouse-bite-2mm-slot*%
X199455385Y-58100000D03*
X199455385Y-59600000D03*
X197955385Y-58850000D03*
X199455385Y-58850000D03*
X197955385Y-58100000D03*
X197955385Y-59600000D03*
%TD*%
D14*
%TO.C,J1*%
X223461085Y-133851371D03*
D15*
X223461085Y-136391371D03*
X226001085Y-133851371D03*
X226001085Y-136391371D03*
X228541085Y-133851371D03*
X228541085Y-136391371D03*
X231081085Y-133851371D03*
X231081085Y-136391371D03*
%TD*%
D19*
%TO.C,C10*%
X110011400Y-112001371D03*
X110011400Y-112961371D03*
%TD*%
D13*
%TO.C,D16*%
X205805400Y-54834314D03*
X202605400Y-54834314D03*
X202605400Y-59734314D03*
X205805400Y-59734314D03*
%TD*%
%TO.C,D15*%
X205805400Y-74965686D03*
X202605400Y-74965686D03*
X202605400Y-79865686D03*
X205805400Y-79865686D03*
%TD*%
D20*
%TO.C,C5*%
X66465685Y-49284314D03*
X67425685Y-49284314D03*
%TD*%
M02*
