%TF.GenerationSoftware,KiCad,Pcbnew,(6.0.1)*%
%TF.CreationDate,2022-01-22T16:29:32+01:00*%
%TF.ProjectId,Four segments and colon,466f7572-2073-4656-976d-656e74732061,rev?*%
%TF.SameCoordinates,Original*%
%TF.FileFunction,Soldermask,Bot*%
%TF.FilePolarity,Negative*%
%FSLAX46Y46*%
G04 Gerber Fmt 4.6, Leading zero omitted, Abs format (unit mm)*
G04 Created by KiCad (PCBNEW (6.0.1)) date 2022-01-22 16:29:32*
%MOMM*%
%LPD*%
G01*
G04 APERTURE LIST*
%ADD10R,1.700000X1.700000*%
%ADD11O,1.700000X1.700000*%
%ADD12C,0.800000*%
%ADD13C,6.400000*%
%ADD14C,0.500000*%
G04 APERTURE END LIST*
D10*
%TO.C,J1*%
X41070000Y-133851371D03*
D11*
X41070000Y-136391371D03*
X43610000Y-133851371D03*
X43610000Y-136391371D03*
X46150000Y-133851371D03*
X46150000Y-136391371D03*
X48690000Y-133851371D03*
X48690000Y-136391371D03*
%TD*%
D12*
%TO.C,H1*%
X33380000Y-146381371D03*
X30980000Y-143981371D03*
X33380000Y-141581371D03*
X31682944Y-145678427D03*
X35780000Y-143981371D03*
D13*
X33380000Y-143981371D03*
D12*
X31682944Y-142284315D03*
X35077056Y-142284315D03*
X35077056Y-145678427D03*
%TD*%
%TO.C,H4*%
X215771085Y-133581371D03*
X218171085Y-135981371D03*
X217468141Y-137678427D03*
X217468141Y-134284315D03*
D13*
X215771085Y-135981371D03*
D12*
X213371085Y-135981371D03*
X214074029Y-134284315D03*
X214074029Y-137678427D03*
X215771085Y-138381371D03*
%TD*%
D14*
%TO.C,mouse-bite-2mm-slot*%
X72695700Y-104100000D03*
X74195700Y-104100000D03*
X74195700Y-105600000D03*
X74195700Y-104850000D03*
X72695700Y-105600000D03*
X72695700Y-104850000D03*
%TD*%
D10*
%TO.C,J1*%
X98201400Y-133851371D03*
D11*
X98201400Y-136391371D03*
X100741400Y-133851371D03*
X100741400Y-136391371D03*
X103281400Y-133851371D03*
X103281400Y-136391371D03*
X105821400Y-133851371D03*
X105821400Y-136391371D03*
%TD*%
D12*
%TO.C,H4*%
X90511400Y-138381371D03*
X92911400Y-135981371D03*
D13*
X90511400Y-135981371D03*
D12*
X88111400Y-135981371D03*
X88814344Y-134284315D03*
X90511400Y-133581371D03*
X92208456Y-137678427D03*
X88814344Y-137678427D03*
X92208456Y-134284315D03*
%TD*%
%TO.C,H4*%
X33380000Y-138381371D03*
X35780000Y-135981371D03*
D13*
X33380000Y-135981371D03*
D12*
X30980000Y-135981371D03*
X31682944Y-134284315D03*
X33380000Y-133581371D03*
X35077056Y-137678427D03*
X31682944Y-137678427D03*
X35077056Y-134284315D03*
%TD*%
D10*
%TO.C,J1*%
X166329685Y-133851371D03*
D11*
X166329685Y-136391371D03*
X168869685Y-133851371D03*
X168869685Y-136391371D03*
X171409685Y-133851371D03*
X171409685Y-136391371D03*
X173949685Y-133851371D03*
X173949685Y-136391371D03*
%TD*%
D13*
%TO.C,H1*%
X215771085Y-143981371D03*
D12*
X218171085Y-143981371D03*
X215771085Y-146381371D03*
X214074029Y-145678427D03*
X217468141Y-145678427D03*
X214074029Y-142284315D03*
X217468141Y-142284315D03*
X213371085Y-143981371D03*
X215771085Y-141581371D03*
%TD*%
D14*
%TO.C,mouse-bite-2mm-slot*%
X131327000Y-45150000D03*
X129827000Y-45150000D03*
X129827000Y-43650000D03*
X131327000Y-44400000D03*
X129827000Y-44400000D03*
X131327000Y-43650000D03*
%TD*%
%TO.C,mouse-bite-2mm-slot*%
X199455385Y-75850000D03*
X199455385Y-75100000D03*
X197955385Y-75100000D03*
X197955385Y-75850000D03*
X199455385Y-76600000D03*
X197955385Y-76600000D03*
%TD*%
%TO.C,mouse-bite-2mm-slot*%
X74195700Y-58850000D03*
X74195700Y-59600000D03*
X74195700Y-58100000D03*
X72695700Y-58100000D03*
X72695700Y-58850000D03*
X72695700Y-59600000D03*
%TD*%
D12*
%TO.C,H4*%
X160336741Y-137678427D03*
X156239685Y-135981371D03*
X156942629Y-137678427D03*
X156942629Y-134284315D03*
X161039685Y-135981371D03*
X158639685Y-138381371D03*
X160336741Y-134284315D03*
X158639685Y-133581371D03*
D13*
X158639685Y-135981371D03*
%TD*%
D12*
%TO.C,H2*%
X240468141Y-142284315D03*
X236371085Y-143981371D03*
D13*
X238771085Y-143981371D03*
D12*
X238771085Y-141581371D03*
X240468141Y-145678427D03*
X238771085Y-146381371D03*
X241171085Y-143981371D03*
X237074029Y-142284315D03*
X237074029Y-145678427D03*
%TD*%
%TO.C,H4*%
X126274057Y-134284315D03*
X126977001Y-135981371D03*
D13*
X124577001Y-135981371D03*
D12*
X122177001Y-135981371D03*
X124577001Y-138381371D03*
X126274057Y-137678427D03*
X122879945Y-137678427D03*
X122879945Y-134284315D03*
X124577001Y-133581371D03*
%TD*%
%TO.C,H3*%
X236371085Y-135981371D03*
D13*
X238771085Y-135981371D03*
D12*
X237074029Y-137678427D03*
X237074029Y-134284315D03*
X240468141Y-137678427D03*
X240468141Y-134284315D03*
X238771085Y-133581371D03*
X241171085Y-135981371D03*
X238771085Y-138381371D03*
%TD*%
D14*
%TO.C,mouse-bite-2mm-slot*%
X199455385Y-104100000D03*
X199455385Y-105600000D03*
X199455385Y-104850000D03*
X197955385Y-104100000D03*
X197955385Y-104850000D03*
X197955385Y-105600000D03*
%TD*%
D12*
%TO.C,H1*%
X122177001Y-143981371D03*
X126977001Y-143981371D03*
X122879945Y-142284315D03*
X122879945Y-145678427D03*
D13*
X124577001Y-143981371D03*
D12*
X126274057Y-145678427D03*
X124577001Y-146381371D03*
X124577001Y-141581371D03*
X126274057Y-142284315D03*
%TD*%
%TO.C,H1*%
X90511400Y-146381371D03*
X88111400Y-143981371D03*
X90511400Y-141581371D03*
X88814344Y-145678427D03*
X92911400Y-143981371D03*
D13*
X90511400Y-143981371D03*
D12*
X88814344Y-142284315D03*
X92208456Y-142284315D03*
X92208456Y-145678427D03*
%TD*%
D14*
%TO.C,mouse-bite-2mm-slot*%
X199455385Y-29100000D03*
X197955385Y-29100000D03*
X199455385Y-29850000D03*
X197955385Y-30600000D03*
X197955385Y-29850000D03*
X199455385Y-30600000D03*
%TD*%
D12*
%TO.C,H3*%
X111111400Y-135981371D03*
X113511400Y-138381371D03*
X113511400Y-133581371D03*
X115208456Y-137678427D03*
X111814344Y-134284315D03*
D13*
X113511400Y-135981371D03*
D12*
X115911400Y-135981371D03*
X111814344Y-137678427D03*
X115208456Y-134284315D03*
%TD*%
D14*
%TO.C,mouse-bite-2mm-slot*%
X72695700Y-75100000D03*
X74195700Y-75100000D03*
X72695700Y-76600000D03*
X74195700Y-76600000D03*
X72695700Y-75850000D03*
X74195700Y-75850000D03*
%TD*%
D12*
%TO.C,H2*%
X183336741Y-145678427D03*
X179942629Y-145678427D03*
X181639685Y-141581371D03*
X183336741Y-142284315D03*
X179239685Y-143981371D03*
X179942629Y-142284315D03*
X184039685Y-143981371D03*
D13*
X181639685Y-143981371D03*
D12*
X181639685Y-146381371D03*
%TD*%
%TO.C,H1*%
X156239685Y-143981371D03*
X156942629Y-142284315D03*
D13*
X158639685Y-143981371D03*
D12*
X156942629Y-145678427D03*
X158639685Y-146381371D03*
X160336741Y-145678427D03*
X158639685Y-141581371D03*
X161039685Y-143981371D03*
X160336741Y-142284315D03*
%TD*%
%TO.C,H3*%
X179239685Y-135981371D03*
X183336741Y-137678427D03*
X181639685Y-138381371D03*
X184039685Y-135981371D03*
D13*
X181639685Y-135981371D03*
D12*
X179942629Y-137678427D03*
X181639685Y-133581371D03*
X179942629Y-134284315D03*
X183336741Y-134284315D03*
%TD*%
D14*
%TO.C,mouse-bite-2mm-slot*%
X74195700Y-30600000D03*
X72695700Y-29100000D03*
X72695700Y-29850000D03*
X74195700Y-29850000D03*
X72695700Y-30600000D03*
X74195700Y-29100000D03*
%TD*%
%TO.C,mouse-bite-2mm-slot*%
X129825000Y-90388000D03*
X129825000Y-91138000D03*
X131325000Y-91138000D03*
X131325000Y-90388000D03*
X129825000Y-91888000D03*
X131325000Y-91888000D03*
%TD*%
D12*
%TO.C,H3*%
X53980000Y-135981371D03*
X56380000Y-138381371D03*
X56380000Y-133581371D03*
X58077056Y-137678427D03*
X54682944Y-134284315D03*
D13*
X56380000Y-135981371D03*
D12*
X58780000Y-135981371D03*
X54682944Y-137678427D03*
X58077056Y-134284315D03*
%TD*%
D14*
%TO.C,mouse-bite-2mm-slot*%
X140825000Y-90388000D03*
X140825000Y-91138000D03*
X142325000Y-91138000D03*
X142325000Y-90388000D03*
X140825000Y-91888000D03*
X142325000Y-91888000D03*
%TD*%
%TO.C,mouse-bite-2mm-slot*%
X142327000Y-45150000D03*
X140827000Y-45150000D03*
X140827000Y-43650000D03*
X142327000Y-44400000D03*
X140827000Y-44400000D03*
X142327000Y-43650000D03*
%TD*%
D12*
%TO.C,H2*%
X145879945Y-145678427D03*
X147577001Y-141581371D03*
X149977001Y-143981371D03*
D13*
X147577001Y-143981371D03*
D12*
X145177001Y-143981371D03*
X147577001Y-146381371D03*
X149274057Y-145678427D03*
X145879945Y-142284315D03*
X149274057Y-142284315D03*
%TD*%
%TO.C,H2*%
X115208456Y-145678427D03*
X115208456Y-142284315D03*
X111111400Y-143981371D03*
X111814344Y-145678427D03*
X113511400Y-141581371D03*
X115911400Y-143981371D03*
X111814344Y-142284315D03*
X113511400Y-146381371D03*
D13*
X113511400Y-143981371D03*
%TD*%
D12*
%TO.C,H3*%
X145177001Y-135981371D03*
X147577001Y-133581371D03*
X149977001Y-135981371D03*
D13*
X147577001Y-135981371D03*
D12*
X149274057Y-134284315D03*
X147577001Y-138381371D03*
X145879945Y-137678427D03*
X145879945Y-134284315D03*
X149274057Y-137678427D03*
%TD*%
D10*
%TO.C,J1*%
X132267001Y-133851371D03*
D11*
X132267001Y-136391371D03*
X134807001Y-133851371D03*
X134807001Y-136391371D03*
X137347001Y-133851371D03*
X137347001Y-136391371D03*
X139887001Y-133851371D03*
X139887001Y-136391371D03*
%TD*%
D12*
%TO.C,H2*%
X58077056Y-145678427D03*
X58077056Y-142284315D03*
X53980000Y-143981371D03*
X54682944Y-145678427D03*
X56380000Y-141581371D03*
X58780000Y-143981371D03*
X54682944Y-142284315D03*
X56380000Y-146381371D03*
D13*
X56380000Y-143981371D03*
%TD*%
D14*
%TO.C,mouse-bite-2mm-slot*%
X199455385Y-58100000D03*
X199455385Y-59600000D03*
X197955385Y-58850000D03*
X199455385Y-58850000D03*
X197955385Y-58100000D03*
X197955385Y-59600000D03*
%TD*%
D10*
%TO.C,J1*%
X223461085Y-133851371D03*
D11*
X223461085Y-136391371D03*
X226001085Y-133851371D03*
X226001085Y-136391371D03*
X228541085Y-133851371D03*
X228541085Y-136391371D03*
X231081085Y-133851371D03*
X231081085Y-136391371D03*
%TD*%
M02*
