%TF.GenerationSoftware,KiCad,Pcbnew,(6.0.1)*%
%TF.CreationDate,2022-01-22T16:29:32+01:00*%
%TF.ProjectId,Four segments and colon,466f7572-2073-4656-976d-656e74732061,rev?*%
%TF.SameCoordinates,Original*%
%TF.FileFunction,Profile,NP*%
%FSLAX46Y46*%
G04 Gerber Fmt 4.6, Leading zero omitted, Abs format (unit mm)*
G04 Created by KiCad (PCBNEW (6.0.1)) date 2022-01-22 16:29:32*
%MOMM*%
%LPD*%
G01*
G04 APERTURE LIST*
%TA.AperFunction,Profile*%
%ADD10C,0.100000*%
%TD*%
%TA.AperFunction,Profile*%
%ADD11C,0.050000*%
%TD*%
G04 APERTURE END LIST*
D10*
X120577085Y-62850000D02*
X83445715Y-62850000D01*
X79794243Y-67350000D02*
X74445715Y-62001472D01*
X17314315Y-62001472D02*
X17314315Y-26567157D01*
X244988242Y-117981371D02*
X254836770Y-108132843D01*
X121077001Y-129381371D02*
X121077001Y-148981371D01*
X124228557Y-67350000D02*
X129577085Y-72698528D01*
X63445685Y-108981371D02*
X26314315Y-108981371D01*
D11*
X72445700Y-60850000D02*
X72445685Y-62001472D01*
D10*
X83445715Y-71850000D02*
X83445715Y-108981371D01*
X192356842Y-67350000D02*
X197705370Y-72698528D01*
X205053928Y-67350000D02*
X199705400Y-62001472D01*
X249488242Y-67350000D02*
X254836770Y-72698528D01*
X134077000Y-85915685D02*
X131577000Y-85915685D01*
X121077001Y-129381371D02*
X134077000Y-129381371D01*
X140577001Y-94915685D02*
X138077001Y-94915685D01*
X188705370Y-25718629D02*
X151574000Y-25718629D01*
X147922528Y-67350000D02*
X142574000Y-72698528D01*
D11*
X131575000Y-93138000D02*
X131577000Y-94915686D01*
D10*
X129577085Y-26567157D02*
X119728557Y-16718629D01*
D11*
X199705400Y-62001472D02*
X199705385Y-60850000D01*
D10*
X121077001Y-148981371D02*
X151077001Y-148981371D01*
X27162843Y-16718629D02*
X62597157Y-16718629D01*
D11*
X140577001Y-94915685D02*
X140575000Y-93138000D01*
D10*
X84294243Y-16718629D02*
X119728557Y-16718629D01*
X151077001Y-129381371D02*
X151077001Y-148981371D01*
X245836770Y-71850000D02*
X208705400Y-71850000D01*
X209553928Y-16718629D02*
X199705400Y-26567157D01*
D11*
X140577001Y-48784315D02*
X140577000Y-46400000D01*
D10*
X59880000Y-148981371D02*
X59880000Y-117981371D01*
X205053928Y-67350000D02*
X199705400Y-72698528D01*
D11*
X142574000Y-26567157D02*
X142577000Y-42400000D01*
D10*
X199705400Y-108132843D02*
X209553928Y-117981371D01*
X22662843Y-67350000D02*
X17314315Y-72698528D01*
D11*
X254836685Y-42400000D02*
X254836770Y-26567157D01*
X142574000Y-62001472D02*
X142577000Y-46400000D01*
D10*
X151574000Y-62850000D02*
X151574000Y-25718629D01*
D11*
X72445685Y-26567157D02*
X72445700Y-27850000D01*
X254834685Y-89138000D02*
X254836770Y-72698528D01*
X72445700Y-77850000D02*
X72445700Y-102850000D01*
X140577001Y-85915685D02*
X140575000Y-89138000D01*
X131577000Y-46400000D02*
X131577000Y-48784315D01*
D10*
X74445715Y-108132843D02*
X84294243Y-117981371D01*
X151077001Y-129381371D02*
X138077001Y-129381371D01*
X120577085Y-71850000D02*
X83445715Y-71850000D01*
X140577001Y-39784315D02*
X131577000Y-39784315D01*
X134077000Y-129381371D02*
X134077000Y-94915686D01*
X84294243Y-117981371D02*
X87011400Y-117981371D01*
X63445685Y-71850000D02*
X63445685Y-108981371D01*
X63445685Y-62850000D02*
X63445685Y-25718629D01*
X27162843Y-117981371D02*
X29880000Y-117981371D01*
X134077000Y-48784315D02*
X131577000Y-48784315D01*
X212271085Y-148981371D02*
X212271085Y-117981371D01*
X245836770Y-108981371D02*
X208705400Y-108981371D01*
D11*
X74445715Y-108132843D02*
X74445700Y-106850000D01*
D10*
X140577001Y-48784315D02*
X138077001Y-48784315D01*
X22662843Y-67350000D02*
X17314315Y-62001472D01*
D11*
X129577000Y-42400000D02*
X129577085Y-26567157D01*
D10*
X117011400Y-117981371D02*
X119728557Y-117981371D01*
D11*
X131577000Y-42400000D02*
X131577000Y-39784315D01*
D10*
X188705370Y-71850000D02*
X151574000Y-71850000D01*
D11*
X254834685Y-89138000D02*
X254834685Y-93138000D01*
D10*
X151574000Y-71850000D02*
X151574000Y-108981371D01*
X155139685Y-148981371D02*
X155139685Y-117981371D01*
X152422528Y-16718629D02*
X142574000Y-26567157D01*
X245836770Y-62850000D02*
X208705400Y-62850000D01*
D11*
X142574000Y-72698528D02*
X142575000Y-89138000D01*
X74445700Y-27850000D02*
X74445715Y-26567157D01*
D10*
X124228557Y-67350000D02*
X129577085Y-62001472D01*
X84294243Y-16718629D02*
X74445715Y-26567157D01*
D11*
X254836685Y-42400000D02*
X254836685Y-46400000D01*
D10*
X245836770Y-62850000D02*
X245836770Y-25718629D01*
X29880000Y-148981371D02*
X59880000Y-148981371D01*
X188705370Y-71850000D02*
X188705370Y-108981371D01*
X83445715Y-62850000D02*
X83445715Y-25718629D01*
X242271085Y-148981371D02*
X242271085Y-117981371D01*
D11*
X131577000Y-85915685D02*
X131575000Y-89138000D01*
D10*
X155139685Y-148981371D02*
X185139685Y-148981371D01*
X27162843Y-16718629D02*
X17314315Y-26567157D01*
X208705400Y-71850000D02*
X208705400Y-108981371D01*
D11*
X140577001Y-39784315D02*
X140577000Y-42400000D01*
D10*
X249488242Y-67350000D02*
X254836770Y-62001472D01*
X187856842Y-117981371D02*
X197705370Y-108132843D01*
X134077000Y-94915686D02*
X131577000Y-94915686D01*
X67097157Y-67350000D02*
X72445685Y-62001472D01*
D11*
X74445715Y-62001472D02*
X74445700Y-60850000D01*
D10*
X188705370Y-62850000D02*
X151574000Y-62850000D01*
X63445685Y-25718629D02*
X26314315Y-25718629D01*
X185139685Y-148981371D02*
X185139685Y-117981371D01*
X212271085Y-148981371D02*
X242271085Y-148981371D01*
D11*
X254836770Y-108132843D02*
X254834685Y-93138000D01*
X74445700Y-102850000D02*
X74445700Y-77850000D01*
X197705385Y-77850000D02*
X197705385Y-102850000D01*
D10*
X29880000Y-148981371D02*
X29880000Y-117981371D01*
D11*
X74445715Y-72698528D02*
X74445700Y-73850000D01*
D10*
X188705370Y-108981371D02*
X151574000Y-108981371D01*
D11*
X199705385Y-27850000D02*
X199705400Y-26567157D01*
X197705370Y-108132843D02*
X197705385Y-106850000D01*
D10*
X245836770Y-25718629D02*
X208705400Y-25718629D01*
X62597157Y-117981371D02*
X72445685Y-108132843D01*
X138077001Y-129381371D02*
X138077001Y-94915685D01*
X117011400Y-148981371D02*
X117011400Y-117981371D01*
X26314315Y-71850000D02*
X26314315Y-108981371D01*
D11*
X199705400Y-72698528D02*
X199705385Y-73850000D01*
X199705385Y-102850000D02*
X199705385Y-77850000D01*
D10*
X87011400Y-148981371D02*
X117011400Y-148981371D01*
D11*
X199705400Y-108132843D02*
X199705385Y-106850000D01*
X197705370Y-26567157D02*
X197705385Y-27850000D01*
X197705385Y-60850000D02*
X197705370Y-62001472D01*
X197705370Y-72698528D02*
X197705385Y-73850000D01*
D10*
X209553928Y-16718629D02*
X244988242Y-16718629D01*
X142574000Y-108132843D02*
X152422528Y-117981371D01*
D11*
X197705385Y-56850000D02*
X197705385Y-31850000D01*
X254836770Y-62001472D02*
X254836685Y-46400000D01*
D10*
X120577085Y-71850000D02*
X120577085Y-108981371D01*
D11*
X72445700Y-56850000D02*
X72445700Y-31850000D01*
D10*
X208705400Y-62850000D02*
X208705400Y-25718629D01*
X147922528Y-67350000D02*
X142574000Y-62001472D01*
X152422528Y-117981371D02*
X155139685Y-117981371D01*
X188705370Y-62850000D02*
X188705370Y-25718629D01*
X120577085Y-62850000D02*
X120577085Y-25718629D01*
X26314315Y-62850000D02*
X26314315Y-25718629D01*
D11*
X142574000Y-108132843D02*
X142575000Y-93138000D01*
D10*
X63445685Y-62850000D02*
X26314315Y-62850000D01*
X72445685Y-26567157D02*
X62597157Y-16718629D01*
X17314315Y-108132843D02*
X27162843Y-117981371D01*
X209553928Y-117981371D02*
X212271085Y-117981371D01*
D11*
X129577085Y-62001472D02*
X129577000Y-46400000D01*
D10*
X242271085Y-117981371D02*
X244988242Y-117981371D01*
X119728557Y-117981371D02*
X129577085Y-108132843D01*
X138077001Y-48784315D02*
X138077001Y-85915685D01*
X87011400Y-148981371D02*
X87011400Y-117981371D01*
D11*
X72445685Y-72698528D02*
X72445700Y-73850000D01*
X72445685Y-108132843D02*
X72445700Y-106850000D01*
D10*
X59880000Y-117981371D02*
X62597157Y-117981371D01*
D11*
X74445700Y-31850000D02*
X74445700Y-56850000D01*
D10*
X63445685Y-71850000D02*
X26314315Y-71850000D01*
X120577085Y-108981371D02*
X83445715Y-108981371D01*
X17314315Y-72698528D02*
X17314315Y-108132843D01*
D11*
X199705385Y-31850000D02*
X199705385Y-56850000D01*
D10*
X254836770Y-26567157D02*
X244988242Y-16718629D01*
X134077000Y-48784315D02*
X134077000Y-85915685D01*
D11*
X129577085Y-108132843D02*
X129575000Y-93138000D01*
D10*
X192356842Y-67350000D02*
X197705370Y-62001472D01*
X197705370Y-26567157D02*
X187856842Y-16718629D01*
D11*
X129575000Y-89138000D02*
X129577085Y-72698528D01*
D10*
X185139685Y-117981371D02*
X187856842Y-117981371D01*
X245836770Y-71850000D02*
X245836770Y-108981371D01*
X140577001Y-85915685D02*
X138077001Y-85915685D01*
X152422528Y-16718629D02*
X187856842Y-16718629D01*
X67097157Y-67350000D02*
X72445685Y-72698528D01*
X79794243Y-67350000D02*
X74445715Y-72698528D01*
X120577085Y-25718629D02*
X83445715Y-25718629D01*
%TO.C,mouse-bite-2mm-slot*%
X72445700Y-102850000D02*
G75*
G03*
X74445700Y-102850000I1000000J0D01*
G01*
X74445700Y-106850000D02*
G75*
G03*
X72445700Y-106850000I-1000000J0D01*
G01*
X129577000Y-42400000D02*
G75*
G03*
X131577000Y-42400000I1000000J0D01*
G01*
X131577000Y-46400000D02*
G75*
G03*
X129577000Y-46400000I-1000000J0D01*
G01*
X197705385Y-73850000D02*
G75*
G03*
X199705385Y-73850000I1000000J0D01*
G01*
X199705385Y-77850000D02*
G75*
G03*
X197705385Y-77850000I-1000000J0D01*
G01*
X72445700Y-56850000D02*
G75*
G03*
X74445700Y-56850000I1000000J0D01*
G01*
X74445700Y-60850000D02*
G75*
G03*
X72445700Y-60850000I-1000000J0D01*
G01*
X199705385Y-106850000D02*
G75*
G03*
X197705385Y-106850000I-1000000J0D01*
G01*
X197705385Y-102850000D02*
G75*
G03*
X199705385Y-102850000I1000000J0D01*
G01*
X197705385Y-27850000D02*
G75*
G03*
X199705385Y-27850000I1000000J0D01*
G01*
X199705385Y-31850000D02*
G75*
G03*
X197705385Y-31850000I-1000000J0D01*
G01*
X74445700Y-77850000D02*
G75*
G03*
X72445700Y-77850000I-1000000J0D01*
G01*
X72445700Y-73850000D02*
G75*
G03*
X74445700Y-73850000I1000000J0D01*
G01*
X72445700Y-27850000D02*
G75*
G03*
X74445700Y-27850000I1000000J0D01*
G01*
X74445700Y-31850000D02*
G75*
G03*
X72445700Y-31850000I-1000000J0D01*
G01*
X131575000Y-93138000D02*
G75*
G03*
X129575000Y-93138000I-1000000J0D01*
G01*
X129575000Y-89138000D02*
G75*
G03*
X131575000Y-89138000I1000000J0D01*
G01*
X142575000Y-93138000D02*
G75*
G03*
X140575000Y-93138000I-1000000J0D01*
G01*
X140575000Y-89138000D02*
G75*
G03*
X142575000Y-89138000I1000000J0D01*
G01*
X140577000Y-42400000D02*
G75*
G03*
X142577000Y-42400000I1000000J0D01*
G01*
X142577000Y-46400000D02*
G75*
G03*
X140577000Y-46400000I-1000000J0D01*
G01*
X199705385Y-60850000D02*
G75*
G03*
X197705385Y-60850000I-1000000J0D01*
G01*
X197705385Y-56850000D02*
G75*
G03*
X199705385Y-56850000I1000000J0D01*
G01*
%TD*%
M02*
