M48
; DRILL file {KiCad (6.0.1)} date Sat Jan 22 16:29:29 2022
; FORMAT={-:-/ absolute / inch / decimal}
; #@! TF.CreationDate,2022-01-22T16:29:29+01:00
; #@! TF.GenerationSoftware,Kicad,Pcbnew,(6.0.1)
; #@! TF.FileFunction,Plated,1,2,PTH
FMAT,2
INCH
; #@! TA.AperFunction,Plated,PTH,ViaDrill
T1C0.0118
; #@! TA.AperFunction,Plated,PTH,ViaDrill
T2C0.0157
; #@! TA.AperFunction,Plated,PTH,ViaDrill
T3C0.0197
; #@! TA.AperFunction,Plated,PTH,ComponentDrill
T4C0.0197
; #@! TA.AperFunction,Plated,PTH,ComponentDrill
T5C0.0394
; #@! TA.AperFunction,Plated,PTH,ComponentDrill
T6C0.1260
%
G90
G05
T1
X0.7969Y-1.0622
X1.0933Y-2.7146
X1.128Y-0.9803
X1.7878Y-5.0783
X2.4406Y-2.5894
X3.0461Y-1.0622
X3.3426Y-2.7146
X3.3772Y-0.9803
X4.0371Y-5.0783
X4.6898Y-2.5894
X5.3495Y-3.5335
X5.3613Y-1.75
X5.3652Y-1.687
X5.503Y-3.6831
X5.507Y-1.8602
X5.7283Y-1.0622
X6.0248Y-2.7146
X6.0594Y-0.9803
X6.7193Y-5.0783
X7.372Y-2.5894
X7.9776Y-1.0622
X8.2741Y-2.7146
X8.3087Y-0.9803
X8.9685Y-5.0783
X9.6213Y-2.5894
T2
X0.7591Y-3.1988
X0.7748Y-1.9154
X0.7787Y-3.7264
X0.7945Y-1.3957
X0.8024Y-2.4232
X0.8102Y-4.2382
X1.1016Y-2.5492
X1.1606Y-0.7106
X1.4205Y-4.5374
X1.6094Y-2.5531
X1.6685Y-0.7028
X1.9323Y-4.5335
X2.1213Y-2.5492
X2.1843Y-0.7028
X2.448Y-4.5177
X2.7394Y-1.061
X2.7394Y-2.8799
X2.7551Y-1.5689
X2.763Y-2.0768
X2.763Y-3.3957
X2.7669Y-3.8957
X3.0083Y-3.1988
X3.0241Y-1.9154
X3.028Y-3.7264
X3.0438Y-1.3957
X3.0516Y-2.4232
X3.0595Y-4.2382
X3.3508Y-2.5492
X3.4099Y-0.7106
X3.6697Y-4.5374
X3.8587Y-2.5531
X3.9178Y-0.7028
X4.1816Y-4.5335
X4.3705Y-2.5492
X4.4335Y-0.7028
X4.6973Y-4.5177
X4.9886Y-1.061
X4.9886Y-2.8799
X5.0044Y-1.5689
X5.0123Y-2.0768
X5.0123Y-3.3957
X5.0162Y-3.8957
X5.1133Y-5.1398
X5.133Y-5.2657
X5.1369Y-5.3681
X5.5778Y-5.2697
X5.5778Y-5.3681
X5.6905Y-3.1988
X5.7063Y-1.9154
X5.7102Y-3.7264
X5.726Y-1.3957
X5.7338Y-2.4232
X5.7417Y-4.2382
X6.0331Y-2.5492
X6.0921Y-0.7106
X6.352Y-4.5374
X6.5409Y-2.5531
X6.6Y-0.7028
X6.8638Y-4.5335
X7.0527Y-2.5492
X7.1157Y-0.7028
X7.3795Y-4.5177
X7.6709Y-1.061
X7.6709Y-2.8799
X7.6866Y-1.5689
X7.6945Y-2.0768
X7.6945Y-3.3957
X7.6984Y-3.8957
X7.9398Y-3.1988
X7.9556Y-1.9154
X7.9595Y-3.7264
X7.9752Y-1.3957
X7.9831Y-2.4232
X7.991Y-4.2382
X8.2823Y-2.5492
X8.3414Y-0.7106
X8.6012Y-4.5374
X8.7902Y-2.5531
X8.8493Y-0.7028
X9.113Y-4.5335
X9.302Y-2.5492
X9.365Y-0.7028
X9.6288Y-4.5177
X9.9201Y-1.061
X9.9201Y-2.8799
X9.9359Y-1.5689
X9.9437Y-2.0768
X9.9437Y-3.3957
X9.9477Y-3.8957
T3
X1.5189Y-5.1386
X1.5465Y-5.2697
X1.5465Y-5.3697
X1.9909Y-5.2693
X1.9909Y-5.3701
X3.7682Y-5.1386
X3.7957Y-5.2697
X3.7957Y-5.3697
X4.2402Y-5.2693
X4.2402Y-5.3701
X6.4504Y-5.1386
X6.4779Y-5.2697
X6.4779Y-5.3697
X6.9224Y-5.2693
X6.9224Y-5.3701
X8.6996Y-5.1386
X8.7272Y-5.2697
X8.7272Y-5.3697
X9.1717Y-5.2693
X9.1717Y-5.3701
T4
X1.2197Y-5.3536
X1.2197Y-5.6686
X1.2474Y-5.2868
X1.2474Y-5.4204
X1.2474Y-5.6017
X1.2474Y-5.7354
X1.3142Y-5.2591
X1.3142Y-5.4481
X1.3142Y-5.5741
X1.3142Y-5.763
X1.381Y-5.2868
X1.381Y-5.4204
X1.381Y-5.6017
X1.381Y-5.7354
X1.4087Y-5.3536
X1.4087Y-5.6686
X2.1252Y-5.3536
X2.1252Y-5.6686
X2.1529Y-5.2868
X2.1529Y-5.4204
X2.1529Y-5.6017
X2.1529Y-5.7354
X2.2197Y-5.2591
X2.2197Y-5.4481
X2.2197Y-5.5741
X2.2197Y-5.763
X2.2865Y-5.2868
X2.2865Y-5.4204
X2.2865Y-5.6017
X2.2865Y-5.7354
X2.3142Y-5.3536
X2.3142Y-5.6686
X3.469Y-5.3536
X3.469Y-5.6686
X3.4966Y-5.2868
X3.4966Y-5.4204
X3.4966Y-5.6017
X3.4966Y-5.7354
X3.5634Y-5.2591
X3.5634Y-5.4481
X3.5634Y-5.5741
X3.5634Y-5.763
X3.6303Y-5.2868
X3.6303Y-5.4204
X3.6303Y-5.6017
X3.6303Y-5.7354
X3.6579Y-5.3536
X3.6579Y-5.6686
X4.3745Y-5.3536
X4.3745Y-5.6686
X4.4021Y-5.2868
X4.4021Y-5.4204
X4.4021Y-5.6017
X4.4021Y-5.7354
X4.469Y-5.2591
X4.469Y-5.4481
X4.469Y-5.5741
X4.469Y-5.763
X4.5358Y-5.2868
X4.5358Y-5.4204
X4.5358Y-5.6017
X4.5358Y-5.7354
X4.5634Y-5.3536
X4.5634Y-5.6686
X4.8101Y-5.3536
X4.8101Y-5.6686
X4.8378Y-5.2868
X4.8378Y-5.4204
X4.8378Y-5.6017
X4.8378Y-5.7354
X4.9046Y-5.2591
X4.9046Y-5.4481
X4.9046Y-5.5741
X4.9046Y-5.763
X4.9714Y-5.2868
X4.9714Y-5.4204
X4.9714Y-5.6017
X4.9714Y-5.7354
X4.9991Y-5.3536
X4.9991Y-5.6686
X5.7156Y-5.3536
X5.7156Y-5.6686
X5.7433Y-5.2868
X5.7433Y-5.4204
X5.7433Y-5.6017
X5.7433Y-5.7354
X5.8101Y-5.2591
X5.8101Y-5.4481
X5.8101Y-5.5741
X5.8101Y-5.763
X5.8769Y-5.2868
X5.8769Y-5.4204
X5.8769Y-5.6017
X5.8769Y-5.7354
X5.9046Y-5.3536
X5.9046Y-5.6686
X6.1512Y-5.3536
X6.1512Y-5.6686
X6.1788Y-5.2868
X6.1788Y-5.4204
X6.1788Y-5.6017
X6.1788Y-5.7354
X6.2457Y-5.2591
X6.2457Y-5.4481
X6.2457Y-5.5741
X6.2457Y-5.763
X6.3125Y-5.2868
X6.3125Y-5.4204
X6.3125Y-5.6017
X6.3125Y-5.7354
X6.3401Y-5.3536
X6.3401Y-5.6686
X7.0567Y-5.3536
X7.0567Y-5.6686
X7.0844Y-5.2868
X7.0844Y-5.4204
X7.0844Y-5.6017
X7.0844Y-5.7354
X7.1512Y-5.2591
X7.1512Y-5.4481
X7.1512Y-5.5741
X7.1512Y-5.763
X7.218Y-5.2868
X7.218Y-5.4204
X7.218Y-5.6017
X7.218Y-5.7354
X7.2457Y-5.3536
X7.2457Y-5.6686
X8.4004Y-5.3536
X8.4004Y-5.6686
X8.4281Y-5.2868
X8.4281Y-5.4204
X8.4281Y-5.6017
X8.4281Y-5.7354
X8.4949Y-5.2591
X8.4949Y-5.4481
X8.4949Y-5.5741
X8.4949Y-5.763
X8.5617Y-5.2868
X8.5617Y-5.4204
X8.5617Y-5.6017
X8.5617Y-5.7354
X8.5894Y-5.3536
X8.5894Y-5.6686
X9.3059Y-5.3536
X9.3059Y-5.6686
X9.3336Y-5.2868
X9.3336Y-5.4204
X9.3336Y-5.6017
X9.3336Y-5.7354
X9.4004Y-5.2591
X9.4004Y-5.4481
X9.4004Y-5.5741
X9.4004Y-5.763
X9.4672Y-5.2868
X9.4672Y-5.4204
X9.4672Y-5.6017
X9.4672Y-5.7354
X9.4949Y-5.3536
X9.4949Y-5.6686
T5
X1.6169Y-5.2697
X1.6169Y-5.3697
X1.7169Y-5.2697
X1.7169Y-5.3697
X1.8169Y-5.2697
X1.8169Y-5.3697
X1.9169Y-5.2697
X1.9169Y-5.3697
X3.8662Y-5.2697
X3.8662Y-5.3697
X3.9662Y-5.2697
X3.9662Y-5.3697
X4.0662Y-5.2697
X4.0662Y-5.3697
X4.1662Y-5.2697
X4.1662Y-5.3697
X5.2074Y-5.2697
X5.2074Y-5.3697
X5.3074Y-5.2697
X5.3074Y-5.3697
X5.4074Y-5.2697
X5.4074Y-5.3697
X5.5074Y-5.2697
X5.5074Y-5.3697
X6.5484Y-5.2697
X6.5484Y-5.3697
X6.6484Y-5.2697
X6.6484Y-5.3697
X6.7484Y-5.2697
X6.7484Y-5.3697
X6.8484Y-5.2697
X6.8484Y-5.3697
X8.7977Y-5.2697
X8.7977Y-5.3697
X8.8977Y-5.2697
X8.8977Y-5.3697
X8.9977Y-5.2697
X8.9977Y-5.3697
X9.0977Y-5.2697
X9.0977Y-5.3697
T6
X1.3142Y-5.3536
X1.3142Y-5.6686
X2.2197Y-5.3536
X2.2197Y-5.6686
X3.5634Y-5.3536
X3.5634Y-5.6686
X4.469Y-5.3536
X4.469Y-5.6686
X4.9046Y-5.3536
X4.9046Y-5.6686
X5.8101Y-5.3536
X5.8101Y-5.6686
X6.2457Y-5.3536
X6.2457Y-5.6686
X7.1512Y-5.3536
X7.1512Y-5.6686
X8.4949Y-5.3536
X8.4949Y-5.6686
X9.4004Y-5.3536
X9.4004Y-5.6686
T0
M30
