M48
; DRILL file {KiCad (6.0.4)} date Wed Jul 13 21:00:00 2022
; FORMAT={-:-/ absolute / inch / decimal}
; #@! TF.CreationDate,2022-07-13T21:00:00+02:00
; #@! TF.GenerationSoftware,Kicad,Pcbnew,(6.0.4)
; #@! TF.FileFunction,Plated,1,2,PTH
FMAT,2
INCH
; #@! TA.AperFunction,Plated,PTH,ViaDrill
T1C0.0118
; #@! TA.AperFunction,Plated,PTH,ViaDrill
T2C0.0157
; #@! TA.AperFunction,Plated,PTH,ViaDrill
T3C0.0197
; #@! TA.AperFunction,Plated,PTH,ComponentDrill
T4C0.0197
; #@! TA.AperFunction,Plated,PTH,ComponentDrill
T5C0.0236
; #@! TA.AperFunction,Plated,PTH,ViaDrill
T6C0.0276
; #@! TA.AperFunction,Plated,PTH,ComponentDrill
T7C0.0295
; #@! TA.AperFunction,Plated,PTH,ComponentDrill
T8C0.0315
; #@! TA.AperFunction,Plated,PTH,ComponentDrill
T9C0.0374
; #@! TA.AperFunction,Plated,PTH,ComponentDrill
T10C0.0390
; #@! TA.AperFunction,Plated,PTH,ComponentDrill
T11C0.0394
; #@! TA.AperFunction,Plated,PTH,ComponentDrill
T12C0.0512
%
G90
G05
T1
X0.335Y-0.65
X0.335Y-1.03
X0.335Y-1.415
X0.34Y-0.31
X0.355Y-0.11
X0.46Y-0.415
X0.545Y-0.375
X0.5866Y-0.1142
X0.7126Y-0.2423
X0.955Y-0.9
X0.97Y-0.5257
X1.4135Y-1.09
X1.4185Y-0.9825
X1.445Y-0.485
X1.445Y-1.09
X1.45Y-0.9825
X1.73Y-1.02
X1.73Y-1.13
X1.765Y-1.13
X1.77Y-1.02
X1.8Y-1.13
X1.805Y-1.02
X1.8637Y-0.6118
X1.8883Y-0.5896
X1.8983Y-0.4333
X1.9209Y-0.4551
X1.9235Y-0.594
X1.9319Y-0.4846
X1.9605Y-0.6422
X1.965Y-0.455
X1.9753Y-0.5673
X1.9915Y-0.6367
X2.02Y-0.65
X2.0229Y-0.5659
X2.665Y-0.4982
X2.6654Y-0.3436
X2.895Y-0.795
X2.9Y-0.93
X2.96Y-0.73
X2.9625Y-0.9325
X3.0025Y-0.9725
X3.0075Y-0.7575
X3.0303Y-0.5647
X3.05Y-1.02
X3.0556Y-0.5899
X3.06Y-0.81
X3.0778Y-0.6122
X3.0975Y-1.0675
X3.1Y-0.85
X3.1425Y-1.1125
X3.145Y-0.895
X3.1756Y-0.4352
X3.185Y-1.155
X3.19Y-0.94
X3.195Y-1.215
X3.2036Y-0.4496
X3.2095Y-0.4805
X3.23Y-0.98
X3.2675Y-1.0175
X3.3075Y-1.0575
X3.345Y-1.095
X3.39Y-1.13
X3.45Y-1.13
X3.4924Y-0.4976
X3.495Y-1.065
X3.497Y-0.4664
X3.5Y-1.145
X3.52Y-1.085
X3.54Y-1.185
X3.5679Y-0.3918
X3.58Y-1.225
X3.5902Y-0.4141
X3.68Y-0.925
X3.7092Y-0.9367
X4.075Y-0.675
X4.075Y-0.71
X4.075Y-0.7415
X4.075Y-0.773
X4.075Y-0.805
X4.0757Y-0.8678
X4.0766Y-0.4284
X4.0774Y-0.8364
X4.0798Y-0.465
X4.1947Y-0.8306
X4.1947Y-0.87
X4.2068Y-0.4335
X4.2068Y-0.465
X4.2654Y-0.7147
X4.2701Y-0.7458
X4.275Y-0.645
X4.2807Y-0.676
X4.305Y-0.615
X4.8485Y-0.4653
X4.85Y-0.5797
X4.88Y-0.4647
X4.885Y-0.5797
X5.19Y-0.555
X5.29Y-0.56
X7.17Y-0.8321
X7.18Y-0.7027
X7.205Y-0.8321
X7.22Y-0.7027
X7.2992Y-0.5276
X7.385Y-0.8321
X7.39Y-0.6995
X7.5895Y-0.6974
X7.5895Y-0.7874
X7.9745Y-1.0274
X8.3198Y-0.475
X8.3941Y-0.4799
T2
X0.5276Y-0.5866
X0.64Y-0.3
X0.7889Y-0.6013
X0.7932Y-0.7203
X0.8218Y-0.6321
X0.84Y-0.755
X0.8848Y-0.9702
X0.9126Y-0.998
X0.9852Y-0.9498
X1.5157Y-0.9094
X1.706Y-0.5198
X1.7835Y-0.5276
X1.8189Y-0.6378
X2.1535Y-0.1614
X2.45Y-0.87
X2.45Y-0.91
X2.45Y-0.95
X2.45Y-0.99
X2.45Y-1.03
X2.49Y-0.87
X2.49Y-0.91
X2.49Y-0.95
X2.49Y-0.99
X2.49Y-1.03
X2.53Y-0.87
X2.53Y-0.91
X2.53Y-0.95
X2.53Y-0.99
X2.53Y-1.03
X2.57Y-0.87
X2.57Y-0.91
X2.57Y-0.95
X2.57Y-0.99
X2.57Y-1.03
X2.61Y-0.87
X2.61Y-0.91
X2.61Y-0.95
X2.61Y-0.99
X2.61Y-1.03
X3.48Y-0.87
X3.7638Y-0.5197
X3.99Y-0.945
X4.07Y-0.1
X4.185Y-0.105
X4.45Y-1.015
X4.5248Y-1.0552
X4.6287Y-0.2863
X4.825Y-0.365
X4.905Y-0.99
X5.2464Y-0.8268
X5.6378Y-1.063
X6.0Y-0.835
X6.1Y-0.42
X6.1Y-0.725
X8.45Y-0.14
T3
X0.33Y-0.055
X0.345Y-0.36
X0.5746Y-0.0454
X0.6296Y-0.0454
X0.6896Y-0.0454
X4.305Y-0.965
X4.3056Y-1.0144
X7.3937Y-0.1417
T4
X6.1825Y-0.5426
X6.1825Y-0.6174
X6.3991Y-0.5209
X6.3991Y-0.6391
T6
X2.245Y-1.245
X2.715Y-0.645
X2.74Y-1.245
X4.255Y-0.8196
X4.255Y-0.9004
T7
X7.905Y-0.5769
X7.955Y-0.6269
X8.005Y-0.5769
T8
X3.965Y-1.0889
X3.965Y-1.1676
X4.0389Y-0.61
X4.1176Y-0.61
X5.122Y-0.6614
X5.2559Y-0.6614
T9
X3.2283Y-1.3583
X3.3268Y-1.3583
X3.4252Y-1.3583
X3.5236Y-1.3583
X3.622Y-1.3583
X3.7205Y-1.3583
X8.1772Y-0.3205
X8.2756Y-0.3205
X8.374Y-0.3205
T10
X0.1127Y-0.5305
X0.1127Y-0.7077
X0.1127Y-0.9124
X0.1127Y-1.0896
X0.1127Y-1.2943
X0.1127Y-1.4715
T11
X1.0236Y-0.1362
X1.0236Y-0.2362
X1.1236Y-0.1362
X1.1236Y-0.2362
X1.2236Y-0.1362
X1.2236Y-0.2362
X1.3236Y-0.1362
X1.3236Y-0.2362
X3.5039Y-0.1362
X3.5039Y-0.2362
X3.6039Y-0.1362
X3.6039Y-0.2362
X3.7039Y-0.1362
X3.7039Y-0.2362
X3.8039Y-0.1362
X3.8039Y-0.2362
X4.3724Y-0.315
X4.4709Y-0.315
X5.0394Y-0.1362
X5.0394Y-0.2362
X5.1394Y-0.1362
X5.1394Y-0.2362
X5.2394Y-0.1362
X5.2394Y-0.2362
X5.3394Y-0.1362
X5.3394Y-0.2362
X6.5748Y-0.1362
X6.5748Y-0.2362
X6.6748Y-0.1362
X6.6748Y-0.2362
X6.7748Y-0.1362
X6.7748Y-0.2362
X6.8748Y-0.1362
X6.8748Y-0.2362
X6.9602Y-0.935
X7.0602Y-0.935
X7.1602Y-0.935
X7.2602Y-0.935
X7.3602Y-0.935
X8.3545Y-0.7278
X8.3545Y-0.9876
X9.0551Y-0.1362
X9.0551Y-0.2362
X9.1551Y-0.1362
X9.1551Y-0.2362
X9.2551Y-0.1362
X9.2551Y-0.2362
X9.3551Y-0.1362
X9.3551Y-0.2362
T12
X0.2107Y-0.4809
X0.2107Y-0.7569
X0.2107Y-0.8628
X0.2107Y-1.1388
X0.2107Y-1.2447
X0.2107Y-1.5207
T5
G00X0.0783Y-0.0465
M15
G01X0.0547Y-0.0465
M16
G05
G00X0.0783Y-0.3866
M15
G01X0.0547Y-0.3866
M16
G05
G00X0.2528Y-0.0465
M15
G01X0.2094Y-0.0465
M16
G05
G00X0.2528Y-0.3866
M15
G01X0.2094Y-0.3866
M16
G05
T0
M30
