%TF.GenerationSoftware,KiCad,Pcbnew,(6.0.1)*%
%TF.CreationDate,2022-01-22T16:32:06+01:00*%
%TF.ProjectId,MoBo and Touchbar,4d6f426f-2061-46e6-9420-546f75636862,rev?*%
%TF.SameCoordinates,Original*%
%TF.FileFunction,Soldermask,Top*%
%TF.FilePolarity,Negative*%
%FSLAX46Y46*%
G04 Gerber Fmt 4.6, Leading zero omitted, Abs format (unit mm)*
G04 Created by KiCad (PCBNEW (6.0.1)) date 2022-01-22 16:32:06*
%MOMM*%
%LPD*%
G01*
G04 APERTURE LIST*
G04 Aperture macros list*
%AMRoundRect*
0 Rectangle with rounded corners*
0 $1 Rounding radius*
0 $2 $3 $4 $5 $6 $7 $8 $9 X,Y pos of 4 corners*
0 Add a 4 corners polygon primitive as box body*
4,1,4,$2,$3,$4,$5,$6,$7,$8,$9,$2,$3,0*
0 Add four circle primitives for the rounded corners*
1,1,$1+$1,$2,$3*
1,1,$1+$1,$4,$5*
1,1,$1+$1,$6,$7*
1,1,$1+$1,$8,$9*
0 Add four rect primitives between the rounded corners*
20,1,$1+$1,$2,$3,$4,$5,0*
20,1,$1+$1,$4,$5,$6,$7,0*
20,1,$1+$1,$6,$7,$8,$9,0*
20,1,$1+$1,$8,$9,$2,$3,0*%
G04 Aperture macros list end*
%ADD10RoundRect,0.150000X-0.587500X-0.150000X0.587500X-0.150000X0.587500X0.150000X-0.587500X0.150000X0*%
%ADD11RoundRect,0.250000X-0.250000X-0.475000X0.250000X-0.475000X0.250000X0.475000X-0.250000X0.475000X0*%
%ADD12RoundRect,0.225000X0.250000X-0.225000X0.250000X0.225000X-0.250000X0.225000X-0.250000X-0.225000X0*%
%ADD13RoundRect,0.200000X-0.275000X0.200000X-0.275000X-0.200000X0.275000X-0.200000X0.275000X0.200000X0*%
%ADD14C,1.500000*%
%ADD15R,1.700000X1.700000*%
%ADD16O,1.700000X1.700000*%
%ADD17RoundRect,0.200000X-0.200000X-0.275000X0.200000X-0.275000X0.200000X0.275000X-0.200000X0.275000X0*%
%ADD18C,3.200000*%
%ADD19R,1.200000X0.900000*%
%ADD20R,1.500000X2.000000*%
%ADD21R,3.800000X2.000000*%
%ADD22R,2.000000X2.000000*%
%ADD23C,2.000000*%
%ADD24R,1.600000X1.600000*%
%ADD25C,1.600000*%
%ADD26C,0.500000*%
%ADD27RoundRect,0.225000X0.335876X0.017678X0.017678X0.335876X-0.335876X-0.017678X-0.017678X-0.335876X0*%
%ADD28RoundRect,0.200000X0.200000X0.275000X-0.200000X0.275000X-0.200000X-0.275000X0.200000X-0.275000X0*%
%ADD29RoundRect,0.150000X0.150000X-0.587500X0.150000X0.587500X-0.150000X0.587500X-0.150000X-0.587500X0*%
%ADD30RoundRect,0.225000X-0.250000X0.225000X-0.250000X-0.225000X0.250000X-0.225000X0.250000X0.225000X0*%
%ADD31C,1.000000*%
%ADD32R,1.000000X1.000000*%
%ADD33R,6.000000X2.500000*%
%ADD34RoundRect,0.150000X0.825000X0.150000X-0.825000X0.150000X-0.825000X-0.150000X0.825000X-0.150000X0*%
%ADD35RoundRect,0.250000X0.250000X0.475000X-0.250000X0.475000X-0.250000X-0.475000X0.250000X-0.475000X0*%
%ADD36RoundRect,0.225000X0.225000X0.250000X-0.225000X0.250000X-0.225000X-0.250000X0.225000X-0.250000X0*%
%ADD37C,0.650000*%
%ADD38R,1.450000X0.600000*%
%ADD39R,1.450000X0.300000*%
%ADD40O,2.100000X1.000000*%
%ADD41O,1.600000X1.000000*%
%ADD42RoundRect,0.250000X0.475000X-0.250000X0.475000X0.250000X-0.475000X0.250000X-0.475000X-0.250000X0*%
%ADD43RoundRect,0.200000X0.275000X-0.200000X0.275000X0.200000X-0.275000X0.200000X-0.275000X-0.200000X0*%
%ADD44C,2.100000*%
%ADD45C,1.750000*%
%ADD46R,1.100000X1.800000*%
%ADD47RoundRect,0.275000X0.275000X0.625000X-0.275000X0.625000X-0.275000X-0.625000X0.275000X-0.625000X0*%
%ADD48RoundRect,0.200000X-0.335876X-0.053033X-0.053033X-0.335876X0.335876X0.053033X0.053033X0.335876X0*%
%ADD49RoundRect,0.150000X-0.825000X-0.150000X0.825000X-0.150000X0.825000X0.150000X-0.825000X0.150000X0*%
%ADD50R,2.000000X0.900000*%
%ADD51R,0.900000X2.000000*%
%ADD52R,5.000000X5.000000*%
%ADD53RoundRect,0.150000X0.587500X0.150000X-0.587500X0.150000X-0.587500X-0.150000X0.587500X-0.150000X0*%
G04 APERTURE END LIST*
D10*
%TO.C,Q3*%
X42750500Y-15179000D03*
X42750500Y-17079000D03*
X44625500Y-16129000D03*
%TD*%
D11*
%TO.C,C13*%
X32070000Y-10668000D03*
X33970000Y-10668000D03*
%TD*%
D12*
%TO.C,C4*%
X8509000Y-15126000D03*
X8509000Y-13576000D03*
%TD*%
D13*
%TO.C,R1*%
X193675000Y-13907000D03*
X193675000Y-15557000D03*
%TD*%
D12*
%TO.C,C7*%
X191262000Y-5728000D03*
X191262000Y-4178000D03*
%TD*%
D14*
%TO.C,R14*%
X113300000Y-37300000D03*
X116700000Y-37300000D03*
%TD*%
D15*
%TO.C,J4*%
X167000000Y-6000000D03*
D16*
X167000000Y-3460000D03*
X169540000Y-6000000D03*
X169540000Y-3460000D03*
X172080000Y-6000000D03*
X172080000Y-3460000D03*
X174620000Y-6000000D03*
X174620000Y-3460000D03*
%TD*%
D17*
%TO.C,R15*%
X113856000Y-22352000D03*
X115506000Y-22352000D03*
%TD*%
D18*
%TO.C,H3*%
X52500000Y-5500000D03*
%TD*%
D17*
%TO.C,R4*%
X13526000Y-2921000D03*
X15176000Y-2921000D03*
%TD*%
D19*
%TO.C,D1*%
X214376000Y-11812000D03*
X214376000Y-15112000D03*
%TD*%
D15*
%TO.C,J1*%
X26000000Y-6000000D03*
D16*
X26000000Y-3460000D03*
X28540000Y-6000000D03*
X28540000Y-3460000D03*
X31080000Y-6000000D03*
X31080000Y-3460000D03*
X33620000Y-6000000D03*
X33620000Y-3460000D03*
%TD*%
D10*
%TO.C,Q1*%
X195658500Y-13782000D03*
X195658500Y-15682000D03*
X197533500Y-14732000D03*
%TD*%
D20*
%TO.C,U4*%
X109361000Y-28092000D03*
D21*
X107061000Y-34392000D03*
D20*
X107061000Y-28092000D03*
X104761000Y-28092000D03*
%TD*%
D15*
%TO.C,J3*%
X128000000Y-6000000D03*
D16*
X128000000Y-3460000D03*
X130540000Y-6000000D03*
X130540000Y-3460000D03*
X133080000Y-6000000D03*
X133080000Y-3460000D03*
X135620000Y-6000000D03*
X135620000Y-3460000D03*
%TD*%
D18*
%TO.C,H5*%
X130000000Y-24000000D03*
%TD*%
D22*
%TO.C,BZ1*%
X205359000Y-9281000D03*
D23*
X205359000Y-16881000D03*
%TD*%
D17*
%TO.C,R5*%
X14542000Y-12192000D03*
X16192000Y-12192000D03*
%TD*%
D24*
%TO.C,C10*%
X139446000Y-17613621D03*
D25*
X139446000Y-20113621D03*
%TD*%
D26*
%TO.C,mouse-bite-2mm-slot*%
X139750000Y-29750000D03*
X138250000Y-29750000D03*
X139000000Y-29750000D03*
X138250000Y-28250000D03*
X139750000Y-28250000D03*
X139000000Y-28250000D03*
%TD*%
D15*
%TO.C,J8*%
X231282000Y-11049000D03*
D16*
X233822000Y-11049000D03*
X236362000Y-11049000D03*
%TD*%
D18*
%TO.C,H6*%
X235000000Y-24000000D03*
%TD*%
D12*
%TO.C,C5*%
X8509000Y-24778000D03*
X8509000Y-23228000D03*
%TD*%
D17*
%TO.C,R17*%
X26480000Y-8890000D03*
X28130000Y-8890000D03*
%TD*%
D27*
%TO.C,C3*%
X87416008Y-21122008D03*
X86319992Y-20025992D03*
%TD*%
D28*
%TO.C,R10*%
X36321000Y-16967000D03*
X34671000Y-16967000D03*
%TD*%
D29*
%TO.C,Q4*%
X44516000Y-9065500D03*
X46416000Y-9065500D03*
X45466000Y-7190500D03*
%TD*%
D18*
%TO.C,H4*%
X16000000Y-36000000D03*
%TD*%
D14*
%TO.C,R12*%
X113300000Y-5500000D03*
X116700000Y-5500000D03*
%TD*%
D30*
%TO.C,C8*%
X154940000Y-15494000D03*
X154940000Y-17044000D03*
%TD*%
D31*
%TO.C,Y1*%
X157036000Y-15682000D03*
X157036000Y-13782000D03*
D32*
X162536000Y-13232000D03*
X162536000Y-16232000D03*
D33*
X162536000Y-14732000D03*
%TD*%
D34*
%TO.C,U3*%
X152335000Y-16383000D03*
X152335000Y-15113000D03*
X152335000Y-13843000D03*
X152335000Y-12573000D03*
X147385000Y-12573000D03*
X147385000Y-13843000D03*
X147385000Y-15113000D03*
X147385000Y-16383000D03*
%TD*%
D35*
%TO.C,C14*%
X104709000Y-25146000D03*
X102809000Y-25146000D03*
%TD*%
D36*
%TO.C,C16*%
X30239000Y-10922000D03*
X28689000Y-10922000D03*
%TD*%
D17*
%TO.C,R8*%
X22035000Y-14224000D03*
X23685000Y-14224000D03*
%TD*%
D12*
%TO.C,C6*%
X8509000Y-34684000D03*
X8509000Y-33134000D03*
%TD*%
%TO.C,C9*%
X154940000Y-13475000D03*
X154940000Y-11925000D03*
%TD*%
D37*
%TO.C,J7*%
X5340000Y-8390000D03*
X5340000Y-2610000D03*
D38*
X6785000Y-2250000D03*
X6785000Y-3050000D03*
D39*
X6785000Y-4250000D03*
X6785000Y-5250000D03*
X6785000Y-5750000D03*
X6785000Y-6750000D03*
D38*
X6785000Y-7950000D03*
X6785000Y-8750000D03*
X6785000Y-8750000D03*
X6785000Y-7950000D03*
D39*
X6785000Y-7250000D03*
X6785000Y-6250000D03*
X6785000Y-4750000D03*
X6785000Y-3750000D03*
D38*
X6785000Y-3050000D03*
X6785000Y-2250000D03*
D40*
X5870000Y-9820000D03*
D41*
X1690000Y-1180000D03*
X1690000Y-9820000D03*
D40*
X5870000Y-1180000D03*
%TD*%
D17*
%TO.C,R16*%
X44641000Y-11303000D03*
X46291000Y-11303000D03*
%TD*%
D15*
%TO.C,J6*%
X82000000Y-34500000D03*
D16*
X84540000Y-34500000D03*
X87080000Y-34500000D03*
X89620000Y-34500000D03*
X92160000Y-34500000D03*
X94700000Y-34500000D03*
%TD*%
D17*
%TO.C,R9*%
X22035000Y-15748000D03*
X23685000Y-15748000D03*
%TD*%
D13*
%TO.C,R13*%
X116840000Y-8700000D03*
X116840000Y-10350000D03*
%TD*%
D42*
%TO.C,C2*%
X115316000Y-29906000D03*
X115316000Y-28006000D03*
%TD*%
D18*
%TO.C,H1*%
X43000000Y-36000000D03*
%TD*%
D43*
%TO.C,R7*%
X11684000Y-9334000D03*
X11684000Y-7684000D03*
%TD*%
D44*
%TO.C,SW1*%
X5352500Y-12215000D03*
X5352500Y-19225000D03*
D45*
X2862500Y-17975000D03*
X2862500Y-13475000D03*
%TD*%
D17*
%TO.C,R3*%
X189929000Y-7620000D03*
X191579000Y-7620000D03*
%TD*%
D36*
%TO.C,C12*%
X104534000Y-23241000D03*
X102984000Y-23241000D03*
%TD*%
D46*
%TO.C,U2*%
X196469000Y-5049000D03*
D47*
X195199000Y-7119000D03*
X193929000Y-5049000D03*
%TD*%
D44*
%TO.C,SW2*%
X5352500Y-21915000D03*
X5352500Y-28925000D03*
D45*
X2862500Y-27675000D03*
X2862500Y-23175000D03*
%TD*%
D44*
%TO.C,SW3*%
X5352500Y-31615000D03*
X5352500Y-38625000D03*
D45*
X2862500Y-37375000D03*
X2862500Y-32875000D03*
%TD*%
D18*
%TO.C,H2*%
X215000000Y-6000000D03*
%TD*%
D28*
%TO.C,R11*%
X36321000Y-15367000D03*
X34671000Y-15367000D03*
%TD*%
D48*
%TO.C,R2*%
X84124800Y-17780000D03*
X85291526Y-18946726D03*
%TD*%
D15*
%TO.C,J5*%
X230000000Y-6000000D03*
D16*
X230000000Y-3460000D03*
X232540000Y-6000000D03*
X232540000Y-3460000D03*
X235080000Y-6000000D03*
X235080000Y-3460000D03*
X237620000Y-6000000D03*
X237620000Y-3460000D03*
%TD*%
D36*
%TO.C,C1*%
X75705000Y-31623000D03*
X74155000Y-31623000D03*
%TD*%
D24*
%TO.C,C11*%
X104587112Y-13208000D03*
D25*
X102587112Y-13208000D03*
%TD*%
D49*
%TO.C,U5*%
X26525000Y-12955000D03*
X26525000Y-14225000D03*
X26525000Y-15495000D03*
X26525000Y-16765000D03*
X26525000Y-18035000D03*
X26525000Y-19305000D03*
X26525000Y-20575000D03*
X26525000Y-21845000D03*
X31475000Y-21845000D03*
X31475000Y-20575000D03*
X31475000Y-19305000D03*
X31475000Y-18035000D03*
X31475000Y-16765000D03*
X31475000Y-15495000D03*
X31475000Y-14225000D03*
X31475000Y-12955000D03*
%TD*%
D50*
%TO.C,U1*%
X71746000Y-31623000D03*
X71746000Y-30353000D03*
X71746000Y-29083000D03*
X71746000Y-27813000D03*
X71746000Y-26543000D03*
X71746000Y-25273000D03*
X71746000Y-24003000D03*
X71746000Y-22733000D03*
X71746000Y-21463000D03*
X71746000Y-20193000D03*
X71746000Y-18923000D03*
X71746000Y-17653000D03*
X71746000Y-16383000D03*
X71746000Y-15113000D03*
D51*
X68961000Y-14113000D03*
X67691000Y-14113000D03*
X66421000Y-14113000D03*
X65151000Y-14113000D03*
X63881000Y-14113000D03*
X62611000Y-14113000D03*
X61341000Y-14113000D03*
X60071000Y-14113000D03*
X58801000Y-14113000D03*
X57531000Y-14113000D03*
D50*
X54746000Y-15113000D03*
X54746000Y-16383000D03*
X54746000Y-17653000D03*
X54746000Y-18923000D03*
X54746000Y-20193000D03*
X54746000Y-21463000D03*
X54746000Y-22733000D03*
X54746000Y-24003000D03*
X54746000Y-25273000D03*
X54746000Y-26543000D03*
X54746000Y-27813000D03*
X54746000Y-29083000D03*
X54746000Y-30353000D03*
X54746000Y-31623000D03*
D52*
X64246000Y-24123000D03*
%TD*%
D13*
%TO.C,R6*%
X13843000Y-6795000D03*
X13843000Y-8445000D03*
%TD*%
D15*
%TO.C,J2*%
X89000000Y-6000000D03*
D16*
X89000000Y-3460000D03*
X91540000Y-6000000D03*
X91540000Y-3460000D03*
X94080000Y-6000000D03*
X94080000Y-3460000D03*
X96620000Y-6000000D03*
X96620000Y-3460000D03*
%TD*%
D24*
%TO.C,C19*%
X100711000Y-29657113D03*
D25*
X100711000Y-27657113D03*
%TD*%
D30*
%TO.C,C18*%
X152400000Y-18275000D03*
X152400000Y-19825000D03*
%TD*%
D26*
%TO.C,mouse-bite-2mm-slot*%
X178750000Y-29750000D03*
X178000000Y-28250000D03*
X178750000Y-28250000D03*
X177250000Y-29750000D03*
X178000000Y-29750000D03*
X177250000Y-28250000D03*
%TD*%
%TO.C,mouse-bite-2mm-slot*%
X221750000Y-29750000D03*
X220250000Y-29750000D03*
X221750000Y-28250000D03*
X221000000Y-29750000D03*
X220250000Y-28250000D03*
X221000000Y-28250000D03*
%TD*%
%TO.C,mouse-bite-2mm-slot*%
X118250000Y-33000000D03*
X119750000Y-33750000D03*
X118250000Y-33750000D03*
X119750000Y-32250000D03*
X118250000Y-32250000D03*
X119750000Y-33000000D03*
%TD*%
D19*
%TO.C,D2*%
X113030000Y-30352000D03*
X113030000Y-27052000D03*
%TD*%
D53*
%TO.C,Q2*%
X40307500Y-17079000D03*
X40307500Y-15179000D03*
X38432500Y-16129000D03*
%TD*%
D15*
%TO.C,J1*%
X134000000Y-38000000D03*
D16*
X136540000Y-38000000D03*
X139080000Y-38000000D03*
X141620000Y-38000000D03*
X144160000Y-38000000D03*
X146700000Y-38000000D03*
%TD*%
M02*
