M48
; DRILL file {KiCad (6.0.1)} date Sat Jan 22 16:31:35 2022
; FORMAT={-:-/ absolute / inch / decimal}
; #@! TF.CreationDate,2022-01-22T16:31:35+01:00
; #@! TF.GenerationSoftware,Kicad,Pcbnew,(6.0.1)
; #@! TF.FileFunction,NonPlated,1,2,NPTH
FMAT,2
INCH
; #@! TA.AperFunction,NonPlated,NPTH,ComponentDrill
T1C0.0197
; #@! TA.AperFunction,NonPlated,NPTH,ComponentDrill
T2C0.0256
; #@! TA.AperFunction,NonPlated,NPTH,ComponentDrill
T3C0.1260
%
G90
G05
T1
X4.6555Y-1.2697
X4.6555Y-1.2992
X4.6555Y-1.3287
X4.7146Y-1.2697
X4.7146Y-1.2992
X4.7146Y-1.3287
X5.4429Y-1.1122
X5.4429Y-1.1713
X5.4724Y-1.1122
X5.4724Y-1.1713
X5.502Y-1.1122
X5.502Y-1.1713
X6.9783Y-1.1122
X6.9783Y-1.1713
X7.0079Y-1.1122
X7.0079Y-1.1713
X7.0374Y-1.1122
X7.0374Y-1.1713
X8.6713Y-1.1122
X8.6713Y-1.1713
X8.7008Y-1.1122
X8.7008Y-1.1713
X8.7303Y-1.1122
X8.7303Y-1.1713
T2
X0.2102Y-0.1028
X0.2102Y-0.3303
T3
X0.6299Y-1.4173
X1.6929Y-1.4173
X2.0669Y-0.2165
X5.1181Y-0.9449
X8.4646Y-0.2362
X9.252Y-0.9449
T0
M30
