%TF.GenerationSoftware,KiCad,Pcbnew,(6.0.1)*%
%TF.CreationDate,2022-01-22T16:32:06+01:00*%
%TF.ProjectId,MoBo and Touchbar,4d6f426f-2061-46e6-9420-546f75636862,rev?*%
%TF.SameCoordinates,Original*%
%TF.FileFunction,Copper,L1,Top*%
%TF.FilePolarity,Positive*%
%FSLAX46Y46*%
G04 Gerber Fmt 4.6, Leading zero omitted, Abs format (unit mm)*
G04 Created by KiCad (PCBNEW (6.0.1)) date 2022-01-22 16:32:06*
%MOMM*%
%LPD*%
G01*
G04 APERTURE LIST*
G04 Aperture macros list*
%AMRoundRect*
0 Rectangle with rounded corners*
0 $1 Rounding radius*
0 $2 $3 $4 $5 $6 $7 $8 $9 X,Y pos of 4 corners*
0 Add a 4 corners polygon primitive as box body*
4,1,4,$2,$3,$4,$5,$6,$7,$8,$9,$2,$3,0*
0 Add four circle primitives for the rounded corners*
1,1,$1+$1,$2,$3*
1,1,$1+$1,$4,$5*
1,1,$1+$1,$6,$7*
1,1,$1+$1,$8,$9*
0 Add four rect primitives between the rounded corners*
20,1,$1+$1,$2,$3,$4,$5,0*
20,1,$1+$1,$4,$5,$6,$7,0*
20,1,$1+$1,$6,$7,$8,$9,0*
20,1,$1+$1,$8,$9,$2,$3,0*%
G04 Aperture macros list end*
%TA.AperFunction,SMDPad,CuDef*%
%ADD10RoundRect,0.150000X-0.587500X-0.150000X0.587500X-0.150000X0.587500X0.150000X-0.587500X0.150000X0*%
%TD*%
%TA.AperFunction,SMDPad,CuDef*%
%ADD11RoundRect,0.250000X-0.250000X-0.475000X0.250000X-0.475000X0.250000X0.475000X-0.250000X0.475000X0*%
%TD*%
%TA.AperFunction,SMDPad,CuDef*%
%ADD12RoundRect,0.225000X0.250000X-0.225000X0.250000X0.225000X-0.250000X0.225000X-0.250000X-0.225000X0*%
%TD*%
%TA.AperFunction,SMDPad,CuDef*%
%ADD13RoundRect,0.200000X-0.275000X0.200000X-0.275000X-0.200000X0.275000X-0.200000X0.275000X0.200000X0*%
%TD*%
%TA.AperFunction,ComponentPad*%
%ADD14C,1.500000*%
%TD*%
%TA.AperFunction,ComponentPad*%
%ADD15R,1.700000X1.700000*%
%TD*%
%TA.AperFunction,ComponentPad*%
%ADD16O,1.700000X1.700000*%
%TD*%
%TA.AperFunction,SMDPad,CuDef*%
%ADD17RoundRect,0.200000X-0.200000X-0.275000X0.200000X-0.275000X0.200000X0.275000X-0.200000X0.275000X0*%
%TD*%
%TA.AperFunction,SMDPad,CuDef*%
%ADD18R,1.200000X0.900000*%
%TD*%
%TA.AperFunction,SMDPad,CuDef*%
%ADD19R,1.500000X2.000000*%
%TD*%
%TA.AperFunction,SMDPad,CuDef*%
%ADD20R,3.800000X2.000000*%
%TD*%
%TA.AperFunction,ComponentPad*%
%ADD21R,2.000000X2.000000*%
%TD*%
%TA.AperFunction,ComponentPad*%
%ADD22C,2.000000*%
%TD*%
%TA.AperFunction,ComponentPad*%
%ADD23R,1.600000X1.600000*%
%TD*%
%TA.AperFunction,ComponentPad*%
%ADD24C,1.600000*%
%TD*%
%TA.AperFunction,SMDPad,CuDef*%
%ADD25RoundRect,0.225000X0.335876X0.017678X0.017678X0.335876X-0.335876X-0.017678X-0.017678X-0.335876X0*%
%TD*%
%TA.AperFunction,SMDPad,CuDef*%
%ADD26RoundRect,0.200000X0.200000X0.275000X-0.200000X0.275000X-0.200000X-0.275000X0.200000X-0.275000X0*%
%TD*%
%TA.AperFunction,SMDPad,CuDef*%
%ADD27RoundRect,0.150000X0.150000X-0.587500X0.150000X0.587500X-0.150000X0.587500X-0.150000X-0.587500X0*%
%TD*%
%TA.AperFunction,SMDPad,CuDef*%
%ADD28RoundRect,0.225000X-0.250000X0.225000X-0.250000X-0.225000X0.250000X-0.225000X0.250000X0.225000X0*%
%TD*%
%TA.AperFunction,ComponentPad*%
%ADD29C,1.000000*%
%TD*%
%TA.AperFunction,ComponentPad*%
%ADD30R,1.000000X1.000000*%
%TD*%
%TA.AperFunction,SMDPad,CuDef*%
%ADD31R,6.000000X2.500000*%
%TD*%
%TA.AperFunction,SMDPad,CuDef*%
%ADD32RoundRect,0.150000X0.825000X0.150000X-0.825000X0.150000X-0.825000X-0.150000X0.825000X-0.150000X0*%
%TD*%
%TA.AperFunction,SMDPad,CuDef*%
%ADD33RoundRect,0.250000X0.250000X0.475000X-0.250000X0.475000X-0.250000X-0.475000X0.250000X-0.475000X0*%
%TD*%
%TA.AperFunction,SMDPad,CuDef*%
%ADD34RoundRect,0.225000X0.225000X0.250000X-0.225000X0.250000X-0.225000X-0.250000X0.225000X-0.250000X0*%
%TD*%
%TA.AperFunction,SMDPad,CuDef*%
%ADD35R,1.450000X0.600000*%
%TD*%
%TA.AperFunction,SMDPad,CuDef*%
%ADD36R,1.450000X0.300000*%
%TD*%
%TA.AperFunction,ComponentPad*%
%ADD37O,2.100000X1.000000*%
%TD*%
%TA.AperFunction,ComponentPad*%
%ADD38O,1.600000X1.000000*%
%TD*%
%TA.AperFunction,SMDPad,CuDef*%
%ADD39RoundRect,0.250000X0.475000X-0.250000X0.475000X0.250000X-0.475000X0.250000X-0.475000X-0.250000X0*%
%TD*%
%TA.AperFunction,SMDPad,CuDef*%
%ADD40RoundRect,0.200000X0.275000X-0.200000X0.275000X0.200000X-0.275000X0.200000X-0.275000X-0.200000X0*%
%TD*%
%TA.AperFunction,ComponentPad*%
%ADD41C,2.100000*%
%TD*%
%TA.AperFunction,ComponentPad*%
%ADD42C,1.750000*%
%TD*%
%TA.AperFunction,ComponentPad*%
%ADD43R,1.100000X1.800000*%
%TD*%
%TA.AperFunction,ComponentPad*%
%ADD44RoundRect,0.275000X0.275000X0.625000X-0.275000X0.625000X-0.275000X-0.625000X0.275000X-0.625000X0*%
%TD*%
%TA.AperFunction,SMDPad,CuDef*%
%ADD45RoundRect,0.200000X-0.335876X-0.053033X-0.053033X-0.335876X0.335876X0.053033X0.053033X0.335876X0*%
%TD*%
%TA.AperFunction,SMDPad,CuDef*%
%ADD46RoundRect,0.150000X-0.825000X-0.150000X0.825000X-0.150000X0.825000X0.150000X-0.825000X0.150000X0*%
%TD*%
%TA.AperFunction,SMDPad,CuDef*%
%ADD47R,2.000000X0.900000*%
%TD*%
%TA.AperFunction,SMDPad,CuDef*%
%ADD48R,0.900000X2.000000*%
%TD*%
%TA.AperFunction,SMDPad,CuDef*%
%ADD49R,5.000000X5.000000*%
%TD*%
%TA.AperFunction,SMDPad,CuDef*%
%ADD50RoundRect,0.150000X0.587500X0.150000X-0.587500X0.150000X-0.587500X-0.150000X0.587500X-0.150000X0*%
%TD*%
%TA.AperFunction,ViaPad*%
%ADD51C,1.000000*%
%TD*%
%TA.AperFunction,ViaPad*%
%ADD52C,0.600000*%
%TD*%
%TA.AperFunction,ViaPad*%
%ADD53C,1.400000*%
%TD*%
%TA.AperFunction,ViaPad*%
%ADD54C,0.800000*%
%TD*%
%TA.AperFunction,Conductor*%
%ADD55C,1.270000*%
%TD*%
%TA.AperFunction,Conductor*%
%ADD56C,0.254000*%
%TD*%
%TA.AperFunction,Conductor*%
%ADD57C,0.508000*%
%TD*%
%TA.AperFunction,Conductor*%
%ADD58C,0.762000*%
%TD*%
%TA.AperFunction,Conductor*%
%ADD59C,1.524000*%
%TD*%
%TA.AperFunction,Conductor*%
%ADD60C,0.127000*%
%TD*%
%TA.AperFunction,Conductor*%
%ADD61C,0.203200*%
%TD*%
G04 APERTURE END LIST*
D10*
%TO.P,Q3,1,B*%
%TO.N,Net-(Q3-Pad1)*%
X42750500Y-15179000D03*
%TO.P,Q3,2,E*%
%TO.N,Net-(Q3-Pad2)*%
X42750500Y-17079000D03*
%TO.P,Q3,3,C*%
%TO.N,/USB+Power/ESP_GPIO0*%
X44625500Y-16129000D03*
%TD*%
D11*
%TO.P,C13,1*%
%TO.N,+3V3*%
X32070000Y-10668000D03*
%TO.P,C13,2*%
%TO.N,GND*%
X33970000Y-10668000D03*
%TD*%
D12*
%TO.P,C4,1*%
%TO.N,GND*%
X8509000Y-15126000D03*
%TO.P,C4,2*%
%TO.N,BUTTON1*%
X8509000Y-13576000D03*
%TD*%
D13*
%TO.P,R1,1*%
%TO.N,BUZZER*%
X193675000Y-13907000D03*
%TO.P,R1,2*%
%TO.N,GND*%
X193675000Y-15557000D03*
%TD*%
D12*
%TO.P,C7,1*%
%TO.N,+3V3*%
X191262000Y-5728000D03*
%TO.P,C7,2*%
%TO.N,GND*%
X191262000Y-4178000D03*
%TD*%
D14*
%TO.P,R14,1*%
%TO.N,+3V3*%
X113300000Y-37300000D03*
%TO.P,R14,2*%
%TO.N,LIGHT2*%
X116700000Y-37300000D03*
%TD*%
D15*
%TO.P,J4,1,Pin_1*%
%TO.N,+5V*%
X167000000Y-6000000D03*
D16*
%TO.P,J4,2,Pin_2*%
X167000000Y-3460000D03*
%TO.P,J4,3,Pin_3*%
%TO.N,Net-(J3-Pad5)*%
X169540000Y-6000000D03*
%TO.P,J4,4,Pin_4*%
X169540000Y-3460000D03*
%TO.P,J4,5,Pin_5*%
%TO.N,Net-(J4-Pad5)*%
X172080000Y-6000000D03*
%TO.P,J4,6,Pin_6*%
X172080000Y-3460000D03*
%TO.P,J4,7,Pin_7*%
%TO.N,GND*%
X174620000Y-6000000D03*
%TO.P,J4,8,Pin_8*%
X174620000Y-3460000D03*
%TD*%
D17*
%TO.P,R15,1*%
%TO.N,LIGHT2*%
X113856000Y-22352000D03*
%TO.P,R15,2*%
%TO.N,GND*%
X115506000Y-22352000D03*
%TD*%
%TO.P,R4,1*%
%TO.N,Net-(J7-PadB8)*%
X13526000Y-2921000D03*
%TO.P,R4,2*%
%TO.N,GND*%
X15176000Y-2921000D03*
%TD*%
D18*
%TO.P,D1,1,K*%
%TO.N,+5V*%
X214376000Y-11812000D03*
%TO.P,D1,2,A*%
%TO.N,Net-(BZ1-Pad2)*%
X214376000Y-15112000D03*
%TD*%
D15*
%TO.P,J1,1,Pin_1*%
%TO.N,+5V*%
X26000000Y-6000000D03*
D16*
%TO.P,J1,2,Pin_2*%
X26000000Y-3460000D03*
%TO.P,J1,3,Pin_3*%
%TO.N,WS2812*%
X28540000Y-6000000D03*
%TO.P,J1,4,Pin_4*%
X28540000Y-3460000D03*
%TO.P,J1,5,Pin_5*%
%TO.N,Net-(J1-Pad5)*%
X31080000Y-6000000D03*
%TO.P,J1,6,Pin_6*%
X31080000Y-3460000D03*
%TO.P,J1,7,Pin_7*%
%TO.N,GND*%
X33620000Y-6000000D03*
%TO.P,J1,8,Pin_8*%
X33620000Y-3460000D03*
%TD*%
D10*
%TO.P,Q1,1,G*%
%TO.N,BUZZER*%
X195658500Y-13782000D03*
%TO.P,Q1,2,S*%
%TO.N,GND*%
X195658500Y-15682000D03*
%TO.P,Q1,3,D*%
%TO.N,Net-(BZ1-Pad2)*%
X197533500Y-14732000D03*
%TD*%
D19*
%TO.P,U4,1,GND*%
%TO.N,GND*%
X109361000Y-28092000D03*
D20*
%TO.P,U4,2,VO*%
%TO.N,+3V3*%
X107061000Y-34392000D03*
D19*
X107061000Y-28092000D03*
%TO.P,U4,3,VI*%
%TO.N,+5V*%
X104761000Y-28092000D03*
%TD*%
D15*
%TO.P,J3,1,Pin_1*%
%TO.N,+5V*%
X128000000Y-6000000D03*
D16*
%TO.P,J3,2,Pin_2*%
X128000000Y-3460000D03*
%TO.P,J3,3,Pin_3*%
%TO.N,Net-(J2-Pad5)*%
X130540000Y-6000000D03*
%TO.P,J3,4,Pin_4*%
X130540000Y-3460000D03*
%TO.P,J3,5,Pin_5*%
%TO.N,Net-(J3-Pad5)*%
X133080000Y-6000000D03*
%TO.P,J3,6,Pin_6*%
X133080000Y-3460000D03*
%TO.P,J3,7,Pin_7*%
%TO.N,GND*%
X135620000Y-6000000D03*
%TO.P,J3,8,Pin_8*%
X135620000Y-3460000D03*
%TD*%
D21*
%TO.P,BZ1,1,-*%
%TO.N,+5V*%
X205359000Y-9281000D03*
D22*
%TO.P,BZ1,2,+*%
%TO.N,Net-(BZ1-Pad2)*%
X205359000Y-16881000D03*
%TD*%
D17*
%TO.P,R5,1*%
%TO.N,GND*%
X14542000Y-12192000D03*
%TO.P,R5,2*%
%TO.N,CC1*%
X16192000Y-12192000D03*
%TD*%
D23*
%TO.P,C10,1*%
%TO.N,Net-(C10-Pad1)*%
X139446000Y-17613621D03*
D24*
%TO.P,C10,2*%
%TO.N,GND*%
X139446000Y-20113621D03*
%TD*%
D15*
%TO.P,J8,1,Pin_1*%
%TO.N,+5V*%
X231282000Y-11049000D03*
D16*
%TO.P,J8,2,Pin_2*%
%TO.N,Net-(J5-Pad5)*%
X233822000Y-11049000D03*
%TO.P,J8,3,Pin_3*%
%TO.N,GND*%
X236362000Y-11049000D03*
%TD*%
D12*
%TO.P,C5,1*%
%TO.N,GND*%
X8509000Y-24778000D03*
%TO.P,C5,2*%
%TO.N,BUTTON2*%
X8509000Y-23228000D03*
%TD*%
D17*
%TO.P,R17,1*%
%TO.N,+5V*%
X26480000Y-8890000D03*
%TO.P,R17,2*%
%TO.N,WS2812*%
X28130000Y-8890000D03*
%TD*%
D25*
%TO.P,C3,1*%
%TO.N,GND*%
X87416008Y-21122008D03*
%TO.P,C3,2*%
%TO.N,/USB+Power/ESP_RST*%
X86319992Y-20025992D03*
%TD*%
D26*
%TO.P,R10,1*%
%TO.N,Net-(Q2-Pad1)*%
X36321000Y-16967000D03*
%TO.P,R10,2*%
%TO.N,Net-(Q3-Pad2)*%
X34671000Y-16967000D03*
%TD*%
D27*
%TO.P,Q4,1,G*%
%TO.N,+3V3*%
X44516000Y-9065500D03*
%TO.P,Q4,2,S*%
%TO.N,Net-(Q4-Pad2)*%
X46416000Y-9065500D03*
%TO.P,Q4,3,D*%
%TO.N,WS2812*%
X45466000Y-7190500D03*
%TD*%
D14*
%TO.P,R12,1*%
%TO.N,+3V3*%
X113300000Y-5500000D03*
%TO.P,R12,2*%
%TO.N,LIGHT1*%
X116700000Y-5500000D03*
%TD*%
D28*
%TO.P,C8,1*%
%TO.N,Net-(C8-Pad1)*%
X154940000Y-15494000D03*
%TO.P,C8,2*%
%TO.N,GND*%
X154940000Y-17044000D03*
%TD*%
D29*
%TO.P,Y1,1,1*%
%TO.N,Net-(C8-Pad1)*%
X157036000Y-15682000D03*
%TO.P,Y1,2,2*%
%TO.N,Net-(C9-Pad1)*%
X157036000Y-13782000D03*
D30*
%TO.P,Y1,3,3*%
%TO.N,GND*%
X162536000Y-13232000D03*
X162536000Y-16232000D03*
D31*
X162536000Y-14732000D03*
%TD*%
D32*
%TO.P,U3,1,VCC2*%
%TO.N,+3V3*%
X152335000Y-16383000D03*
%TO.P,U3,2,X1*%
%TO.N,Net-(C8-Pad1)*%
X152335000Y-15113000D03*
%TO.P,U3,3,X2*%
%TO.N,Net-(C9-Pad1)*%
X152335000Y-13843000D03*
%TO.P,U3,4,GND*%
%TO.N,GND*%
X152335000Y-12573000D03*
%TO.P,U3,5,CE*%
%TO.N,CE*%
X147385000Y-12573000D03*
%TO.P,U3,6,I/O*%
%TO.N,IO*%
X147385000Y-13843000D03*
%TO.P,U3,7,SCLK*%
%TO.N,SCLK*%
X147385000Y-15113000D03*
%TO.P,U3,8,VCC1*%
%TO.N,Net-(C10-Pad1)*%
X147385000Y-16383000D03*
%TD*%
D33*
%TO.P,C14,1*%
%TO.N,+5V*%
X104709000Y-25146000D03*
%TO.P,C14,2*%
%TO.N,GND*%
X102809000Y-25146000D03*
%TD*%
D34*
%TO.P,C16,1*%
%TO.N,+3V3*%
X30239000Y-10922000D03*
%TO.P,C16,2*%
%TO.N,GND*%
X28689000Y-10922000D03*
%TD*%
D17*
%TO.P,R8,1*%
%TO.N,/USB+Power/ESP_RX*%
X22035000Y-14224000D03*
%TO.P,R8,2*%
%TO.N,Net-(R8-Pad2)*%
X23685000Y-14224000D03*
%TD*%
D12*
%TO.P,C6,1*%
%TO.N,GND*%
X8509000Y-34684000D03*
%TO.P,C6,2*%
%TO.N,BUTTON3*%
X8509000Y-33134000D03*
%TD*%
%TO.P,C9,1*%
%TO.N,Net-(C9-Pad1)*%
X154940000Y-13475000D03*
%TO.P,C9,2*%
%TO.N,GND*%
X154940000Y-11925000D03*
%TD*%
D35*
%TO.P,J7,A1,GND*%
%TO.N,GND*%
X6785000Y-2250000D03*
%TO.P,J7,A4,VBUS*%
%TO.N,+5V*%
X6785000Y-3050000D03*
D36*
%TO.P,J7,A5,CC1*%
%TO.N,CC1*%
X6785000Y-4250000D03*
%TO.P,J7,A6,D+*%
%TO.N,/USB+Power/D+*%
X6785000Y-5250000D03*
%TO.P,J7,A7,D-*%
%TO.N,/USB+Power/D-*%
X6785000Y-5750000D03*
%TO.P,J7,A8,SBU1*%
%TO.N,Net-(J7-PadA8)*%
X6785000Y-6750000D03*
D35*
%TO.P,J7,A9,VBUS*%
%TO.N,+5V*%
X6785000Y-7950000D03*
%TO.P,J7,A12,GND*%
%TO.N,GND*%
X6785000Y-8750000D03*
%TO.P,J7,B1,GND*%
X6785000Y-8750000D03*
%TO.P,J7,B4,VBUS*%
%TO.N,+5V*%
X6785000Y-7950000D03*
D36*
%TO.P,J7,B5,CC2*%
%TO.N,CC2*%
X6785000Y-7250000D03*
%TO.P,J7,B6,D+*%
%TO.N,/USB+Power/D+*%
X6785000Y-6250000D03*
%TO.P,J7,B7,D-*%
%TO.N,/USB+Power/D-*%
X6785000Y-4750000D03*
%TO.P,J7,B8,SBU2*%
%TO.N,Net-(J7-PadB8)*%
X6785000Y-3750000D03*
D35*
%TO.P,J7,B9,VBUS*%
%TO.N,+5V*%
X6785000Y-3050000D03*
%TO.P,J7,B12,GND*%
%TO.N,GND*%
X6785000Y-2250000D03*
D37*
%TO.P,J7,S1,SHIELD*%
%TO.N,unconnected-(J7-PadS1)*%
X5870000Y-9820000D03*
D38*
X1690000Y-1180000D03*
X1690000Y-9820000D03*
D37*
X5870000Y-1180000D03*
%TD*%
D17*
%TO.P,R16,1*%
%TO.N,+3V3*%
X44641000Y-11303000D03*
%TO.P,R16,2*%
%TO.N,Net-(Q4-Pad2)*%
X46291000Y-11303000D03*
%TD*%
D15*
%TO.P,J6,1,Pin_1*%
%TO.N,TOUCH9*%
X82000000Y-34500000D03*
D16*
%TO.P,J6,2,Pin_2*%
%TO.N,TOUCH8*%
X84540000Y-34500000D03*
%TO.P,J6,3,Pin_3*%
%TO.N,TOUCH7*%
X87080000Y-34500000D03*
%TO.P,J6,4,Pin_4*%
%TO.N,TOUCH6*%
X89620000Y-34500000D03*
%TO.P,J6,5,Pin_5*%
%TO.N,TOUCH5*%
X92160000Y-34500000D03*
%TO.P,J6,6,Pin_6*%
%TO.N,GND*%
X94700000Y-34500000D03*
%TD*%
D17*
%TO.P,R9,1*%
%TO.N,/USB+Power/ESP_TX*%
X22035000Y-15748000D03*
%TO.P,R9,2*%
%TO.N,Net-(R9-Pad2)*%
X23685000Y-15748000D03*
%TD*%
D13*
%TO.P,R13,1*%
%TO.N,LIGHT1*%
X116840000Y-8700000D03*
%TO.P,R13,2*%
%TO.N,GND*%
X116840000Y-10350000D03*
%TD*%
D39*
%TO.P,C2,1*%
%TO.N,+3V3*%
X115316000Y-29906000D03*
%TO.P,C2,2*%
%TO.N,GND*%
X115316000Y-28006000D03*
%TD*%
D40*
%TO.P,R7,1*%
%TO.N,GND*%
X11684000Y-9334000D03*
%TO.P,R7,2*%
%TO.N,CC2*%
X11684000Y-7684000D03*
%TD*%
D41*
%TO.P,SW1,*%
%TO.N,*%
X5352500Y-12215000D03*
X5352500Y-19225000D03*
D42*
%TO.P,SW1,1,A*%
%TO.N,GND*%
X2862500Y-17975000D03*
%TO.P,SW1,2,B*%
%TO.N,BUTTON1*%
X2862500Y-13475000D03*
%TD*%
D17*
%TO.P,R3,1*%
%TO.N,+3V3*%
X189929000Y-7620000D03*
%TO.P,R3,2*%
%TO.N,TEMPERATURE*%
X191579000Y-7620000D03*
%TD*%
D34*
%TO.P,C12,1*%
%TO.N,+5V*%
X104534000Y-23241000D03*
%TO.P,C12,2*%
%TO.N,GND*%
X102984000Y-23241000D03*
%TD*%
D43*
%TO.P,U2,1,GND*%
%TO.N,GND*%
X196469000Y-5049000D03*
D44*
%TO.P,U2,2,DQ*%
%TO.N,TEMPERATURE*%
X195199000Y-7119000D03*
%TO.P,U2,3,VDD*%
%TO.N,+3V3*%
X193929000Y-5049000D03*
%TD*%
D41*
%TO.P,SW2,*%
%TO.N,*%
X5352500Y-21915000D03*
X5352500Y-28925000D03*
D42*
%TO.P,SW2,1,A*%
%TO.N,GND*%
X2862500Y-27675000D03*
%TO.P,SW2,2,B*%
%TO.N,BUTTON2*%
X2862500Y-23175000D03*
%TD*%
D41*
%TO.P,SW3,*%
%TO.N,*%
X5352500Y-31615000D03*
X5352500Y-38625000D03*
D42*
%TO.P,SW3,1,A*%
%TO.N,GND*%
X2862500Y-37375000D03*
%TO.P,SW3,2,B*%
%TO.N,BUTTON3*%
X2862500Y-32875000D03*
%TD*%
D26*
%TO.P,R11,1*%
%TO.N,Net-(Q3-Pad1)*%
X36321000Y-15367000D03*
%TO.P,R11,2*%
%TO.N,Net-(Q2-Pad2)*%
X34671000Y-15367000D03*
%TD*%
D45*
%TO.P,R2,1*%
%TO.N,+3V3*%
X84124800Y-17780000D03*
%TO.P,R2,2*%
%TO.N,/USB+Power/ESP_RST*%
X85291526Y-18946726D03*
%TD*%
D15*
%TO.P,J5,1,Pin_1*%
%TO.N,+5V*%
X230000000Y-6000000D03*
D16*
%TO.P,J5,2,Pin_2*%
X230000000Y-3460000D03*
%TO.P,J5,3,Pin_3*%
%TO.N,Net-(J4-Pad5)*%
X232540000Y-6000000D03*
%TO.P,J5,4,Pin_4*%
X232540000Y-3460000D03*
%TO.P,J5,5,Pin_5*%
%TO.N,Net-(J5-Pad5)*%
X235080000Y-6000000D03*
%TO.P,J5,6,Pin_6*%
X235080000Y-3460000D03*
%TO.P,J5,7,Pin_7*%
%TO.N,GND*%
X237620000Y-6000000D03*
%TO.P,J5,8,Pin_8*%
X237620000Y-3460000D03*
%TD*%
D34*
%TO.P,C1,1*%
%TO.N,+3V3*%
X75705000Y-31623000D03*
%TO.P,C1,2*%
%TO.N,GND*%
X74155000Y-31623000D03*
%TD*%
D23*
%TO.P,C11,1*%
%TO.N,+5V*%
X104587112Y-13208000D03*
D24*
%TO.P,C11,2*%
%TO.N,GND*%
X102587112Y-13208000D03*
%TD*%
D46*
%TO.P,U5,1,GND*%
%TO.N,GND*%
X26525000Y-12955000D03*
%TO.P,U5,2,TXD*%
%TO.N,Net-(R8-Pad2)*%
X26525000Y-14225000D03*
%TO.P,U5,3,RXD*%
%TO.N,Net-(R9-Pad2)*%
X26525000Y-15495000D03*
%TO.P,U5,4,V3*%
%TO.N,+3V3*%
X26525000Y-16765000D03*
%TO.P,U5,5,UD+*%
%TO.N,/USB+Power/D+*%
X26525000Y-18035000D03*
%TO.P,U5,6,UD-*%
%TO.N,/USB+Power/D-*%
X26525000Y-19305000D03*
%TO.P,U5,7,NC*%
%TO.N,unconnected-(U5-Pad7)*%
X26525000Y-20575000D03*
%TO.P,U5,8,NC*%
%TO.N,unconnected-(U5-Pad8)*%
X26525000Y-21845000D03*
%TO.P,U5,9,~{CTS}*%
%TO.N,unconnected-(U5-Pad9)*%
X31475000Y-21845000D03*
%TO.P,U5,10,~{DSR}*%
%TO.N,unconnected-(U5-Pad10)*%
X31475000Y-20575000D03*
%TO.P,U5,11,~{RI}*%
%TO.N,unconnected-(U5-Pad11)*%
X31475000Y-19305000D03*
%TO.P,U5,12,~{DCD}*%
%TO.N,unconnected-(U5-Pad12)*%
X31475000Y-18035000D03*
%TO.P,U5,13,~{DTR}*%
%TO.N,Net-(Q3-Pad2)*%
X31475000Y-16765000D03*
%TO.P,U5,14,~{RTS}*%
%TO.N,Net-(Q2-Pad2)*%
X31475000Y-15495000D03*
%TO.P,U5,15,R232*%
%TO.N,unconnected-(U5-Pad15)*%
X31475000Y-14225000D03*
%TO.P,U5,16,VCC*%
%TO.N,+3V3*%
X31475000Y-12955000D03*
%TD*%
D47*
%TO.P,U1,1,GND*%
%TO.N,GND*%
X71746000Y-31623000D03*
%TO.P,U1,2,VDD*%
%TO.N,+3V3*%
X71746000Y-30353000D03*
%TO.P,U1,3,EN*%
%TO.N,/USB+Power/ESP_RST*%
X71746000Y-29083000D03*
%TO.P,U1,4,SENSOR_VP*%
%TO.N,CC1*%
X71746000Y-27813000D03*
%TO.P,U1,5,SENSOR_VN*%
%TO.N,CC2*%
X71746000Y-26543000D03*
%TO.P,U1,6,IO34*%
%TO.N,LIGHT2*%
X71746000Y-25273000D03*
%TO.P,U1,7,IO35*%
%TO.N,LIGHT1*%
X71746000Y-24003000D03*
%TO.P,U1,8,IO32*%
%TO.N,TOUCH9*%
X71746000Y-22733000D03*
%TO.P,U1,9,IO33*%
%TO.N,TOUCH8*%
X71746000Y-21463000D03*
%TO.P,U1,10,IO25*%
%TO.N,SCLK*%
X71746000Y-20193000D03*
%TO.P,U1,11,IO26*%
%TO.N,unconnected-(U1-Pad11)*%
X71746000Y-18923000D03*
%TO.P,U1,12,IO27*%
%TO.N,TOUCH7*%
X71746000Y-17653000D03*
%TO.P,U1,13,IO14*%
%TO.N,TOUCH6*%
X71746000Y-16383000D03*
%TO.P,U1,14,IO12*%
%TO.N,TOUCH5*%
X71746000Y-15113000D03*
D48*
%TO.P,U1,15,GND*%
%TO.N,GND*%
X68961000Y-14113000D03*
%TO.P,U1,16,IO13*%
%TO.N,CE*%
X67691000Y-14113000D03*
%TO.P,U1,17,SHD/SD2*%
%TO.N,unconnected-(U1-Pad17)*%
X66421000Y-14113000D03*
%TO.P,U1,18,SWP/SD3*%
%TO.N,unconnected-(U1-Pad18)*%
X65151000Y-14113000D03*
%TO.P,U1,19,SCS/CMD*%
%TO.N,unconnected-(U1-Pad19)*%
X63881000Y-14113000D03*
%TO.P,U1,20,SCK/CLK*%
%TO.N,unconnected-(U1-Pad20)*%
X62611000Y-14113000D03*
%TO.P,U1,21,SDO/SD0*%
%TO.N,unconnected-(U1-Pad21)*%
X61341000Y-14113000D03*
%TO.P,U1,22,SDI/SD1*%
%TO.N,unconnected-(U1-Pad22)*%
X60071000Y-14113000D03*
%TO.P,U1,23,IO15*%
%TO.N,unconnected-(U1-Pad23)*%
X58801000Y-14113000D03*
%TO.P,U1,24,IO2*%
%TO.N,unconnected-(U1-Pad24)*%
X57531000Y-14113000D03*
D47*
%TO.P,U1,25,IO0*%
%TO.N,/USB+Power/ESP_GPIO0*%
X54746000Y-15113000D03*
%TO.P,U1,26,IO4*%
%TO.N,unconnected-(U1-Pad26)*%
X54746000Y-16383000D03*
%TO.P,U1,27,IO16*%
%TO.N,Net-(Q4-Pad2)*%
X54746000Y-17653000D03*
%TO.P,U1,28,IO17*%
%TO.N,BUZZER*%
X54746000Y-18923000D03*
%TO.P,U1,29,IO5*%
%TO.N,unconnected-(U1-Pad29)*%
X54746000Y-20193000D03*
%TO.P,U1,30,IO18*%
%TO.N,BUTTON1*%
X54746000Y-21463000D03*
%TO.P,U1,31,IO19*%
%TO.N,BUTTON2*%
X54746000Y-22733000D03*
%TO.P,U1,32,NC*%
%TO.N,unconnected-(U1-Pad32)*%
X54746000Y-24003000D03*
%TO.P,U1,33,IO21*%
%TO.N,BUTTON3*%
X54746000Y-25273000D03*
%TO.P,U1,34,RXD0/IO3*%
%TO.N,/USB+Power/ESP_RX*%
X54746000Y-26543000D03*
%TO.P,U1,35,TXD0/IO1*%
%TO.N,/USB+Power/ESP_TX*%
X54746000Y-27813000D03*
%TO.P,U1,36,IO22*%
%TO.N,TEMPERATURE*%
X54746000Y-29083000D03*
%TO.P,U1,37,IO23*%
%TO.N,IO*%
X54746000Y-30353000D03*
%TO.P,U1,38,GND*%
%TO.N,GND*%
X54746000Y-31623000D03*
D49*
%TO.P,U1,39,GND*%
X64246000Y-24123000D03*
%TD*%
D13*
%TO.P,R6,1*%
%TO.N,Net-(J7-PadA8)*%
X13843000Y-6795000D03*
%TO.P,R6,2*%
%TO.N,GND*%
X13843000Y-8445000D03*
%TD*%
D15*
%TO.P,J2,1,Pin_1*%
%TO.N,+5V*%
X89000000Y-6000000D03*
D16*
%TO.P,J2,2,Pin_2*%
X89000000Y-3460000D03*
%TO.P,J2,3,Pin_3*%
%TO.N,Net-(J1-Pad5)*%
X91540000Y-6000000D03*
%TO.P,J2,4,Pin_4*%
X91540000Y-3460000D03*
%TO.P,J2,5,Pin_5*%
%TO.N,Net-(J2-Pad5)*%
X94080000Y-6000000D03*
%TO.P,J2,6,Pin_6*%
X94080000Y-3460000D03*
%TO.P,J2,7,Pin_7*%
%TO.N,GND*%
X96620000Y-6000000D03*
%TO.P,J2,8,Pin_8*%
X96620000Y-3460000D03*
%TD*%
D23*
%TO.P,C19,1*%
%TO.N,+3V3*%
X100711000Y-29657113D03*
D24*
%TO.P,C19,2*%
%TO.N,GND*%
X100711000Y-27657113D03*
%TD*%
D28*
%TO.P,C18,1*%
%TO.N,+3V3*%
X152400000Y-18275000D03*
%TO.P,C18,2*%
%TO.N,GND*%
X152400000Y-19825000D03*
%TD*%
D18*
%TO.P,D2,1,K*%
%TO.N,+3V3*%
X113030000Y-30352000D03*
%TO.P,D2,2,A*%
%TO.N,GND*%
X113030000Y-27052000D03*
%TD*%
D50*
%TO.P,Q2,1,B*%
%TO.N,Net-(Q2-Pad1)*%
X40307500Y-17079000D03*
%TO.P,Q2,2,E*%
%TO.N,Net-(Q2-Pad2)*%
X40307500Y-15179000D03*
%TO.P,Q2,3,C*%
%TO.N,/USB+Power/ESP_RST*%
X38432500Y-16129000D03*
%TD*%
D15*
%TO.P,J1,1,Pin_1*%
%TO.N,TOUCH9*%
X134000000Y-38000000D03*
D16*
%TO.P,J1,2,Pin_2*%
%TO.N,TOUCH8*%
X136540000Y-38000000D03*
%TO.P,J1,3,Pin_3*%
%TO.N,TOUCH7*%
X139080000Y-38000000D03*
%TO.P,J1,4,Pin_4*%
%TO.N,TOUCH6*%
X141620000Y-38000000D03*
%TO.P,J1,5,Pin_5*%
%TO.N,TOUCH5*%
X144160000Y-38000000D03*
%TO.P,J1,6,Pin_6*%
%TO.N,GND*%
X146700000Y-38000000D03*
%TD*%
D51*
%TO.N,+5V*%
X15992480Y-1152520D03*
D52*
X205359000Y-3429000D03*
D51*
X17516480Y-1152520D03*
D52*
X9017000Y-2794000D03*
X8636000Y-7874000D03*
D51*
X14595480Y-1152520D03*
D53*
%TO.N,+3V3*%
X108077000Y-22870500D03*
D52*
X185928000Y-8509000D03*
X185928000Y-10795000D03*
D53*
X108077000Y-20817500D03*
D52*
%TO.N,GND*%
X75247500Y-23685500D03*
X82042000Y-24892000D03*
D54*
X154940000Y-10668000D03*
D52*
X84963000Y-27813000D03*
X8509000Y-26162000D03*
X86106000Y-28702000D03*
D54*
X35306000Y-10668000D03*
X63246000Y-22098000D03*
X63246000Y-25146000D03*
X65278000Y-22098000D03*
D52*
X8509000Y-35941000D03*
D54*
X63246000Y-26162000D03*
X66294000Y-26162000D03*
X114929286Y-26802714D03*
X27305000Y-10922000D03*
X152400000Y-21209000D03*
D52*
X78676500Y-27114500D03*
X77724000Y-20574000D03*
D54*
X64262000Y-25146000D03*
D52*
X79883000Y-22733000D03*
X80899000Y-29337000D03*
X189865000Y-4191000D03*
D54*
X116840000Y-11684000D03*
X116840000Y-22352000D03*
X62230000Y-24130000D03*
D52*
X8509000Y-16510000D03*
D54*
X151047738Y-37446960D03*
D52*
X76390500Y-19240500D03*
D54*
X66294000Y-22098000D03*
D52*
X87630000Y-28702000D03*
D54*
X65278000Y-25146000D03*
D52*
X79819500Y-28257500D03*
X24638000Y-12954000D03*
X84010500Y-26860500D03*
X82994500Y-25844500D03*
D54*
X65278000Y-24130000D03*
D52*
X88900000Y-29083000D03*
D53*
X69596000Y-31623000D03*
D54*
X101346000Y-24003000D03*
D53*
X57023000Y-31623000D03*
D54*
X64262000Y-26162000D03*
X64262000Y-24130000D03*
D52*
X16256000Y-2921000D03*
X81153000Y-30861000D03*
D51*
X8382000Y-1397000D03*
D54*
X62230000Y-22098000D03*
X154940000Y-18415000D03*
D52*
X76263500Y-24701500D03*
D54*
X62230000Y-25146000D03*
D52*
X73660000Y-23622000D03*
D54*
X13335000Y-12192000D03*
X88392000Y-22098000D03*
D52*
X90932000Y-31115000D03*
D51*
X109347000Y-24511000D03*
D52*
X11684000Y-10541000D03*
X89916000Y-30099000D03*
D54*
X62230000Y-26162000D03*
D52*
X195707000Y-16891000D03*
D54*
X62230000Y-23114000D03*
D52*
X78740000Y-21590000D03*
D53*
X68961000Y-16383000D03*
D54*
X66294000Y-25146000D03*
X64262000Y-22098000D03*
X64262000Y-23114000D03*
D52*
X81026000Y-23876000D03*
D54*
X66294000Y-23114000D03*
X63246000Y-23114000D03*
D51*
X109360995Y-25767005D03*
X8763000Y-9144000D03*
D52*
X77470000Y-25908000D03*
D54*
X113030000Y-25781000D03*
D52*
X13843000Y-9525000D03*
D54*
X66294000Y-24130000D03*
X65278000Y-26162000D03*
X65278000Y-23114000D03*
X63246000Y-24130000D03*
D52*
%TO.N,BUTTON1*%
X43942000Y-25908000D03*
X43942000Y-28702000D03*
%TO.N,BUTTON2*%
X44831000Y-28702000D03*
X44958000Y-25908000D03*
%TO.N,BUTTON3*%
X45720000Y-28702000D03*
X45847000Y-25908000D03*
D54*
%TO.N,Net-(J2-Pad5)*%
X103378000Y-2540000D03*
X106299000Y-2667000D03*
%TO.N,TOUCH8*%
X145000000Y-35334000D03*
%TO.N,TOUCH7*%
X166736000Y-37366000D03*
%TO.N,TOUCH6*%
X190485000Y-37874000D03*
%TO.N,TOUCH5*%
X213726000Y-38763000D03*
%TO.N,CC2*%
X23180041Y-25350469D03*
D52*
X51381318Y-14374115D03*
X50583079Y-16172816D03*
D54*
X25024714Y-24124286D03*
D52*
%TO.N,CC1*%
X18101234Y-6153364D03*
D54*
X22473286Y-24643714D03*
D52*
X49795660Y-16311293D03*
D54*
X16161707Y-7334174D03*
D52*
X50171799Y-14408422D03*
D54*
X24638000Y-22860000D03*
D52*
%TO.N,BUZZER*%
X103505000Y-18833503D03*
X108728755Y-17169473D03*
X51308000Y-16510000D03*
X122809000Y-14732000D03*
X49911000Y-11557000D03*
X122936000Y-11802500D03*
%TO.N,TEMPERATURE*%
X122047000Y-11684000D03*
X36703000Y-27686000D03*
X121920000Y-14732000D03*
X47963583Y-14974897D03*
X103505000Y-18034000D03*
X36830000Y-24954980D03*
X108585000Y-16383000D03*
X48792077Y-11560474D03*
D54*
%TO.N,/USB+Power/ESP_RX*%
X20146583Y-18296690D03*
X20038893Y-15274288D03*
%TO.N,/USB+Power/ESP_TX*%
X21336000Y-19177000D03*
X20873083Y-16056188D03*
D52*
%TO.N,LIGHT1*%
X93472000Y-23495000D03*
X89408000Y-27559000D03*
X106545000Y-21098497D03*
X103567049Y-21244847D03*
%TO.N,LIGHT2*%
X103522483Y-22043107D03*
X94214320Y-23791928D03*
X106545000Y-22098000D03*
X88773000Y-27051000D03*
%TO.N,SCLK*%
X75184000Y-18542000D03*
X103505295Y-20447733D03*
X81521608Y-12204392D03*
X78176371Y-15549629D03*
X108461250Y-18944435D03*
X73533000Y-20193000D03*
%TO.N,CE*%
X67691000Y-12655060D03*
X103505000Y-19633006D03*
X67691000Y-9525000D03*
X108341402Y-18153966D03*
%TO.N,IO*%
X48216051Y-11006039D03*
X36030497Y-24954980D03*
X47337083Y-15540502D03*
X103505000Y-17145000D03*
X35903497Y-27686000D03*
X131826000Y-14097000D03*
X109347000Y-15621000D03*
X134366000Y-14224000D03*
%TO.N,Net-(Q4-Pad2)*%
X49070836Y-12309805D03*
X48855875Y-15088568D03*
%TD*%
D55*
%TO.N,+5V*%
X14224000Y-1524000D02*
X14595480Y-1152520D01*
X128000000Y-1200000D02*
X127952520Y-1152520D01*
X104657520Y-1152520D02*
X127952520Y-1152520D01*
X127952520Y-1152520D02*
X167047480Y-1152520D01*
D56*
X26480000Y-8890000D02*
X26000000Y-8410000D01*
X5503581Y-7561479D02*
X5892102Y-7950000D01*
D55*
X128000000Y-3460000D02*
X128000000Y-1200000D01*
D57*
X4699000Y-3937000D02*
X4699000Y-6985000D01*
X4699000Y-6985000D02*
X5275479Y-7561479D01*
D58*
X205359000Y-9281000D02*
X205359000Y-3429000D01*
D55*
X89000000Y-3460000D02*
X89000000Y-1200000D01*
X10287000Y-1524000D02*
X14224000Y-1524000D01*
D56*
X8560000Y-7950000D02*
X8636000Y-7874000D01*
D55*
X89000000Y-1200000D02*
X89047480Y-1152520D01*
D57*
X8761000Y-3050000D02*
X9017000Y-2794000D01*
D59*
X26000000Y-6000000D02*
X26000000Y-3460000D01*
D55*
X104761000Y-28092000D02*
X104761000Y-1256000D01*
X227692520Y-1152520D02*
X230000000Y-3460000D01*
D56*
X6094000Y-3050000D02*
X5715000Y-3429000D01*
D55*
X167000000Y-1200000D02*
X167047480Y-1152520D01*
X89047480Y-1152520D02*
X104657520Y-1152520D01*
X104761000Y-1256000D02*
X104657520Y-1152520D01*
D59*
X89000000Y-6000000D02*
X89000000Y-3460000D01*
D56*
X207890000Y-11812000D02*
X205359000Y-9281000D01*
X5715000Y-3429000D02*
X5207000Y-3429000D01*
D57*
X6785000Y-3050000D02*
X8761000Y-3050000D01*
D55*
X26000000Y-3460000D02*
X26000000Y-1400000D01*
X14595480Y-1152520D02*
X25752520Y-1152520D01*
D56*
X5275479Y-7561479D02*
X5503581Y-7561479D01*
D55*
X26000000Y-1400000D02*
X25752520Y-1152520D01*
X167000000Y-3460000D02*
X167000000Y-1200000D01*
D57*
X5207000Y-3429000D02*
X4699000Y-3937000D01*
D55*
X230000000Y-9767000D02*
X231282000Y-11049000D01*
D56*
X5892102Y-7950000D02*
X6785000Y-7950000D01*
D55*
X9017000Y-2794000D02*
X10287000Y-1524000D01*
D56*
X214376000Y-11812000D02*
X207890000Y-11812000D01*
D55*
X167047480Y-1152520D02*
X227692520Y-1152520D01*
D59*
X128000000Y-6000000D02*
X128000000Y-3460000D01*
D55*
X25752520Y-1152520D02*
X89047480Y-1152520D01*
D56*
X6785000Y-3050000D02*
X6094000Y-3050000D01*
X26000000Y-8410000D02*
X26000000Y-6000000D01*
D55*
X230000000Y-6000000D02*
X230000000Y-9767000D01*
D56*
X6785000Y-7950000D02*
X8560000Y-7950000D01*
%TO.N,Net-(BZ1-Pad2)*%
X214376000Y-15112000D02*
X207128000Y-15112000D01*
X207128000Y-15112000D02*
X205359000Y-16881000D01*
D58*
X203210000Y-14732000D02*
X205359000Y-16881000D01*
X197533500Y-14732000D02*
X203210000Y-14732000D01*
D55*
%TO.N,+3V3*%
X108077000Y-20817500D02*
X107188000Y-19928500D01*
D57*
X152335000Y-18210000D02*
X152400000Y-18275000D01*
D56*
X189929000Y-7620000D02*
X189929000Y-5805000D01*
D57*
X152335000Y-16383000D02*
X150876000Y-16383000D01*
D58*
X84988400Y-16916400D02*
X97663000Y-29591000D01*
D57*
X149733000Y-15240000D02*
X149733000Y-11049000D01*
D58*
X77978000Y-36703000D02*
X79629000Y-38354000D01*
D56*
X105772979Y-13027021D02*
X105772979Y-26803979D01*
D58*
X44578000Y-11366000D02*
X44641000Y-11303000D01*
D55*
X185928000Y-10795000D02*
X160782000Y-10795000D01*
X160782000Y-10795000D02*
X159131000Y-9144000D01*
X110236000Y-12954000D02*
X132879218Y-12954000D01*
D57*
X75946000Y-31623000D02*
X76342422Y-31226578D01*
D58*
X191262000Y-5728000D02*
X189852000Y-5728000D01*
X48773213Y-13182445D02*
X48781073Y-13190305D01*
D55*
X107061000Y-23886500D02*
X108077000Y-22870500D01*
D58*
X50275717Y-12437501D02*
X52299218Y-10414000D01*
D56*
X105772979Y-26803979D02*
X107061000Y-28092000D01*
D58*
X37845000Y-12955000D02*
X44578000Y-12955000D01*
D55*
X107061000Y-28092000D02*
X107061000Y-23886500D01*
D58*
X189852000Y-5728000D02*
X188709000Y-5728000D01*
D57*
X31475000Y-11263000D02*
X30580000Y-11263000D01*
D56*
X189929000Y-5805000D02*
X189852000Y-5728000D01*
D55*
X107188000Y-16002000D02*
X110236000Y-12954000D01*
D58*
X188709000Y-5728000D02*
X185928000Y-8509000D01*
D57*
X29845000Y-12955000D02*
X31475000Y-12955000D01*
X29000000Y-13800000D02*
X29845000Y-12955000D01*
X75705000Y-31623000D02*
X75946000Y-31623000D01*
D58*
X78486000Y-10414000D02*
X84988400Y-16916400D01*
X33273000Y-12955000D02*
X37845000Y-12955000D01*
X77978000Y-32862156D02*
X77978000Y-36703000D01*
D57*
X29000000Y-15800000D02*
X29000000Y-13800000D01*
D58*
X76342422Y-31226578D02*
X77978000Y-32862156D01*
D55*
X159131000Y-9144000D02*
X151638000Y-9144000D01*
D58*
X50268520Y-12437501D02*
X50275717Y-12437501D01*
D55*
X134784218Y-11049000D02*
X149733000Y-11049000D01*
D57*
X28035000Y-16765000D02*
X29000000Y-15800000D01*
D56*
X113300000Y-5500000D02*
X105772979Y-13027021D01*
D57*
X150876000Y-16383000D02*
X149733000Y-15240000D01*
D55*
X107188000Y-19928500D02*
X107188000Y-16002000D01*
D58*
X79629000Y-38354000D02*
X97790000Y-38354000D01*
X75468844Y-30353000D02*
X75897922Y-30782078D01*
D57*
X30580000Y-11263000D02*
X30239000Y-10922000D01*
D58*
X191541000Y-5449000D02*
X191262000Y-5728000D01*
X44805445Y-13182445D02*
X48773213Y-13182445D01*
D57*
X75705000Y-31623000D02*
X75705000Y-30975000D01*
D55*
X132879218Y-12954000D02*
X134784218Y-11049000D01*
D58*
X71746000Y-30353000D02*
X75468844Y-30353000D01*
D57*
X31475000Y-11263000D02*
X32070000Y-10668000D01*
D58*
X44578000Y-12955000D02*
X44805445Y-13182445D01*
D56*
X84124800Y-17780000D02*
X84988400Y-16916400D01*
D57*
X31475000Y-12955000D02*
X31475000Y-11263000D01*
X152335000Y-16383000D02*
X152335000Y-18210000D01*
D55*
X151638000Y-9144000D02*
X149733000Y-11049000D01*
D58*
X193929000Y-5449000D02*
X191541000Y-5449000D01*
X52299218Y-10414000D02*
X78486000Y-10414000D01*
D56*
X44516000Y-9065500D02*
X44516000Y-11178000D01*
D57*
X75705000Y-30975000D02*
X75897922Y-30782078D01*
D58*
X75897922Y-30782078D02*
X76342422Y-31226578D01*
D56*
X44516000Y-11178000D02*
X44641000Y-11303000D01*
D57*
X26525000Y-16765000D02*
X28035000Y-16765000D01*
D58*
X48781073Y-13190305D02*
X49515716Y-13190305D01*
D57*
X31475000Y-12955000D02*
X33273000Y-12955000D01*
D58*
X44578000Y-12955000D02*
X44578000Y-11366000D01*
X49515716Y-13190305D02*
X50268520Y-12437501D01*
D56*
%TO.N,GND*%
X13843000Y-8445000D02*
X13843000Y-9525000D01*
D57*
X189878000Y-4178000D02*
X189865000Y-4191000D01*
D58*
X195658500Y-16842500D02*
X195707000Y-16891000D01*
D56*
X8509000Y-34684000D02*
X8509000Y-35941000D01*
X82994500Y-25844500D02*
X82042000Y-24892000D01*
X85852000Y-28702000D02*
X84963000Y-27813000D01*
X86106000Y-28702000D02*
X85852000Y-28702000D01*
X81026000Y-23876000D02*
X79883000Y-22733000D01*
X87630000Y-28702000D02*
X86106000Y-28702000D01*
D57*
X26525000Y-12955000D02*
X24639000Y-12955000D01*
D56*
X75247500Y-23685500D02*
X75184000Y-23622000D01*
X75184000Y-23622000D02*
X73660000Y-23622000D01*
X78676500Y-27114500D02*
X77470000Y-25908000D01*
X76390500Y-19240500D02*
X76327000Y-19177000D01*
D59*
X109347000Y-24511000D02*
X109361000Y-24525000D01*
D57*
X154940000Y-11925000D02*
X154940000Y-10668000D01*
D60*
X147700000Y-39000000D02*
X146700000Y-38000000D01*
D58*
X71746000Y-31623000D02*
X69596000Y-31623000D01*
X68961000Y-14113000D02*
X68961000Y-16383000D01*
X195658500Y-15682000D02*
X193800000Y-15682000D01*
D57*
X6785000Y-8750000D02*
X8369000Y-8750000D01*
D59*
X135620000Y-3460000D02*
X135620000Y-6000000D01*
D57*
X24639000Y-12955000D02*
X24638000Y-12954000D01*
D56*
X81153000Y-30861000D02*
X81153000Y-29591000D01*
X89916000Y-30099000D02*
X88900000Y-29083000D01*
X8509000Y-24778000D02*
X8509000Y-26162000D01*
D58*
X102984000Y-23990000D02*
X101359000Y-23990000D01*
D57*
X28689000Y-10922000D02*
X27305000Y-10922000D01*
D58*
X54746000Y-31623000D02*
X57023000Y-31623000D01*
D57*
X33970000Y-10668000D02*
X35306000Y-10668000D01*
D56*
X77724000Y-20574000D02*
X76390500Y-19240500D01*
D57*
X154940000Y-17044000D02*
X154940000Y-18415000D01*
D58*
X101359000Y-23990000D02*
X101346000Y-24003000D01*
D56*
X79883000Y-22733000D02*
X78740000Y-21590000D01*
X77470000Y-25908000D02*
X76263500Y-24701500D01*
D57*
X74155000Y-31623000D02*
X71746000Y-31623000D01*
D60*
X149494698Y-39000000D02*
X147700000Y-39000000D01*
D58*
X102984000Y-23241000D02*
X102984000Y-23990000D01*
D57*
X191262000Y-4178000D02*
X189878000Y-4178000D01*
D56*
X78740000Y-21590000D02*
X77724000Y-20574000D01*
X14542000Y-12192000D02*
X13335000Y-12192000D01*
X90932000Y-31115000D02*
X89916000Y-30099000D01*
X88900000Y-29083000D02*
X88519000Y-28702000D01*
D58*
X195658500Y-15682000D02*
X195658500Y-16842500D01*
D56*
X82042000Y-24892000D02*
X81026000Y-23876000D01*
X115506000Y-22352000D02*
X116840000Y-22352000D01*
X84963000Y-27813000D02*
X84010500Y-26860500D01*
D57*
X7529000Y-2250000D02*
X8382000Y-1397000D01*
D58*
X102984000Y-23990000D02*
X102984000Y-24971000D01*
D56*
X87416008Y-21122008D02*
X88392000Y-22098000D01*
D59*
X109361000Y-24525000D02*
X109361000Y-28092000D01*
D56*
X88519000Y-28702000D02*
X87630000Y-28702000D01*
D57*
X8369000Y-8750000D02*
X8763000Y-9144000D01*
X154292000Y-12573000D02*
X154940000Y-11925000D01*
D56*
X80899000Y-29337000D02*
X79819500Y-28257500D01*
X115316000Y-28006000D02*
X115316000Y-27189428D01*
X84010500Y-26860500D02*
X82994500Y-25844500D01*
D58*
X193800000Y-15682000D02*
X193675000Y-15557000D01*
D57*
X152335000Y-12573000D02*
X154292000Y-12573000D01*
D56*
X11684000Y-9334000D02*
X11684000Y-10541000D01*
X79819500Y-28257500D02*
X78676500Y-27114500D01*
X116840000Y-10350000D02*
X116840000Y-11684000D01*
X15176000Y-2921000D02*
X16256000Y-2921000D01*
D57*
X113030000Y-27052000D02*
X113030000Y-25781000D01*
X152400000Y-19825000D02*
X152400000Y-21209000D01*
D56*
X115316000Y-27189428D02*
X114929286Y-26802714D01*
X76263500Y-24701500D02*
X75247500Y-23685500D01*
X81153000Y-29591000D02*
X80899000Y-29337000D01*
D58*
X102984000Y-24971000D02*
X102809000Y-25146000D01*
D56*
X8509000Y-15126000D02*
X8509000Y-16510000D01*
D60*
X151047738Y-37446960D02*
X149494698Y-39000000D01*
D57*
X6785000Y-2250000D02*
X7529000Y-2250000D01*
D56*
%TO.N,/USB+Power/ESP_RST*%
X78685520Y-32569092D02*
X75199428Y-29083000D01*
X98062040Y-35821456D02*
X96237016Y-37646480D01*
X75199428Y-29083000D02*
X71746000Y-29083000D01*
X48488013Y-13897816D02*
X49808777Y-13897816D01*
X43084059Y-16259040D02*
X45453143Y-13889956D01*
X38432500Y-16129000D02*
X38562540Y-16259040D01*
X49808777Y-13897816D02*
X50561581Y-13145012D01*
X52592270Y-11121520D02*
X75917016Y-11121520D01*
X48480152Y-13889956D02*
X48488013Y-13897816D01*
X85750400Y-19405600D02*
X85291526Y-18946726D01*
X75917016Y-11121520D02*
X85051948Y-20256452D01*
X85051948Y-20256452D02*
X98062040Y-33266544D01*
X50561581Y-13145012D02*
X50568778Y-13145012D01*
X96237016Y-37646480D02*
X79922064Y-37646480D01*
X98062040Y-33266544D02*
X98062040Y-35821456D01*
X38562540Y-16259040D02*
X43084059Y-16259040D01*
X50568778Y-13145012D02*
X52592270Y-11121520D01*
X45453143Y-13889956D02*
X48480152Y-13889956D01*
X85750400Y-19558000D02*
X85051948Y-20256452D01*
X78685520Y-36409936D02*
X78685520Y-32569092D01*
X79922064Y-37646480D02*
X78685520Y-36409936D01*
X86319992Y-20025992D02*
X86319992Y-19975192D01*
X85750400Y-19405600D02*
X85750400Y-19558000D01*
X86319992Y-19975192D02*
X85750400Y-19405600D01*
%TO.N,BUTTON1*%
X3304511Y-13718511D02*
X3048000Y-13462000D01*
X8509000Y-13576000D02*
X8366489Y-13718511D01*
X54746000Y-21463000D02*
X48387000Y-21463000D01*
X43942000Y-28702000D02*
X42672000Y-29972000D01*
X9310520Y-14377520D02*
X8509000Y-13576000D01*
X22098000Y-29972000D02*
X9310520Y-17184520D01*
X9310520Y-17184520D02*
X9310520Y-14377520D01*
X8366489Y-13718511D02*
X3304511Y-13718511D01*
X48387000Y-21463000D02*
X43942000Y-25908000D01*
X42672000Y-29972000D02*
X22098000Y-29972000D01*
%TO.N,BUTTON2*%
X8509000Y-23228000D02*
X8445489Y-23291511D01*
X17272000Y-30480000D02*
X43053000Y-30480000D01*
X8445489Y-23291511D02*
X2979011Y-23291511D01*
X54746000Y-22733000D02*
X48133000Y-22733000D01*
X48133000Y-22733000D02*
X44958000Y-25908000D01*
X8509000Y-23228000D02*
X10020000Y-23228000D01*
X2979011Y-23291511D02*
X2862500Y-23175000D01*
X10020000Y-23228000D02*
X17272000Y-30480000D01*
X43053000Y-30480000D02*
X44831000Y-28702000D01*
%TO.N,BUTTON3*%
X3121500Y-33134000D02*
X2862500Y-32875000D01*
X45720000Y-28702000D02*
X43307000Y-31115000D01*
X43307000Y-31115000D02*
X10528000Y-31115000D01*
X8509000Y-33134000D02*
X3121500Y-33134000D01*
X54746000Y-25273000D02*
X46482000Y-25273000D01*
X10528000Y-31115000D02*
X8509000Y-33134000D01*
X46482000Y-25273000D02*
X45847000Y-25908000D01*
D57*
%TO.N,Net-(C8-Pad1)*%
X154940000Y-15494000D02*
X156848000Y-15494000D01*
X156848000Y-15494000D02*
X157036000Y-15682000D01*
X154559000Y-15113000D02*
X154940000Y-15494000D01*
X152335000Y-15113000D02*
X154559000Y-15113000D01*
%TO.N,Net-(C9-Pad1)*%
X156729000Y-13475000D02*
X157036000Y-13782000D01*
X154572000Y-13843000D02*
X154940000Y-13475000D01*
X154940000Y-13475000D02*
X156729000Y-13475000D01*
X152335000Y-13843000D02*
X154572000Y-13843000D01*
D58*
%TO.N,Net-(C10-Pad1)*%
X147385000Y-16383000D02*
X144399000Y-16383000D01*
X144399000Y-16383000D02*
X143168379Y-17613621D01*
X143168379Y-17613621D02*
X139446000Y-17613621D01*
D56*
%TO.N,WS2812*%
X35306000Y-8890000D02*
X37005500Y-7190500D01*
X28130000Y-8890000D02*
X28540000Y-8480000D01*
X28540000Y-8480000D02*
X28540000Y-6000000D01*
X28130000Y-8890000D02*
X35306000Y-8890000D01*
D59*
X28540000Y-3460000D02*
X28540000Y-6000000D01*
D56*
X37005500Y-7190500D02*
X45466000Y-7190500D01*
%TO.N,Net-(J1-Pad5)*%
X85090000Y-2413000D02*
X86995000Y-4318000D01*
X32446000Y-7366000D02*
X34290000Y-7366000D01*
X87757000Y-7747000D02*
X89793000Y-7747000D01*
X35687000Y-3175000D02*
X36449000Y-2413000D01*
X31080000Y-6000000D02*
X32446000Y-7366000D01*
X36449000Y-2413000D02*
X85090000Y-2413000D01*
X86995000Y-6985000D02*
X87757000Y-7747000D01*
X34290000Y-7366000D02*
X35687000Y-5969000D01*
X89793000Y-7747000D02*
X91540000Y-6000000D01*
X35687000Y-5969000D02*
X35687000Y-3175000D01*
D59*
X31080000Y-3460000D02*
X31080000Y-6000000D01*
D56*
X86995000Y-4318000D02*
X86995000Y-6985000D01*
D59*
X91540000Y-3460000D02*
X91540000Y-6000000D01*
D56*
%TO.N,Net-(J2-Pad5)*%
X106299000Y-2667000D02*
X124333000Y-2667000D01*
X126111000Y-4445000D02*
X126111000Y-7239000D01*
X97536000Y-7493000D02*
X99441000Y-5588000D01*
X94298511Y-4636511D02*
X94298511Y-6414511D01*
X126111000Y-7239000D02*
X127127000Y-8255000D01*
X127127000Y-8255000D02*
X129540000Y-8255000D01*
X94298511Y-6414511D02*
X95377000Y-7493000D01*
X130540000Y-7255000D02*
X130540000Y-6000000D01*
X129540000Y-8255000D02*
X130540000Y-7255000D01*
X95377000Y-7493000D02*
X97536000Y-7493000D01*
X124333000Y-2667000D02*
X126111000Y-4445000D01*
D59*
X94080000Y-3460000D02*
X94080000Y-4418000D01*
D56*
X94080000Y-4418000D02*
X94298511Y-4636511D01*
X99441000Y-5588000D02*
X102489000Y-2540000D01*
D59*
X94080000Y-4418000D02*
X94080000Y-6000000D01*
D56*
X102489000Y-2540000D02*
X103378000Y-2540000D01*
D59*
X130540000Y-3460000D02*
X130540000Y-6000000D01*
D56*
%TO.N,Net-(J3-Pad5)*%
X133080000Y-6000000D02*
X133080000Y-6842000D01*
X138303000Y-3937000D02*
X139700000Y-2540000D01*
X162052000Y-2540000D02*
X164592000Y-5080000D01*
X137160000Y-8001000D02*
X138303000Y-6858000D01*
X133080000Y-6842000D02*
X134239000Y-8001000D01*
D59*
X133080000Y-3460000D02*
X133080000Y-6000000D01*
D56*
X139700000Y-2540000D02*
X162052000Y-2540000D01*
X164592000Y-5080000D02*
X164592000Y-7112000D01*
X138303000Y-6858000D02*
X138303000Y-3937000D01*
X164592000Y-7112000D02*
X165989000Y-8509000D01*
X168402000Y-8509000D02*
X169540000Y-7371000D01*
X134239000Y-8001000D02*
X137160000Y-8001000D01*
X169540000Y-7371000D02*
X169540000Y-6000000D01*
X165989000Y-8509000D02*
X168402000Y-8509000D01*
D59*
X169540000Y-3460000D02*
X169540000Y-6000000D01*
D56*
%TO.N,Net-(J4-Pad5)*%
X176022000Y-7747000D02*
X177546000Y-6223000D01*
X177546000Y-6223000D02*
X177546000Y-3429000D01*
X172080000Y-6599000D02*
X173228000Y-7747000D01*
X232035000Y-4699000D02*
X232540000Y-4194000D01*
D59*
X172080000Y-3460000D02*
X172080000Y-6000000D01*
D56*
X178435000Y-2540000D02*
X225552000Y-2540000D01*
X225552000Y-2540000D02*
X227711000Y-4699000D01*
X227711000Y-4699000D02*
X232035000Y-4699000D01*
X173228000Y-7747000D02*
X176022000Y-7747000D01*
D59*
X232540000Y-4194000D02*
X232540000Y-6000000D01*
D56*
X172080000Y-6000000D02*
X172080000Y-6599000D01*
D59*
X232540000Y-3460000D02*
X232540000Y-4194000D01*
D56*
X177546000Y-3429000D02*
X178435000Y-2540000D01*
%TO.N,Net-(J5-Pad5)*%
X235080000Y-6000000D02*
X235080000Y-8252000D01*
D59*
X235080000Y-3460000D02*
X235080000Y-6000000D01*
D56*
X233822000Y-9510000D02*
X233822000Y-11049000D01*
X235080000Y-8252000D02*
X233822000Y-9510000D01*
D60*
%TO.N,TOUCH9*%
X82000000Y-33232000D02*
X82000000Y-34500000D01*
X75565000Y-22733000D02*
X81788000Y-28956000D01*
X71746000Y-22733000D02*
X75565000Y-22733000D01*
X81788000Y-33020000D02*
X82000000Y-33232000D01*
X81788000Y-28956000D02*
X81788000Y-33020000D01*
%TO.N,TOUCH8*%
X84540000Y-33613000D02*
X84540000Y-34500000D01*
X84328000Y-33401000D02*
X84540000Y-33613000D01*
X71746000Y-21463000D02*
X74930000Y-21463000D01*
X84328000Y-30861000D02*
X84328000Y-33401000D01*
X74930000Y-21463000D02*
X84328000Y-30861000D01*
%TO.N,TOUCH7*%
X73533000Y-19304000D02*
X84836000Y-30607000D01*
X73000000Y-17653000D02*
X73533000Y-18186000D01*
X73533000Y-18186000D02*
X73533000Y-19304000D01*
X86868000Y-31242000D02*
X86868000Y-34288000D01*
X71746000Y-17653000D02*
X73000000Y-17653000D01*
X86868000Y-34288000D02*
X87080000Y-34500000D01*
X86233000Y-30607000D02*
X86868000Y-31242000D01*
X84836000Y-30607000D02*
X86233000Y-30607000D01*
%TO.N,TOUCH6*%
X89408000Y-32198919D02*
X87054081Y-29845000D01*
X89408000Y-33401000D02*
X89408000Y-32198919D01*
X72873000Y-16383000D02*
X71746000Y-16383000D01*
X84836000Y-29845000D02*
X74041000Y-19050000D01*
X87054081Y-29845000D02*
X84836000Y-29845000D01*
X74041000Y-17551000D02*
X72873000Y-16383000D01*
X89620000Y-33613000D02*
X89408000Y-33401000D01*
X74041000Y-19050000D02*
X74041000Y-17551000D01*
X89620000Y-34500000D02*
X89620000Y-33613000D01*
%TO.N,TOUCH5*%
X88065480Y-29518480D02*
X92160000Y-33613000D01*
X85271480Y-29518480D02*
X88065480Y-29518480D01*
X74549000Y-16789000D02*
X74549000Y-18796000D01*
X74549000Y-18796000D02*
X85271480Y-29518480D01*
X92160000Y-33613000D02*
X92160000Y-34500000D01*
X72873000Y-15113000D02*
X74549000Y-16789000D01*
X71746000Y-15113000D02*
X72873000Y-15113000D01*
D61*
%TO.N,/USB+Power/D+*%
X6785000Y-5250000D02*
X7917000Y-5250000D01*
X8255000Y-5842000D02*
X8255000Y-5969000D01*
X26525000Y-18035000D02*
X22804689Y-18035000D01*
X8001000Y-6223000D02*
X6812000Y-6223000D01*
X14249105Y-5842000D02*
X8255000Y-5842000D01*
X8255000Y-5588000D02*
X8255000Y-5842000D01*
X17653000Y-12883311D02*
X17653000Y-9245895D01*
X17653000Y-12883311D02*
G75*
G03*
X22804689Y-18035000I5151690J1D01*
G01*
X14249105Y-5842000D02*
G75*
G02*
X17653000Y-9245895I-1J-3403896D01*
G01*
X6785000Y-6250000D02*
G75*
G02*
X6812000Y-6223000I27000J0D01*
G01*
X8001000Y-6223000D02*
G75*
G03*
X8255000Y-5969000I0J254000D01*
G01*
X8255000Y-5588000D02*
G75*
G03*
X7917000Y-5250000I-338000J0D01*
G01*
D56*
%TO.N,CC2*%
X26935428Y-26035000D02*
X41183461Y-26035000D01*
X71746000Y-26543000D02*
X73942176Y-26543000D01*
X41183461Y-26035000D02*
X50583079Y-16635382D01*
X10124520Y-7203520D02*
X11203520Y-7203520D01*
X80297772Y-36739440D02*
X95861308Y-36739440D01*
X53726873Y-12028560D02*
X51381318Y-14374115D01*
X10124520Y-15966520D02*
X10124520Y-7203520D01*
X6785000Y-7250000D02*
X7764000Y-7250000D01*
X7764000Y-7250000D02*
X7810480Y-7203520D01*
X50583079Y-16635382D02*
X50583079Y-16172816D01*
X79592560Y-32193384D02*
X79592560Y-36034228D01*
X73942176Y-26543000D02*
X79592560Y-32193384D01*
X7810480Y-7203520D02*
X10124520Y-7203520D01*
X19528225Y-25370225D02*
X10124520Y-15966520D01*
X11203520Y-7203520D02*
X11684000Y-7684000D01*
X95861308Y-36739440D02*
X97155000Y-35445748D01*
X23180041Y-25350469D02*
X23160285Y-25370225D01*
X75541308Y-12028560D02*
X53726873Y-12028560D01*
X25024714Y-24124286D02*
X26935428Y-26035000D01*
X79592560Y-36034228D02*
X80297772Y-36739440D01*
X97155000Y-35445748D02*
X97155000Y-33642252D01*
X23160285Y-25370225D02*
X19528225Y-25370225D01*
X97155000Y-33642252D02*
X75541308Y-12028560D01*
%TO.N,Net-(J7-PadA8)*%
X6785000Y-6750000D02*
X13798000Y-6750000D01*
X13798000Y-6750000D02*
X13843000Y-6795000D01*
D61*
%TO.N,/USB+Power/D-*%
X18542000Y-12977291D02*
X18542000Y-10922000D01*
X13809501Y-4750000D02*
X6785000Y-4750000D01*
X5842000Y-5715000D02*
X6750000Y-5715000D01*
X24993451Y-17399000D02*
X22963709Y-17399000D01*
X5461000Y-5080000D02*
X5461000Y-5334000D01*
X28033203Y-17399000D02*
X24993451Y-17399000D01*
X6785000Y-4750000D02*
X5791000Y-4750000D01*
X28448000Y-18938777D02*
X28448000Y-17813797D01*
X26525000Y-19305000D02*
X28081777Y-19305000D01*
X18542000Y-10922000D02*
X18542000Y-9482499D01*
X5461000Y-5080000D02*
G75*
G02*
X5791000Y-4750000I330001J-1D01*
G01*
X5842000Y-5715000D02*
G75*
G02*
X5461000Y-5334000I-1J380999D01*
G01*
X6785000Y-5750000D02*
G75*
G03*
X6750000Y-5715000I-34999J1D01*
G01*
X28448000Y-18938777D02*
G75*
G02*
X28081777Y-19305000I-366222J-1D01*
G01*
X13809501Y-4750000D02*
G75*
G02*
X18542000Y-9482499I0J-4732499D01*
G01*
X18542000Y-12977291D02*
G75*
G03*
X22963709Y-17399000I4421710J1D01*
G01*
X28033203Y-17399000D02*
G75*
G02*
X28448000Y-17813797I1J-414796D01*
G01*
D56*
%TO.N,CC1*%
X18101234Y-5909234D02*
X18101234Y-6153364D01*
X74570802Y-27813000D02*
X79139040Y-32381238D01*
X16442000Y-4250000D02*
X18101234Y-5909234D01*
X24638000Y-22860000D02*
X24892000Y-22860000D01*
X16161707Y-21241707D02*
X16161707Y-7334174D01*
X24892000Y-22860000D02*
X27613480Y-25581480D01*
X6785000Y-4250000D02*
X16442000Y-4250000D01*
X40525473Y-25581480D02*
X49795660Y-16311293D01*
X27613480Y-25581480D02*
X40525473Y-25581480D01*
X79139040Y-32381238D02*
X79139040Y-36222082D01*
X80109918Y-37192960D02*
X96049162Y-37192960D01*
X75729162Y-11575040D02*
X53005181Y-11575040D01*
X79139040Y-36222082D02*
X80109918Y-37192960D01*
X53005181Y-11575040D02*
X50171799Y-14408422D01*
X96049162Y-37192960D02*
X97608520Y-35633602D01*
X97608520Y-35633602D02*
X97608520Y-33454398D01*
X22473286Y-24643714D02*
X19563714Y-24643714D01*
X71746000Y-27813000D02*
X74570802Y-27813000D01*
X19563714Y-24643714D02*
X16161707Y-21241707D01*
X97608520Y-33454398D02*
X75729162Y-11575040D01*
%TO.N,Net-(J7-PadB8)*%
X6785000Y-3750000D02*
X6790519Y-3755519D01*
X12691481Y-3755519D02*
X13526000Y-2921000D01*
X6790519Y-3755519D02*
X12691481Y-3755519D01*
%TO.N,BUZZER*%
X55638723Y-8890000D02*
X85471000Y-8890000D01*
X193675000Y-13907000D02*
X195533500Y-13907000D01*
X108728755Y-17169473D02*
X120625527Y-17169473D01*
X53492000Y-18923000D02*
X51308000Y-16739000D01*
X195658500Y-12143500D02*
X193294000Y-9779000D01*
X120625527Y-17169473D02*
X122301000Y-15494000D01*
X195658500Y-13782000D02*
X195658500Y-12143500D01*
X54746000Y-18923000D02*
X53492000Y-18923000D01*
X161290000Y-9779000D02*
X159639000Y-8128000D01*
X132596500Y-11802500D02*
X122936000Y-11802500D01*
X122301000Y-15494000D02*
X122809000Y-14986000D01*
X51308000Y-16739000D02*
X51308000Y-16510000D01*
X49911000Y-11557000D02*
X51797978Y-9670022D01*
X95414503Y-18833503D02*
X103505000Y-18833503D01*
X85471000Y-8890000D02*
X95414503Y-18833503D01*
X151136362Y-8128000D02*
X149231362Y-10033000D01*
X134366000Y-10033000D02*
X132596500Y-11802500D01*
X149231362Y-10033000D02*
X134366000Y-10033000D01*
X193294000Y-9779000D02*
X161290000Y-9779000D01*
X51797978Y-9670022D02*
X54858702Y-9670021D01*
X159639000Y-8128000D02*
X151136362Y-8128000D01*
X54858702Y-9670021D02*
X55638723Y-8890000D01*
X195533500Y-13907000D02*
X195658500Y-13782000D01*
X122809000Y-14986000D02*
X122809000Y-14732000D01*
%TO.N,Net-(Q2-Pad1)*%
X36321000Y-16967000D02*
X40195500Y-16967000D01*
X40195500Y-16967000D02*
X40307500Y-17079000D01*
%TO.N,Net-(Q2-Pad2)*%
X31475000Y-15495000D02*
X34543000Y-15495000D01*
X39817000Y-15179000D02*
X39116000Y-14478000D01*
X34543000Y-15495000D02*
X34671000Y-15367000D01*
X40307500Y-15179000D02*
X39817000Y-15179000D01*
X35560000Y-14478000D02*
X34671000Y-15367000D01*
X39116000Y-14478000D02*
X35560000Y-14478000D01*
%TO.N,Net-(Q3-Pad1)*%
X42352000Y-15179000D02*
X42750500Y-15179000D01*
X39081901Y-15367000D02*
X39520421Y-15805520D01*
X41725480Y-15805520D02*
X42352000Y-15179000D01*
X39520421Y-15805520D02*
X41725480Y-15805520D01*
X36321000Y-15367000D02*
X39081901Y-15367000D01*
%TO.N,Net-(Q3-Pad2)*%
X31475000Y-16765000D02*
X34469000Y-16765000D01*
X34469000Y-16765000D02*
X34671000Y-16967000D01*
X35472520Y-17768520D02*
X41667480Y-17768520D01*
X42357000Y-17079000D02*
X42750500Y-17079000D01*
X34671000Y-16967000D02*
X35472520Y-17768520D01*
X41667480Y-17768520D02*
X42357000Y-17079000D01*
%TO.N,/USB+Power/ESP_GPIO0*%
X49912293Y-15034923D02*
X54667923Y-15034923D01*
X49228697Y-14351327D02*
X49912293Y-15034923D01*
X54667923Y-15034923D02*
X54746000Y-15113000D01*
X46411033Y-14343467D02*
X48292303Y-14343467D01*
X48300163Y-14351327D02*
X49228697Y-14351327D01*
X44625500Y-16129000D02*
X46411033Y-14343467D01*
X48292303Y-14343467D02*
X48300163Y-14351327D01*
%TO.N,TEMPERATURE*%
X122047000Y-11684000D02*
X122555000Y-11176000D01*
X151003000Y-7620000D02*
X160147000Y-7620000D01*
X53340000Y-29083000D02*
X51816000Y-27559000D01*
X132461000Y-11176000D02*
X134112000Y-9525000D01*
X160147000Y-7620000D02*
X161798000Y-9271000D01*
X47963583Y-17314417D02*
X47963583Y-14974897D01*
X122555000Y-11176000D02*
X132461000Y-11176000D01*
X55559851Y-8327511D02*
X85664149Y-8327511D01*
X194068000Y-6719000D02*
X193167000Y-7620000D01*
X36830000Y-27559000D02*
X36703000Y-27686000D01*
X149098000Y-9525000D02*
X151003000Y-7620000D01*
X134112000Y-9525000D02*
X149098000Y-9525000D01*
X36830000Y-24954980D02*
X40323020Y-24954980D01*
X51136040Y-9216511D02*
X54670851Y-9216511D01*
X40323020Y-24954980D02*
X47963583Y-17314417D01*
X54670851Y-9216511D02*
X55559851Y-8327511D01*
X51816000Y-27559000D02*
X36830000Y-27559000D01*
X108585000Y-16383000D02*
X120269000Y-16383000D01*
X195199000Y-6719000D02*
X194068000Y-6719000D01*
X193167000Y-7620000D02*
X191579000Y-7620000D01*
X54746000Y-29083000D02*
X53340000Y-29083000D01*
X95370638Y-18034000D02*
X103505000Y-18034000D01*
X161798000Y-9271000D02*
X189928000Y-9271000D01*
X48792077Y-11560474D02*
X51136040Y-9216511D01*
X85664149Y-8327511D02*
X95370638Y-18034000D01*
X120269000Y-16383000D02*
X121920000Y-14732000D01*
X189928000Y-9271000D02*
X191579000Y-7620000D01*
%TO.N,/USB+Power/ESP_RX*%
X22987000Y-19558000D02*
X22987000Y-23114000D01*
X22035000Y-14224000D02*
X21089181Y-14224000D01*
X21879489Y-18450489D02*
X22987000Y-19558000D01*
X20146583Y-18296690D02*
X20300382Y-18450489D01*
X20300382Y-18450489D02*
X21879489Y-18450489D01*
X26416000Y-26543000D02*
X54746000Y-26543000D01*
X22987000Y-23114000D02*
X26416000Y-26543000D01*
X21089181Y-14224000D02*
X20038893Y-15274288D01*
%TO.N,Net-(R8-Pad2)*%
X26525000Y-14225000D02*
X23686000Y-14225000D01*
X23686000Y-14225000D02*
X23685000Y-14224000D01*
%TO.N,/USB+Power/ESP_TX*%
X20873083Y-16056188D02*
X21726812Y-16056188D01*
X25916499Y-27059499D02*
X52738499Y-27059499D01*
X52738499Y-27059499D02*
X53492000Y-27813000D01*
X21336000Y-19177000D02*
X21336000Y-22479000D01*
X21726812Y-16056188D02*
X22035000Y-15748000D01*
X21336000Y-22479000D02*
X25916499Y-27059499D01*
X53492000Y-27813000D02*
X54746000Y-27813000D01*
%TO.N,Net-(R9-Pad2)*%
X26525000Y-15495000D02*
X23938000Y-15495000D01*
X23938000Y-15495000D02*
X23685000Y-15748000D01*
%TO.N,LIGHT1*%
X96139000Y-35179000D02*
X96139000Y-33909000D01*
X115639340Y-5500000D02*
X116700000Y-5500000D01*
X93472000Y-23495000D02*
X95893499Y-21073501D01*
X89852500Y-27622500D02*
X89789000Y-27559000D01*
X89789000Y-27559000D02*
X89408000Y-27559000D01*
X96139000Y-33909000D02*
X89852500Y-27622500D01*
X71746000Y-24003000D02*
X73000000Y-24003000D01*
X116700000Y-8560000D02*
X116840000Y-8700000D01*
X106226490Y-20779987D02*
X106226490Y-14912850D01*
X80499600Y-31502600D02*
X80499600Y-35352622D01*
X80979378Y-35832400D02*
X95485600Y-35832400D01*
X106226490Y-14912850D02*
X115639340Y-5500000D01*
X116700000Y-5500000D02*
X116700000Y-8560000D01*
X80499600Y-35352622D02*
X80979378Y-35832400D01*
X106545000Y-21098497D02*
X106226490Y-20779987D01*
X103395703Y-21073501D02*
X103567049Y-21244847D01*
X95893499Y-21073501D02*
X103395703Y-21073501D01*
X73000000Y-24003000D02*
X80499600Y-31502600D01*
X95485600Y-35832400D02*
X96139000Y-35179000D01*
%TO.N,LIGHT2*%
X80046080Y-35846374D02*
X80046080Y-32005530D01*
X110998000Y-21844000D02*
X112204500Y-23050500D01*
X89803863Y-26932489D02*
X96647000Y-33775626D01*
X106545000Y-22098000D02*
X106799000Y-21844000D01*
X95673454Y-36285920D02*
X80485626Y-36285920D01*
X103450376Y-21971000D02*
X103522483Y-22043107D01*
X112903000Y-22352000D02*
X112204500Y-23050500D01*
X88773000Y-27051000D02*
X88891511Y-26932489D01*
X88891511Y-26932489D02*
X89803863Y-26932489D01*
X73313550Y-25273000D02*
X71746000Y-25273000D01*
X96647000Y-33775626D02*
X96647000Y-35312374D01*
X112204500Y-23050500D02*
X116700000Y-27546000D01*
X106799000Y-21844000D02*
X110998000Y-21844000D01*
X80046080Y-32005530D02*
X73313550Y-25273000D01*
X96647000Y-35312374D02*
X95673454Y-36285920D01*
X80485626Y-36285920D02*
X80046080Y-35846374D01*
X96035248Y-21971000D02*
X103450376Y-21971000D01*
X116700000Y-27546000D02*
X116700000Y-37300000D01*
X94214320Y-23791928D02*
X96035248Y-21971000D01*
X113856000Y-22352000D02*
X112903000Y-22352000D01*
%TO.N,SCLK*%
X87388392Y-12204392D02*
X95631733Y-20447733D01*
X71746000Y-20193000D02*
X73533000Y-20193000D01*
X75184000Y-18542000D02*
X78176371Y-15549629D01*
X95631733Y-20447733D02*
X103505295Y-20447733D01*
X132721362Y-15113000D02*
X128889927Y-18944435D01*
X81521608Y-12204392D02*
X87388392Y-12204392D01*
X147385000Y-15113000D02*
X132721362Y-15113000D01*
X128889927Y-18944435D02*
X108461250Y-18944435D01*
%TO.N,CE*%
X129032000Y-18161000D02*
X108348436Y-18161000D01*
X85464638Y-9525000D02*
X95189150Y-19249511D01*
X95201885Y-19249511D02*
X95818854Y-19866480D01*
X67691000Y-9525000D02*
X85464638Y-9525000D01*
X147385000Y-12573000D02*
X134620000Y-12573000D01*
X67691000Y-14113000D02*
X67691000Y-12655060D01*
X95818854Y-19866480D02*
X103271526Y-19866480D01*
X103271526Y-19866480D02*
X103505000Y-19633006D01*
X134620000Y-12573000D02*
X129032000Y-18161000D01*
X108348436Y-18161000D02*
X108341402Y-18153966D01*
X95189150Y-19249511D02*
X95201885Y-19249511D01*
%TO.N,IO*%
X54746000Y-30353000D02*
X53245489Y-30353000D01*
X95123000Y-17145000D02*
X103505000Y-17145000D01*
X48216051Y-11006039D02*
X50459090Y-8763000D01*
X50905009Y-28012520D02*
X37262501Y-28012520D01*
X110871000Y-14097000D02*
X131826000Y-14097000D01*
X85725000Y-7747000D02*
X95123000Y-17145000D01*
X36641959Y-24257000D02*
X40379626Y-24257000D01*
X134366000Y-14224000D02*
X142748000Y-14224000D01*
X143129000Y-13843000D02*
X147385000Y-13843000D01*
X35903497Y-28090515D02*
X35903497Y-27686000D01*
X40379626Y-24257000D02*
X47337083Y-17299543D01*
X55499000Y-7747000D02*
X85725000Y-7747000D01*
X53245489Y-30353000D02*
X50905009Y-28012520D01*
X37262501Y-28012520D02*
X36962510Y-28312511D01*
X36030497Y-24868462D02*
X36641959Y-24257000D01*
X36030497Y-24954980D02*
X36030497Y-24868462D01*
X50459090Y-8763000D02*
X54483000Y-8763000D01*
X47337083Y-17299543D02*
X47337083Y-15540502D01*
X109347000Y-15621000D02*
X110871000Y-14097000D01*
X142748000Y-14224000D02*
X143129000Y-13843000D01*
X54483000Y-8763000D02*
X55499000Y-7747000D01*
X36962510Y-28312511D02*
X36125493Y-28312511D01*
X36125493Y-28312511D02*
X35903497Y-28090515D01*
%TO.N,Net-(Q4-Pad2)*%
X49313622Y-15546315D02*
X48855875Y-15088568D01*
X53464007Y-17653000D02*
X51357322Y-15546315D01*
X46416000Y-10353000D02*
X46416000Y-11428000D01*
X51357322Y-15546315D02*
X49313622Y-15546315D01*
X46416000Y-9065500D02*
X46416000Y-10353000D01*
X54746000Y-17653000D02*
X53464007Y-17653000D01*
X46416000Y-10353000D02*
X46416000Y-11178000D01*
X46416000Y-11178000D02*
X46291000Y-11303000D01*
X46416000Y-11428000D02*
X47297805Y-12309805D01*
X47297805Y-12309805D02*
X49070836Y-12309805D01*
%TD*%
%TA.AperFunction,Conductor*%
%TO.N,GND*%
G36*
X69215000Y-15602884D02*
G01*
X69219475Y-15618123D01*
X69220865Y-15619328D01*
X69228548Y-15620999D01*
X69455669Y-15620999D01*
X69462490Y-15620629D01*
X69513352Y-15615105D01*
X69528604Y-15611479D01*
X69649054Y-15566324D01*
X69664649Y-15557786D01*
X69766724Y-15481285D01*
X69779285Y-15468724D01*
X69855786Y-15366649D01*
X69864324Y-15351054D01*
X69909478Y-15230606D01*
X69913105Y-15215351D01*
X69918631Y-15164486D01*
X69919000Y-15157672D01*
X69919000Y-14731000D01*
X69939002Y-14662879D01*
X69992658Y-14616386D01*
X70045000Y-14605000D01*
X70111500Y-14605000D01*
X70179621Y-14625002D01*
X70226114Y-14678658D01*
X70237500Y-14731000D01*
X70237500Y-15611134D01*
X70244255Y-15673316D01*
X70255672Y-15703771D01*
X70260855Y-15774577D01*
X70255674Y-15792224D01*
X70244255Y-15822684D01*
X70237500Y-15884866D01*
X70237500Y-16881134D01*
X70244255Y-16943316D01*
X70255672Y-16973771D01*
X70260855Y-17044577D01*
X70255674Y-17062224D01*
X70244255Y-17092684D01*
X70237500Y-17154866D01*
X70237500Y-18151134D01*
X70244255Y-18213316D01*
X70255672Y-18243771D01*
X70260855Y-18314577D01*
X70255674Y-18332224D01*
X70244255Y-18362684D01*
X70237500Y-18424866D01*
X70237500Y-19421134D01*
X70244255Y-19483316D01*
X70255672Y-19513771D01*
X70260855Y-19584577D01*
X70255674Y-19602224D01*
X70244255Y-19632684D01*
X70237500Y-19694866D01*
X70237500Y-20691134D01*
X70244255Y-20753316D01*
X70255672Y-20783771D01*
X70260855Y-20854577D01*
X70255674Y-20872224D01*
X70244255Y-20902684D01*
X70237500Y-20964866D01*
X70237500Y-21961134D01*
X70244255Y-22023316D01*
X70255672Y-22053771D01*
X70260855Y-22124577D01*
X70255674Y-22142224D01*
X70244255Y-22172684D01*
X70237500Y-22234866D01*
X70237500Y-23231134D01*
X70244255Y-23293316D01*
X70255672Y-23323771D01*
X70260855Y-23394577D01*
X70255674Y-23412224D01*
X70244255Y-23442684D01*
X70237500Y-23504866D01*
X70237500Y-24501134D01*
X70244255Y-24563316D01*
X70255672Y-24593771D01*
X70260855Y-24664577D01*
X70255674Y-24682224D01*
X70244255Y-24712684D01*
X70237500Y-24774866D01*
X70237500Y-25020000D01*
X70217498Y-25088121D01*
X70163842Y-25134614D01*
X70111500Y-25146000D01*
X67380000Y-25146000D01*
X67311879Y-25125998D01*
X67265386Y-25072342D01*
X67254000Y-25020000D01*
X67254000Y-24395115D01*
X67249525Y-24379876D01*
X67248135Y-24378671D01*
X67240452Y-24377000D01*
X67056000Y-24377000D01*
X67056000Y-24281000D01*
X67509603Y-24281000D01*
X67525267Y-24334346D01*
X67529088Y-24351910D01*
X67530117Y-24359066D01*
X67531400Y-24377000D01*
X67531400Y-24740600D01*
X68059000Y-24740600D01*
X68312000Y-24740600D01*
X69076000Y-24740600D01*
X69329000Y-24740600D01*
X69962191Y-24740600D01*
X69968478Y-24682725D01*
X69969572Y-24674931D01*
X69970112Y-24671798D01*
X69971698Y-24664054D01*
X69977893Y-24638000D01*
X69971698Y-24611946D01*
X69970112Y-24604202D01*
X69969572Y-24601069D01*
X69968478Y-24593275D01*
X69961723Y-24531093D01*
X69961406Y-24527759D01*
X69961294Y-24526390D01*
X69961058Y-24522930D01*
X69960321Y-24509322D01*
X69960183Y-24505900D01*
X69960146Y-24504526D01*
X69960100Y-24501134D01*
X69960100Y-24281000D01*
X69329000Y-24281000D01*
X69329000Y-24740600D01*
X69076000Y-24740600D01*
X69076000Y-24281000D01*
X68312000Y-24281000D01*
X68312000Y-24740600D01*
X68059000Y-24740600D01*
X68059000Y-24281000D01*
X67509603Y-24281000D01*
X67056000Y-24281000D01*
X67056000Y-24028000D01*
X67476525Y-24028000D01*
X68059000Y-24028000D01*
X68312000Y-24028000D01*
X69076000Y-24028000D01*
X69329000Y-24028000D01*
X69960100Y-24028000D01*
X69960100Y-23504866D01*
X69960146Y-23501474D01*
X69960183Y-23500100D01*
X69960321Y-23496678D01*
X69961058Y-23483070D01*
X69961294Y-23479610D01*
X69961406Y-23478241D01*
X69961723Y-23474907D01*
X69968478Y-23412725D01*
X69969572Y-23404931D01*
X69970112Y-23401798D01*
X69971698Y-23394054D01*
X69977893Y-23368000D01*
X69971698Y-23341946D01*
X69970112Y-23334202D01*
X69969572Y-23331069D01*
X69968478Y-23323275D01*
X69962039Y-23264000D01*
X69329000Y-23264000D01*
X69329000Y-24028000D01*
X69076000Y-24028000D01*
X69076000Y-23264000D01*
X68312000Y-23264000D01*
X68312000Y-24028000D01*
X68059000Y-24028000D01*
X68059000Y-23264000D01*
X67531400Y-23264000D01*
X67531400Y-23869000D01*
X67530679Y-23882458D01*
X67530099Y-23887857D01*
X67527941Y-23901182D01*
X67516555Y-23953524D01*
X67514936Y-23960105D01*
X67514216Y-23962727D01*
X67502206Y-23991712D01*
X67497302Y-24000324D01*
X67483035Y-24020487D01*
X67476525Y-24028000D01*
X67056000Y-24028000D01*
X67056000Y-23869000D01*
X67235885Y-23869000D01*
X67251124Y-23864525D01*
X67252329Y-23863135D01*
X67254000Y-23855452D01*
X67253999Y-22247000D01*
X67531399Y-22247000D01*
X67531400Y-23011000D01*
X68059000Y-23011000D01*
X68312000Y-23011000D01*
X69076000Y-23011000D01*
X69329000Y-23011000D01*
X69960100Y-23011000D01*
X69960100Y-22247000D01*
X69329000Y-22247000D01*
X69329000Y-23011000D01*
X69076000Y-23011000D01*
X69076000Y-22247000D01*
X68312000Y-22247000D01*
X68312000Y-23011000D01*
X68059000Y-23011000D01*
X68059000Y-22247000D01*
X67531399Y-22247000D01*
X67253999Y-22247000D01*
X67253999Y-21578331D01*
X67253629Y-21571510D01*
X67248105Y-21520648D01*
X67244479Y-21505396D01*
X67199324Y-21384946D01*
X67190786Y-21369351D01*
X67114285Y-21267276D01*
X67101724Y-21254715D01*
X67068747Y-21230000D01*
X67442784Y-21230000D01*
X67449799Y-21265268D01*
X67450965Y-21267590D01*
X67452470Y-21270872D01*
X67455920Y-21279162D01*
X67507000Y-21415417D01*
X67509543Y-21422907D01*
X67510470Y-21425948D01*
X67512528Y-21433544D01*
X67519809Y-21464169D01*
X67521394Y-21471905D01*
X67521934Y-21475037D01*
X67523029Y-21482840D01*
X67529776Y-21544959D01*
X67530093Y-21548290D01*
X67530205Y-21549659D01*
X67530441Y-21553117D01*
X67531178Y-21566722D01*
X67531316Y-21570146D01*
X67531353Y-21571520D01*
X67531399Y-21574912D01*
X67531399Y-21994000D01*
X68059000Y-21994000D01*
X68312000Y-21994000D01*
X69076000Y-21994000D01*
X69329000Y-21994000D01*
X69962039Y-21994000D01*
X69961723Y-21991093D01*
X69961406Y-21987759D01*
X69961294Y-21986390D01*
X69961058Y-21982930D01*
X69960321Y-21969322D01*
X69960183Y-21965900D01*
X69960146Y-21964526D01*
X69960100Y-21961134D01*
X69960100Y-21230000D01*
X69329000Y-21230000D01*
X69329000Y-21994000D01*
X69076000Y-21994000D01*
X69076000Y-21230000D01*
X68312000Y-21230000D01*
X68312000Y-21994000D01*
X68059000Y-21994000D01*
X68059000Y-21230000D01*
X67442784Y-21230000D01*
X67068747Y-21230000D01*
X66999649Y-21178214D01*
X66984054Y-21169676D01*
X66863606Y-21124522D01*
X66848351Y-21120895D01*
X66797486Y-21115369D01*
X66790672Y-21115000D01*
X65277000Y-21115000D01*
X65208879Y-21094998D01*
X65162386Y-21041342D01*
X65151000Y-20989000D01*
X65151000Y-20977000D01*
X67295000Y-20977000D01*
X68059000Y-20977000D01*
X68312000Y-20977000D01*
X69076000Y-20977000D01*
X69329000Y-20977000D01*
X69960100Y-20977000D01*
X69960100Y-20964866D01*
X69960146Y-20961474D01*
X69960183Y-20960100D01*
X69960321Y-20956678D01*
X69961058Y-20943070D01*
X69961294Y-20939610D01*
X69961406Y-20938241D01*
X69961723Y-20934907D01*
X69968478Y-20872725D01*
X69969572Y-20864931D01*
X69970112Y-20861798D01*
X69971698Y-20854054D01*
X69977893Y-20828000D01*
X69971698Y-20801946D01*
X69970112Y-20794202D01*
X69969572Y-20791069D01*
X69968478Y-20783275D01*
X69961723Y-20721093D01*
X69961406Y-20717759D01*
X69961294Y-20716390D01*
X69961058Y-20712930D01*
X69960321Y-20699322D01*
X69960183Y-20695900D01*
X69960146Y-20694526D01*
X69960100Y-20691134D01*
X69960100Y-20213000D01*
X69329000Y-20213000D01*
X69329000Y-20977000D01*
X69076000Y-20977000D01*
X69076000Y-20213000D01*
X68312000Y-20213000D01*
X68312000Y-20977000D01*
X68059000Y-20977000D01*
X68059000Y-20213000D01*
X67295000Y-20213000D01*
X67295000Y-20977000D01*
X65151000Y-20977000D01*
X65151000Y-20837600D01*
X65556400Y-20837600D01*
X66025000Y-20837600D01*
X66278000Y-20837600D01*
X66794089Y-20837600D01*
X66797481Y-20837646D01*
X66798855Y-20837683D01*
X66802277Y-20837821D01*
X66815885Y-20838558D01*
X66819345Y-20838794D01*
X66820714Y-20838906D01*
X66824048Y-20839223D01*
X66886166Y-20845971D01*
X66893960Y-20847065D01*
X66897093Y-20847605D01*
X66904837Y-20849191D01*
X66935459Y-20856472D01*
X66943064Y-20858534D01*
X66946104Y-20859461D01*
X66953583Y-20862000D01*
X67042000Y-20895146D01*
X67042000Y-20213000D01*
X66278000Y-20213000D01*
X66278000Y-20837600D01*
X66025000Y-20837600D01*
X66025000Y-20213000D01*
X65556400Y-20213000D01*
X65556400Y-20837600D01*
X65151000Y-20837600D01*
X65151000Y-19960000D01*
X65556400Y-19960000D01*
X66025000Y-19960000D01*
X66278000Y-19960000D01*
X67042000Y-19960000D01*
X67295000Y-19960000D01*
X68059000Y-19960000D01*
X68312000Y-19960000D01*
X69076000Y-19960000D01*
X69329000Y-19960000D01*
X69960100Y-19960000D01*
X69960100Y-19694866D01*
X69960146Y-19691474D01*
X69960183Y-19690100D01*
X69960321Y-19686678D01*
X69961058Y-19673070D01*
X69961294Y-19669610D01*
X69961406Y-19668241D01*
X69961723Y-19664907D01*
X69968478Y-19602725D01*
X69969572Y-19594931D01*
X69970112Y-19591798D01*
X69971698Y-19584054D01*
X69977893Y-19558000D01*
X69971698Y-19531946D01*
X69970112Y-19524202D01*
X69969572Y-19521069D01*
X69968478Y-19513275D01*
X69961723Y-19451093D01*
X69961406Y-19447759D01*
X69961294Y-19446390D01*
X69961058Y-19442930D01*
X69960321Y-19429322D01*
X69960183Y-19425900D01*
X69960146Y-19424526D01*
X69960100Y-19421134D01*
X69960100Y-19196000D01*
X69329000Y-19196000D01*
X69329000Y-19960000D01*
X69076000Y-19960000D01*
X69076000Y-19196000D01*
X68312000Y-19196000D01*
X68312000Y-19960000D01*
X68059000Y-19960000D01*
X68059000Y-19196000D01*
X67295000Y-19196000D01*
X67295000Y-19960000D01*
X67042000Y-19960000D01*
X67042000Y-19196000D01*
X66278000Y-19196000D01*
X66278000Y-19960000D01*
X66025000Y-19960000D01*
X66025000Y-19196000D01*
X65556400Y-19196000D01*
X65556400Y-19960000D01*
X65151000Y-19960000D01*
X65151000Y-18943000D01*
X65556400Y-18943000D01*
X66025000Y-18943000D01*
X66278000Y-18943000D01*
X67042000Y-18943000D01*
X67295000Y-18943000D01*
X68059000Y-18943000D01*
X68312000Y-18943000D01*
X69076000Y-18943000D01*
X69329000Y-18943000D01*
X69960100Y-18943000D01*
X69960100Y-18424866D01*
X69960146Y-18421474D01*
X69960183Y-18420100D01*
X69960321Y-18416678D01*
X69961058Y-18403070D01*
X69961294Y-18399610D01*
X69961406Y-18398241D01*
X69961723Y-18394907D01*
X69968478Y-18332725D01*
X69969572Y-18324931D01*
X69970112Y-18321798D01*
X69971698Y-18314054D01*
X69977893Y-18288000D01*
X69971698Y-18261946D01*
X69970112Y-18254202D01*
X69969572Y-18251069D01*
X69968478Y-18243275D01*
X69961723Y-18181093D01*
X69961524Y-18179000D01*
X69329000Y-18179000D01*
X69329000Y-18943000D01*
X69076000Y-18943000D01*
X69076000Y-18179000D01*
X68312000Y-18179000D01*
X68312000Y-18943000D01*
X68059000Y-18943000D01*
X68059000Y-18179000D01*
X67295000Y-18179000D01*
X67295000Y-18943000D01*
X67042000Y-18943000D01*
X67042000Y-18179000D01*
X66278000Y-18179000D01*
X66278000Y-18943000D01*
X66025000Y-18943000D01*
X66025000Y-18179000D01*
X65556400Y-18179000D01*
X65556400Y-18943000D01*
X65151000Y-18943000D01*
X65151000Y-17926000D01*
X65556400Y-17926000D01*
X66025000Y-17926000D01*
X66278000Y-17926000D01*
X67042000Y-17926000D01*
X67295000Y-17926000D01*
X68059000Y-17926000D01*
X68312000Y-17926000D01*
X69076000Y-17926000D01*
X69329000Y-17926000D01*
X69960100Y-17926000D01*
X69960100Y-17162000D01*
X69329000Y-17162000D01*
X69329000Y-17926000D01*
X69076000Y-17926000D01*
X69076000Y-17162000D01*
X68312000Y-17162000D01*
X68312000Y-17926000D01*
X68059000Y-17926000D01*
X68059000Y-17162000D01*
X67295000Y-17162000D01*
X67295000Y-17926000D01*
X67042000Y-17926000D01*
X67042000Y-17162000D01*
X66278000Y-17162000D01*
X66278000Y-17926000D01*
X66025000Y-17926000D01*
X66025000Y-17162000D01*
X65556400Y-17162000D01*
X65556400Y-17926000D01*
X65151000Y-17926000D01*
X65151000Y-16909000D01*
X65556400Y-16909000D01*
X66025000Y-16909000D01*
X66278000Y-16909000D01*
X67042000Y-16909000D01*
X67295000Y-16909000D01*
X68059000Y-16909000D01*
X69508322Y-16909000D01*
X69961524Y-16909000D01*
X69961406Y-16907759D01*
X69961294Y-16906390D01*
X69961058Y-16902930D01*
X69960321Y-16889322D01*
X69960183Y-16885900D01*
X69960146Y-16884526D01*
X69960100Y-16881134D01*
X69960100Y-16145000D01*
X69678631Y-16145000D01*
X69694587Y-16187226D01*
X69701808Y-16216626D01*
X69720110Y-16367862D01*
X69721016Y-16384319D01*
X69720877Y-16397597D01*
X69719627Y-16414032D01*
X69698162Y-16564851D01*
X69690327Y-16594093D01*
X69633507Y-16735439D01*
X69618921Y-16761970D01*
X69530024Y-16885682D01*
X69509533Y-16907966D01*
X69508322Y-16909000D01*
X68059000Y-16909000D01*
X68059000Y-16145000D01*
X67295000Y-16145000D01*
X67295000Y-16909000D01*
X67042000Y-16909000D01*
X67042000Y-16145000D01*
X66278000Y-16145000D01*
X66278000Y-16909000D01*
X66025000Y-16909000D01*
X66025000Y-16145000D01*
X65556400Y-16145000D01*
X65556400Y-16909000D01*
X65151000Y-16909000D01*
X65151000Y-15747500D01*
X65171002Y-15679379D01*
X65224658Y-15632886D01*
X65277000Y-15621500D01*
X65649134Y-15621500D01*
X65711316Y-15614745D01*
X65741771Y-15603328D01*
X65812577Y-15598145D01*
X65830224Y-15603326D01*
X65860684Y-15614745D01*
X65922866Y-15621500D01*
X66919134Y-15621500D01*
X66981316Y-15614745D01*
X67011771Y-15603328D01*
X67082577Y-15598145D01*
X67100224Y-15603326D01*
X67130684Y-15614745D01*
X67192866Y-15621500D01*
X68189134Y-15621500D01*
X68251316Y-15614745D01*
X68282483Y-15603061D01*
X68353288Y-15597878D01*
X68370943Y-15603061D01*
X68393398Y-15611479D01*
X68408649Y-15615105D01*
X68459514Y-15620631D01*
X68466328Y-15621000D01*
X68688885Y-15621000D01*
X68704124Y-15616525D01*
X68705329Y-15615135D01*
X68707000Y-15607452D01*
X68707000Y-14605000D01*
X69215000Y-14605000D01*
X69215000Y-15602884D01*
G37*
%TD.AperFunction*%
%TD*%
%TA.AperFunction,Conductor*%
%TO.N,+3V3*%
G36*
X107765121Y-27071002D02*
G01*
X107811614Y-27124658D01*
X107823000Y-27177000D01*
X107823000Y-29210000D01*
X108024808Y-29210000D01*
X108092929Y-29230002D01*
X108139422Y-29283658D01*
X108142788Y-29291766D01*
X108160385Y-29338705D01*
X108165765Y-29345884D01*
X108165767Y-29345887D01*
X108229981Y-29431567D01*
X108247739Y-29455261D01*
X108364295Y-29542615D01*
X108500684Y-29593745D01*
X108562866Y-29600500D01*
X110159134Y-29600500D01*
X110221316Y-29593745D01*
X110357705Y-29542615D01*
X110474261Y-29455261D01*
X110492019Y-29431567D01*
X110556233Y-29345887D01*
X110556235Y-29345884D01*
X110561615Y-29338705D01*
X110579210Y-29291770D01*
X110621852Y-29235006D01*
X110688414Y-29210306D01*
X110697192Y-29210000D01*
X115938500Y-29210000D01*
X116006621Y-29230002D01*
X116053114Y-29283658D01*
X116064500Y-29336000D01*
X116064500Y-36143046D01*
X116044498Y-36211167D01*
X116010771Y-36246259D01*
X115892473Y-36329092D01*
X115892470Y-36329094D01*
X115887962Y-36332251D01*
X115732251Y-36487962D01*
X115605944Y-36668347D01*
X115603621Y-36673329D01*
X115603618Y-36673334D01*
X115586743Y-36709524D01*
X115512880Y-36867924D01*
X115455885Y-37080629D01*
X115436693Y-37300000D01*
X115455885Y-37519371D01*
X115512880Y-37732076D01*
X115515205Y-37737061D01*
X115603618Y-37926666D01*
X115603621Y-37926671D01*
X115605944Y-37931653D01*
X115732251Y-38112038D01*
X115887962Y-38267749D01*
X116068346Y-38394056D01*
X116073331Y-38396380D01*
X116073337Y-38396384D01*
X116259249Y-38483075D01*
X116312535Y-38529992D01*
X116332000Y-38597270D01*
X116332000Y-39366000D01*
X116311998Y-39434121D01*
X116258342Y-39480614D01*
X116206000Y-39492000D01*
X97027000Y-39492000D01*
X96958879Y-39471998D01*
X96912386Y-39418342D01*
X96901000Y-39366000D01*
X96901000Y-37933418D01*
X96921002Y-37865297D01*
X96937905Y-37844323D01*
X97593046Y-37189183D01*
X98455523Y-36326706D01*
X98463849Y-36319130D01*
X98470343Y-36315009D01*
X98517126Y-36265190D01*
X98519880Y-36262349D01*
X98539679Y-36242550D01*
X98542103Y-36239425D01*
X98542111Y-36239416D01*
X98542177Y-36239330D01*
X98549885Y-36230305D01*
X98567857Y-36211167D01*
X98580257Y-36197962D01*
X98590063Y-36180125D01*
X98600913Y-36163609D01*
X98613390Y-36147523D01*
X98631016Y-36106790D01*
X98636233Y-36096142D01*
X98653789Y-36064207D01*
X98657609Y-36057259D01*
X98659580Y-36049584D01*
X98659582Y-36049578D01*
X98662671Y-36037545D01*
X98669074Y-36018843D01*
X98677157Y-36000164D01*
X98684100Y-35956329D01*
X98686507Y-35944707D01*
X98697540Y-35901738D01*
X98697540Y-35881391D01*
X98699091Y-35861680D01*
X98701035Y-35849406D01*
X98702275Y-35841577D01*
X98698099Y-35797400D01*
X98697540Y-35785542D01*
X98697540Y-33345576D01*
X98698070Y-33334337D01*
X98699749Y-33326825D01*
X98697602Y-33258513D01*
X98697540Y-33254556D01*
X98697540Y-33226561D01*
X98697032Y-33222538D01*
X98696099Y-33210696D01*
X98694954Y-33174262D01*
X98694705Y-33166340D01*
X98689028Y-33146801D01*
X98685019Y-33127440D01*
X98683462Y-33115112D01*
X98683459Y-33115102D01*
X98682467Y-33107245D01*
X98679549Y-33099874D01*
X98666134Y-33065990D01*
X98662289Y-33054763D01*
X98649909Y-33012151D01*
X98639550Y-32994635D01*
X98630853Y-32976885D01*
X98623359Y-32957956D01*
X98597278Y-32922058D01*
X98590762Y-32912138D01*
X98572213Y-32880773D01*
X98572211Y-32880770D01*
X98568175Y-32873946D01*
X98553787Y-32859558D01*
X98540946Y-32844524D01*
X98533642Y-32834471D01*
X98528982Y-32828057D01*
X98494790Y-32799771D01*
X98486011Y-32791782D01*
X96937905Y-31243676D01*
X96903879Y-31181364D01*
X96901000Y-31154581D01*
X96901000Y-29336000D01*
X96921002Y-29267879D01*
X96974658Y-29221386D01*
X97027000Y-29210000D01*
X103424808Y-29210000D01*
X103492929Y-29230002D01*
X103539422Y-29283658D01*
X103542788Y-29291766D01*
X103560385Y-29338705D01*
X103565765Y-29345884D01*
X103565767Y-29345887D01*
X103629981Y-29431567D01*
X103647739Y-29455261D01*
X103764295Y-29542615D01*
X103900684Y-29593745D01*
X103962866Y-29600500D01*
X105559134Y-29600500D01*
X105621316Y-29593745D01*
X105757705Y-29542615D01*
X105874261Y-29455261D01*
X105892019Y-29431567D01*
X105956233Y-29345887D01*
X105956235Y-29345884D01*
X105961615Y-29338705D01*
X105979210Y-29291770D01*
X106021852Y-29235006D01*
X106088414Y-29210306D01*
X106097192Y-29210000D01*
X106299000Y-29210000D01*
X106299000Y-27177000D01*
X106319002Y-27108879D01*
X106372658Y-27062386D01*
X106425000Y-27051000D01*
X107697000Y-27051000D01*
X107765121Y-27071002D01*
G37*
%TD.AperFunction*%
%TD*%
%TA.AperFunction,Conductor*%
%TO.N,TOUCH8*%
G36*
X162523931Y-30528002D02*
G01*
X162544905Y-30544905D01*
X166910905Y-34910905D01*
X166944931Y-34973217D01*
X166939866Y-35044032D01*
X166910905Y-35089095D01*
X162544905Y-39455095D01*
X162482593Y-39489121D01*
X162455810Y-39492000D01*
X150115818Y-39492000D01*
X150047697Y-39471998D01*
X150001204Y-39418342D01*
X149991100Y-39348068D01*
X150020594Y-39283488D01*
X150026723Y-39276905D01*
X150911263Y-38392365D01*
X150973575Y-38358339D01*
X151000358Y-38355460D01*
X151143225Y-38355460D01*
X151149677Y-38354088D01*
X151149682Y-38354088D01*
X151236626Y-38335607D01*
X151330026Y-38315754D01*
X151397859Y-38285553D01*
X151498460Y-38240763D01*
X151498462Y-38240762D01*
X151504490Y-38238078D01*
X151658991Y-38125826D01*
X151786778Y-37983904D01*
X151882265Y-37818516D01*
X151941280Y-37636888D01*
X151949288Y-37560702D01*
X151960552Y-37453525D01*
X151961242Y-37446960D01*
X151945756Y-37299618D01*
X151941970Y-37263595D01*
X151941970Y-37263593D01*
X151941280Y-37257032D01*
X151882265Y-37075404D01*
X151786778Y-36910016D01*
X151745884Y-36864598D01*
X151663413Y-36773005D01*
X151663412Y-36773004D01*
X151658991Y-36768094D01*
X151540588Y-36682069D01*
X151509832Y-36659723D01*
X151509831Y-36659722D01*
X151504490Y-36655842D01*
X151498462Y-36653158D01*
X151498460Y-36653157D01*
X151336057Y-36580851D01*
X151336056Y-36580851D01*
X151330026Y-36578166D01*
X151236625Y-36558313D01*
X151149682Y-36539832D01*
X151149677Y-36539832D01*
X151143225Y-36538460D01*
X150952251Y-36538460D01*
X150945799Y-36539832D01*
X150945794Y-36539832D01*
X150858850Y-36558313D01*
X150765450Y-36578166D01*
X150759420Y-36580851D01*
X150759419Y-36580851D01*
X150597016Y-36653157D01*
X150597014Y-36653158D01*
X150590986Y-36655842D01*
X150585645Y-36659722D01*
X150585644Y-36659723D01*
X150554888Y-36682069D01*
X150436485Y-36768094D01*
X150432064Y-36773004D01*
X150432063Y-36773005D01*
X150349593Y-36864598D01*
X150308698Y-36910016D01*
X150213211Y-37075404D01*
X150154196Y-37257032D01*
X150153506Y-37263593D01*
X150153506Y-37263595D01*
X150149720Y-37299618D01*
X150134234Y-37446960D01*
X150134924Y-37453525D01*
X150137898Y-37481819D01*
X150125126Y-37551657D01*
X150101683Y-37584085D01*
X149294673Y-38391095D01*
X149232361Y-38425121D01*
X149205578Y-38428000D01*
X148157623Y-38428000D01*
X148089502Y-38407998D01*
X148043009Y-38354342D01*
X148032701Y-38285553D01*
X148038952Y-38238078D01*
X148061529Y-38066590D01*
X148063156Y-38000000D01*
X148044852Y-37777361D01*
X147990431Y-37560702D01*
X147901354Y-37355840D01*
X147780014Y-37168277D01*
X147629670Y-37003051D01*
X147625619Y-36999852D01*
X147625615Y-36999848D01*
X147458414Y-36867800D01*
X147458410Y-36867798D01*
X147454359Y-36864598D01*
X147258789Y-36756638D01*
X147253920Y-36754914D01*
X147253916Y-36754912D01*
X147053087Y-36683795D01*
X147053083Y-36683794D01*
X147048212Y-36682069D01*
X147043119Y-36681162D01*
X147043116Y-36681161D01*
X146833373Y-36643800D01*
X146833367Y-36643799D01*
X146828284Y-36642894D01*
X146754452Y-36641992D01*
X146610081Y-36640228D01*
X146610079Y-36640228D01*
X146604911Y-36640165D01*
X146384091Y-36673955D01*
X146171756Y-36743357D01*
X145973607Y-36846507D01*
X145969474Y-36849610D01*
X145969471Y-36849612D01*
X145881405Y-36915734D01*
X145794965Y-36980635D01*
X145640629Y-37142138D01*
X145533201Y-37299621D01*
X145478293Y-37344621D01*
X145407768Y-37352792D01*
X145344021Y-37321538D01*
X145323324Y-37297054D01*
X145242822Y-37172617D01*
X145242820Y-37172614D01*
X145240014Y-37168277D01*
X145089670Y-37003051D01*
X145085619Y-36999852D01*
X145085615Y-36999848D01*
X144918414Y-36867800D01*
X144918410Y-36867798D01*
X144914359Y-36864598D01*
X144718789Y-36756638D01*
X144713920Y-36754914D01*
X144713916Y-36754912D01*
X144513087Y-36683795D01*
X144513083Y-36683794D01*
X144508212Y-36682069D01*
X144503119Y-36681162D01*
X144503116Y-36681161D01*
X144293373Y-36643800D01*
X144293367Y-36643799D01*
X144288284Y-36642894D01*
X144214452Y-36641992D01*
X144070081Y-36640228D01*
X144070079Y-36640228D01*
X144064911Y-36640165D01*
X143844091Y-36673955D01*
X143631756Y-36743357D01*
X143601443Y-36759137D01*
X143575481Y-36772652D01*
X143505822Y-36786365D01*
X143439807Y-36760240D01*
X143398395Y-36702572D01*
X143394736Y-36631669D01*
X143428206Y-36571794D01*
X145000000Y-35000000D01*
X140723095Y-30723095D01*
X140689069Y-30660783D01*
X140694134Y-30589968D01*
X140736681Y-30533132D01*
X140803201Y-30508321D01*
X140812190Y-30508000D01*
X162455810Y-30508000D01*
X162523931Y-30528002D01*
G37*
%TD.AperFunction*%
%TD*%
%TA.AperFunction,Conductor*%
%TO.N,TOUCH6*%
G36*
X211523931Y-30528002D02*
G01*
X211544905Y-30544905D01*
X215910905Y-34910905D01*
X215944931Y-34973217D01*
X215939866Y-35044032D01*
X215910905Y-35089095D01*
X211544905Y-39455095D01*
X211482593Y-39489121D01*
X211455810Y-39492000D01*
X188812190Y-39492000D01*
X188744069Y-39471998D01*
X188697576Y-39418342D01*
X188687472Y-39348068D01*
X188716966Y-39283488D01*
X188723095Y-39276905D01*
X193000000Y-35000000D01*
X188723095Y-30723095D01*
X188689069Y-30660783D01*
X188694134Y-30589968D01*
X188736681Y-30533132D01*
X188803201Y-30508321D01*
X188812190Y-30508000D01*
X211455810Y-30508000D01*
X211523931Y-30528002D01*
G37*
%TD.AperFunction*%
%TD*%
%TA.AperFunction,Conductor*%
%TO.N,TOUCH9*%
G36*
X139523931Y-30528002D02*
G01*
X139544905Y-30544905D01*
X143910905Y-34910905D01*
X143944931Y-34973217D01*
X143939866Y-35044032D01*
X143910905Y-35089095D01*
X142282691Y-36717309D01*
X142220379Y-36751335D01*
X142151537Y-36746987D01*
X141973091Y-36683796D01*
X141973083Y-36683794D01*
X141968212Y-36682069D01*
X141963119Y-36681162D01*
X141963116Y-36681161D01*
X141753373Y-36643800D01*
X141753367Y-36643799D01*
X141748284Y-36642894D01*
X141674452Y-36641992D01*
X141530081Y-36640228D01*
X141530079Y-36640228D01*
X141524911Y-36640165D01*
X141304091Y-36673955D01*
X141091756Y-36743357D01*
X140893607Y-36846507D01*
X140889474Y-36849610D01*
X140889471Y-36849612D01*
X140806450Y-36911946D01*
X140714965Y-36980635D01*
X140560629Y-37142138D01*
X140453201Y-37299621D01*
X140398293Y-37344621D01*
X140327768Y-37352792D01*
X140264021Y-37321538D01*
X140243324Y-37297054D01*
X140162822Y-37172617D01*
X140162820Y-37172614D01*
X140160014Y-37168277D01*
X140009670Y-37003051D01*
X140005619Y-36999852D01*
X140005615Y-36999848D01*
X139838414Y-36867800D01*
X139838410Y-36867798D01*
X139834359Y-36864598D01*
X139638789Y-36756638D01*
X139633920Y-36754914D01*
X139633916Y-36754912D01*
X139433087Y-36683795D01*
X139433083Y-36683794D01*
X139428212Y-36682069D01*
X139423119Y-36681162D01*
X139423116Y-36681161D01*
X139213373Y-36643800D01*
X139213367Y-36643799D01*
X139208284Y-36642894D01*
X139134452Y-36641992D01*
X138990081Y-36640228D01*
X138990079Y-36640228D01*
X138984911Y-36640165D01*
X138764091Y-36673955D01*
X138551756Y-36743357D01*
X138353607Y-36846507D01*
X138349474Y-36849610D01*
X138349471Y-36849612D01*
X138266450Y-36911946D01*
X138174965Y-36980635D01*
X138020629Y-37142138D01*
X137913201Y-37299621D01*
X137858293Y-37344621D01*
X137787768Y-37352792D01*
X137724021Y-37321538D01*
X137703324Y-37297054D01*
X137622822Y-37172617D01*
X137622820Y-37172614D01*
X137620014Y-37168277D01*
X137469670Y-37003051D01*
X137465619Y-36999852D01*
X137465615Y-36999848D01*
X137298414Y-36867800D01*
X137298410Y-36867798D01*
X137294359Y-36864598D01*
X137098789Y-36756638D01*
X137093920Y-36754914D01*
X137093916Y-36754912D01*
X136893087Y-36683795D01*
X136893083Y-36683794D01*
X136888212Y-36682069D01*
X136883119Y-36681162D01*
X136883116Y-36681161D01*
X136673373Y-36643800D01*
X136673367Y-36643799D01*
X136668284Y-36642894D01*
X136594452Y-36641992D01*
X136450081Y-36640228D01*
X136450079Y-36640228D01*
X136444911Y-36640165D01*
X136224091Y-36673955D01*
X136011756Y-36743357D01*
X135813607Y-36846507D01*
X135809474Y-36849610D01*
X135809471Y-36849612D01*
X135726450Y-36911946D01*
X135634965Y-36980635D01*
X135631393Y-36984373D01*
X135553898Y-37065466D01*
X135492374Y-37100895D01*
X135421462Y-37097438D01*
X135363676Y-37056192D01*
X135344823Y-37022644D01*
X135303324Y-36911946D01*
X135294786Y-36896351D01*
X135218285Y-36794276D01*
X135205724Y-36781715D01*
X135103649Y-36705214D01*
X135088054Y-36696676D01*
X134967606Y-36651522D01*
X134952351Y-36647895D01*
X134901486Y-36642369D01*
X134894672Y-36642000D01*
X134272115Y-36642000D01*
X134256876Y-36646475D01*
X134255671Y-36647865D01*
X134254000Y-36655548D01*
X134254000Y-38128000D01*
X134233998Y-38196121D01*
X134180342Y-38242614D01*
X134128000Y-38254000D01*
X132660116Y-38254000D01*
X132644877Y-38258475D01*
X132643672Y-38259865D01*
X132642001Y-38267548D01*
X132642001Y-38894669D01*
X132642371Y-38901490D01*
X132647895Y-38952352D01*
X132651521Y-38967604D01*
X132696676Y-39088054D01*
X132705214Y-39103649D01*
X132781715Y-39205724D01*
X132794276Y-39218285D01*
X132856840Y-39265174D01*
X132899355Y-39322033D01*
X132904381Y-39392851D01*
X132870321Y-39455145D01*
X132807990Y-39489135D01*
X132781275Y-39492000D01*
X120634000Y-39492000D01*
X120565879Y-39471998D01*
X120519386Y-39418342D01*
X120508000Y-39366000D01*
X120508000Y-37727885D01*
X132642000Y-37727885D01*
X132646475Y-37743124D01*
X132647865Y-37744329D01*
X132655548Y-37746000D01*
X133727885Y-37746000D01*
X133743124Y-37741525D01*
X133744329Y-37740135D01*
X133746000Y-37732452D01*
X133746000Y-36660116D01*
X133741525Y-36644877D01*
X133740135Y-36643672D01*
X133732452Y-36642001D01*
X133105331Y-36642001D01*
X133098510Y-36642371D01*
X133047648Y-36647895D01*
X133032396Y-36651521D01*
X132911946Y-36696676D01*
X132896351Y-36705214D01*
X132794276Y-36781715D01*
X132781715Y-36794276D01*
X132705214Y-36896351D01*
X132696676Y-36911946D01*
X132651522Y-37032394D01*
X132647895Y-37047649D01*
X132642369Y-37098514D01*
X132642000Y-37105328D01*
X132642000Y-37727885D01*
X120508000Y-37727885D01*
X120508000Y-30634000D01*
X120528002Y-30565879D01*
X120581658Y-30519386D01*
X120634000Y-30508000D01*
X139455810Y-30508000D01*
X139523931Y-30528002D01*
G37*
%TD.AperFunction*%
%TD*%
%TA.AperFunction,Conductor*%
%TO.N,TOUCH5*%
G36*
X239434121Y-30528002D02*
G01*
X239480614Y-30581658D01*
X239492000Y-30634000D01*
X239492000Y-39366000D01*
X239471998Y-39434121D01*
X239418342Y-39480614D01*
X239366000Y-39492000D01*
X212812190Y-39492000D01*
X212744069Y-39471998D01*
X212697576Y-39418342D01*
X212687472Y-39348068D01*
X212716966Y-39283488D01*
X212723095Y-39276905D01*
X217000000Y-35000000D01*
X212723095Y-30723095D01*
X212689069Y-30660783D01*
X212694134Y-30589968D01*
X212736681Y-30533132D01*
X212803201Y-30508321D01*
X212812190Y-30508000D01*
X239366000Y-30508000D01*
X239434121Y-30528002D01*
G37*
%TD.AperFunction*%
%TD*%
%TA.AperFunction,Conductor*%
%TO.N,TOUCH7*%
G36*
X187523931Y-30528002D02*
G01*
X187544905Y-30544905D01*
X191910905Y-34910905D01*
X191944931Y-34973217D01*
X191939866Y-35044032D01*
X191910905Y-35089095D01*
X187544905Y-39455095D01*
X187482593Y-39489121D01*
X187455810Y-39492000D01*
X163812190Y-39492000D01*
X163744069Y-39471998D01*
X163697576Y-39418342D01*
X163687472Y-39348068D01*
X163716966Y-39283488D01*
X163723095Y-39276905D01*
X168000000Y-35000000D01*
X163723095Y-30723095D01*
X163689069Y-30660783D01*
X163694134Y-30589968D01*
X163736681Y-30533132D01*
X163803201Y-30508321D01*
X163812190Y-30508000D01*
X187455810Y-30508000D01*
X187523931Y-30528002D01*
G37*
%TD.AperFunction*%
%TD*%
M02*
